<?xml version="1.0" encoding="UTF-8"?>
<svg version="1.1" xmlns="http://www.w3.org/2000/svg" width="319" height="319">
<path d="M0 0 C1.2226355 0.00131424 1.2226355 0.00131424 2.4699707 0.00265503 C29.45231084 0.09811454 54.41879144 6.15427201 78.0625 19.375 C78.70944824 19.73352051 79.35639648 20.09204102 80.02294922 20.46142578 C88.73463501 25.34005605 96.5544319 30.74955975 104.0625 37.375 C104.93777344 38.14070313 105.81304687 38.90640625 106.71484375 39.6953125 C136.19430666 65.85002395 157.66512928 103.43869077 160.19073486 143.40420532 C160.42294113 148.7059944 160.45145992 154.00638213 160.4375 159.3125 C160.43662384 160.12759033 160.43574768 160.94268066 160.43484497 161.7824707 C160.33938546 188.76481084 154.28322799 213.73129144 141.0625 237.375 C140.70397949 238.02194824 140.34545898 238.66889648 139.97607422 239.33544922 C135.09744395 248.04713501 129.68794025 255.8669319 123.0625 263.375 C121.91394531 264.68791016 121.91394531 264.68791016 120.7421875 266.02734375 C101.92882155 287.23223927 79.59248337 301.85575931 53.0234375 311.63916016 C51.43813562 312.23404311 49.87492394 312.88758625 48.3203125 313.55859375 C44.97636546 314.76773723 41.69645732 314.82269483 38.171875 315.03125 C37.47578125 315.1446875 36.7796875 315.258125 36.0625 315.375 C35.7325 316.035 35.4025 316.695 35.0625 317.375 C23.88467332 319.71454512 12.31111829 319.7738416 0.9375 319.75 C0.13455505 319.75078552 -0.66838989 319.75157104 -1.4956665 319.75238037 C-20.26872416 319.73047047 -37.80652435 317.06265804 -55.375 310.25 C-56.15125732 309.94940674 -56.92751465 309.64881348 -57.72729492 309.33911133 C-64.55250893 306.63687243 -71.07253795 303.4567282 -77.58203125 300.07421875 C-80.80427975 298.37567463 -80.80427975 298.37567463 -83.7578125 297.26953125 C-86.47920127 296.1526889 -87.90520681 294.47285103 -89.9375 292.375 C-92.07059192 291.13987921 -92.07059192 291.13987921 -93.9375 290.375 C-93.9375 289.715 -93.9375 289.055 -93.9375 288.375 C-94.48664063 288.13394531 -95.03578125 287.89289063 -95.6015625 287.64453125 C-99.55763292 285.49449298 -102.81983292 282.47370757 -106.265625 279.59765625 C-108.1616254 278.02042784 -110.09895241 276.49229617 -112.0625 275 C-116.54805779 270.90449071 -120.17848729 266.13185971 -123.9375 261.375 C-124.68773437 260.4778125 -125.43796875 259.580625 -126.2109375 258.65625 C-127.9375 256.375 -127.9375 256.375 -127.9375 254.375 C-128.5975 254.375 -129.2575 254.375 -129.9375 254.375 C-132.42984042 250.9821841 -134.44950604 247.26279243 -136.5625 243.625 C-137.19188477 242.54565186 -137.82126953 241.46630371 -138.46972656 240.35424805 C-143.63981459 231.28929829 -147.74499132 222.05197959 -151.25610352 212.23730469 C-151.78764511 210.78456398 -152.38703604 209.35659653 -153.01171875 207.94140625 C-154.47082351 203.89654621 -155.1883718 199.715529 -156 195.5 C-156.17337891 194.62730469 -156.34675781 193.75460938 -156.52539062 192.85546875 C-157.99783687 185.35219861 -159.09343691 178.03504256 -159.17578125 170.37109375 C-159.18539383 169.61853806 -159.19500641 168.86598236 -159.20491028 168.09062195 C-159.22953942 165.66453482 -159.24216178 163.23869748 -159.25 160.8125 C-159.25328308 159.98707703 -159.25656616 159.16165405 -159.25994873 158.31121826 C-159.3088889 120.29393665 -146.19704734 85.56153472 -121.9375 56.375 C-121.24011719 55.47007813 -120.54273438 54.56515625 -119.82421875 53.6328125 C-114.51987232 46.83043573 -108.76800565 41.60745954 -101.9375 36.375 C-100.97328125 35.58480469 -100.0090625 34.79460938 -99.015625 33.98046875 C-70.6957106 11.15921793 -36.15345888 -0.0951165 0 0 Z M-63.9375 84.375 C-64.68515625 84.97828125 -65.4328125 85.5815625 -66.203125 86.203125 C-85.00150651 101.84653339 -96.05129702 125.78792158 -98.65625 149.80859375 C-100.70260138 175.75746609 -93.96710625 201.91582848 -76.953125 222.046875 C-76.28796875 222.81515625 -75.6228125 223.5834375 -74.9375 224.375 C-74.33421875 225.12265625 -73.7309375 225.8703125 -73.109375 226.640625 C-57.29844152 245.64031818 -33.43815223 256.23793379 -9.24609375 259.09375 C15.39459016 261.18835359 40.67932063 254.87219948 60.3125 239.4375 C61.90374615 238.09264035 63.48737163 236.73870174 65.0625 235.375 C65.81015625 234.77171875 66.5578125 234.1684375 67.328125 233.546875 C86.32781818 217.73594152 96.92543379 193.87565223 99.78125 169.68359375 C101.87585359 145.04290984 95.55969948 119.75817937 80.125 100.125 C78.78014035 98.53375385 77.42620174 96.95012837 76.0625 95.375 C75.45921875 94.62734375 74.8559375 93.8796875 74.234375 93.109375 C58.59096661 74.31099349 34.64957842 63.26120298 10.62890625 60.65625 C-16.8163564 58.49189194 -42.99468656 66.24330246 -63.9375 84.375 Z " fill="#024B9A" transform="translate(158.9375,-0.37499999999999994)"/>
<path d="M0 0 C9.06723344 -0.06982631 18.13437285 -0.12297568 27.20181751 -0.15543652 C31.41320679 -0.17102415 35.62441072 -0.19213454 39.83569336 -0.22631836 C43.90762312 -0.25916031 47.97937575 -0.27690478 52.05142784 -0.28463173 C53.59699983 -0.29013105 55.14256326 -0.30086854 56.68805885 -0.31719017 C70.89629902 -0.46113242 82.13359911 1.04061457 93 11 C96.26251731 15.0063418 98.1065718 19.22895286 100 24 C100.31936523 23.30326172 100.63873047 22.60652344 100.96777344 21.88867188 C110.55435787 1.77366315 110.55435787 1.77366315 118.78515625 -1.51171875 C124.44947578 -2.72185366 129.10231735 -2.1649077 134 1 C140.56823129 8.03011312 144.76302527 16.81560883 149.08105469 25.32666016 C152.20316904 31.41670304 155.9901927 37.1165404 159.6875 42.86816406 C162.99103628 48.25040855 162.99103628 48.25040855 163.03125 51.61328125 C161.66186252 54.78258332 160.13908441 57.78766957 158.375 60.75 C158.05660156 61.33910156 157.73820313 61.92820313 157.41015625 62.53515625 C156.3984375 64.234375 156.3984375 64.234375 154 67 C149.12787821 68.02006888 144.35206623 68.12847514 139.38671875 68.1328125 C138.34328056 68.13424759 138.34328056 68.13424759 137.27876282 68.13571167 C135.82247832 68.1363871 134.36619069 68.13457765 132.90991211 68.13037109 C130.67620181 68.12497269 128.44268885 68.1303584 126.20898438 68.13671875 C124.78906206 68.13605865 123.36913986 68.13477891 121.94921875 68.1328125 C120.02082153 68.13112061 120.02082153 68.13112061 118.0534668 68.12939453 C115 68 115 68 113 67 C113 64.03 113 61.06 113 58 C127.19 57.67 141.38 57.34 156 57 C154.185 53.926875 152.37 50.85375 150.5 47.6875 C149.88213623 46.64045898 149.26427246 45.59341797 148.62768555 44.51464844 C145.67843583 39.51958463 142.72219557 34.52889895 139.7472229 29.54911804 C138.29037353 27.11023697 136.83608498 24.66983287 135.38183594 22.22940063 C134.67202927 21.03996805 133.96093945 19.85130021 133.24853516 18.66342163 C132.24185876 16.98459523 131.23998245 15.30289343 130.23828125 13.62109375 C129.66118408 12.6561499 129.08408691 11.69120605 128.48950195 10.69702148 C127.09890446 8.179085 125.999869 5.69355589 125 3 C124.34 3 123.68 3 123 3 C122.74347656 3.69569092 122.48695313 4.39138184 122.22265625 5.1081543 C120.85777092 8.33640245 119.21209968 11.24666202 117.4375 14.26953125 C117.08975021 14.8634819 116.74200043 15.45743256 116.38371277 16.06938171 C115.25969601 17.98607034 114.13024915 19.89948089 113 21.8125 C112.61727936 22.46250977 112.23455872 23.11251953 111.84024048 23.78222656 C107.35724586 31.39591966 102.85523098 38.99763317 98.1875 46.5 C97.81044922 47.1081958 97.43339844 47.7163916 97.04492188 48.34301758 C93.57286115 53.84973774 90.33075624 58.14403099 84.8125 61.6875 C83.93207031 62.26886719 83.05164063 62.85023438 82.14453125 63.44921875 C73.6059562 67.66016819 64.78143348 67.24829824 55.4375 67.125 C51.003125 67.08375 46.56875 67.0425 42 67 C42 53.8 42 40.6 42 27 C44.97 27 47.94 27 51 27 C51 37.23 51 47.46 51 58 C55.9190625 57.87625 55.9190625 57.87625 60.9375 57.75 C61.95191162 57.73420898 62.96632324 57.71841797 64.01147461 57.70214844 C72.2920443 57.39679992 80.080816 55.08830354 86 49 C89.83990011 42.6999605 91.95921915 36.46351335 91 29 C88.69564316 21.83619636 85.45209981 16.16126339 78.78759766 12.40356445 C72.04285815 9.12203906 65.3833897 9.26869953 58.0234375 9.29296875 C56.60281275 9.27982644 55.18220658 9.26451452 53.7616272 9.24714661 C50.0561115 9.20757842 46.3510877 9.19712465 42.64538574 9.19311523 C38.18134125 9.18207453 33.71755242 9.13419813 29.25370789 9.09262848 C22.50225374 9.03381327 15.75214648 9.02125747 9 9 C9 28.14 9 47.28 9 67 C2 68 2 68 0 68 C-1.24107783 61.25849482 -1.14412933 54.57255455 -1.1328125 47.734375 C-1.13376923 46.46402405 -1.13472595 45.1936731 -1.13571167 43.88482666 C-1.13639041 41.2086644 -1.13506382 38.53259432 -1.13037109 35.85644531 C-1.12465118 32.42776724 -1.12797312 28.99916707 -1.13394356 25.57049179 C-1.13842269 22.29178338 -1.13528922 19.01308443 -1.1328125 15.734375 C-1.13483673 14.50313904 -1.13686096 13.27190308 -1.13894653 12.00335693 C-1.13579437 10.86497375 -1.13264221 9.72659058 -1.12939453 8.55371094 C-1.12859894 7.55112244 -1.12780334 6.54853394 -1.12698364 5.51556396 C-1 3 -1 3 0 0 Z " fill="#3DA7F3" transform="translate(80,126)"/>
<path d="M0 0 C8.04148775 -0.11344229 16.08234235 -0.20496683 24.12441826 -0.25906086 C27.85961769 -0.28503731 31.59423631 -0.32021169 35.32910156 -0.37719727 C38.94071191 -0.4319507 42.55176743 -0.46151017 46.16376114 -0.47438622 C47.53438158 -0.48354931 48.90497531 -0.50144105 50.27535629 -0.52865028 C58.96308256 -0.69411926 65.71970375 -0.03485745 73 5 C75.25390625 7.3515625 75.25390625 7.3515625 76.5625 9.625 C77.01753906 10.38039062 77.47257812 11.13578125 77.94140625 11.9140625 C80.97145917 17.88472029 80.95551725 24.84869735 78.9375 31.1875 C76.24222359 37.43851666 71.36434353 41.88659401 65.08251953 44.4309082 C60.9689667 45.55502211 56.79201556 45.30532445 52.5625 45.1875 C47.8290625 45.0946875 47.8290625 45.0946875 43 45 C43 35.43 43 25.86 43 16 C45.97 16 48.94 16 52 16 C52 22.6 52 29.2 52 36 C60.711371 35.54861232 60.711371 35.54861232 68 31 C70.57010512 26.7726202 70.65297951 22.82200253 70 18 C68.11512564 13.75903269 66.76070995 12.36117514 62.5625 10.36791992 C57.27093427 8.50711749 52.05950953 8.52275382 46.5 8.48828125 C44.88557007 8.46135445 44.88557007 8.46135445 43.23852539 8.43388367 C39.82572257 8.38001999 36.41305769 8.34596135 33 8.3125 C30.67576216 8.27930585 28.35154246 8.24481427 26.02734375 8.20898438 C20.35168627 8.12430739 14.67601039 8.05585681 9 8 C9 10.64 9 13.28 9 16 C15.93 16 22.86 16 30 16 C30 18.97 30 21.94 30 25 C20.1 25 10.2 25 0 25 C0 16.75 0 8.5 0 0 Z " fill="#3EA8F4" transform="translate(90,137)"/>
<path d="M0 0 C3.89278022 -0.813192 7.11885596 -0.94602886 11 0 C13.03578203 1.78426826 14.6170102 3.37529881 16.3125 5.4375 C26.76028779 18.14335198 41.8364082 25.32488384 58 28 C77.13665947 29.7442418 96.2826456 26.74102005 111.73730469 14.63964844 C116.29516908 10.79189564 120.53715992 6.64312771 124.50390625 2.1875 C127 0 127 0 129.67578125 -0.48828125 C130.54589844 -0.43027344 131.41601562 -0.37226563 132.3125 -0.3125 C133.19550781 -0.26738281 134.07851562 -0.22226563 134.98828125 -0.17578125 C135.65214844 -0.11777344 136.31601563 -0.05976563 137 0 C135.57041237 4.44309337 133.14759111 7.46673323 130 10.8125 C129.50653076 11.33875977 129.01306152 11.86501953 128.50463867 12.40722656 C111.36207578 30.36531744 89.35785207 38.24967568 64.78710938 39.03125 C57.86316136 38.95361639 51.50560674 37.24163228 45 35 C44.34563965 34.78279297 43.6912793 34.56558594 43.01708984 34.34179688 C25.05854733 28.24753016 10.24217946 17.0212863 0 1 C0 0.67 0 0.34 0 0 Z " fill="#3EA7F3" transform="translate(91,203)"/>
<path d="M0 0 C6.95580025 5.59567658 13.23101522 11.80165561 17.9765625 19.39453125 C17.9765625 20.05453125 17.9765625 20.71453125 17.9765625 21.39453125 C14.37072282 22.34686363 11.58597991 22.38480731 7.9765625 21.39453125 C4.92024921 19.13361875 2.44360974 16.30991659 -0.12915039 13.52856445 C-4.89371314 8.39066693 -9.8139117 4.69901574 -16.0234375 1.39453125 C-16.90515625 0.9253125 -17.786875 0.45609375 -18.6953125 -0.02734375 C-35.19265794 -8.1329759 -54.98651236 -9.40042079 -72.53125 -3.9296875 C-84.91397228 0.76577431 -95.74124364 6.80025917 -103.9609375 17.39453125 C-106.30548793 20.20125179 -107.33647039 21.26224675 -110.96484375 21.9609375 C-113.71020376 21.95743129 -116.31003138 21.79854944 -119.0234375 21.39453125 C-110.77162158 4.51581687 -94.26904749 -6.49975455 -77.0234375 -12.60546875 C-50.17043105 -21.16339051 -22.73453028 -16.55728198 0 0 Z " fill="#3EA7F3" transform="translate(210.0234375,94.60546875)"/>
<path d="M0 0 C3.75473617 3.14171802 4.82121884 5.07629732 5.75 9.875 C5.44075832 15.2351892 1.67905893 18.45411968 -2 22 C-2.66 22.66 -3.32 23.32 -4 24 C-3.319375 24.928125 -2.63875 25.85625 -1.9375 26.8125 C-1.298125 27.864375 -0.65875 28.91625 0 30 C-1.19725286 33.59175859 -2.36382009 34.24976573 -5.375 36.4375 C-7.87301815 38.25608976 -9.79323622 39.71324732 -11.60546875 42.2265625 C-12.06566406 42.81179687 -12.52585938 43.39703125 -13 44 C-13.969375 43.979375 -14.93875 43.95875 -15.9375 43.9375 C-19.15402508 43.6755142 -19.15402508 43.6755142 -21.4375 46.125 C-23.34059726 48.90234734 -23.34059726 48.90234734 -22.4375 51.9375 C-22 55 -22 55 -23.03125 56.71484375 C-24.28961389 58.20041223 -25.64002355 59.60685339 -27 61 C-31.30114922 59.56628359 -32.29339238 56.36229189 -34.3125 52.5625 C-35.10504594 51.09802354 -35.89931817 49.63448 -36.6953125 48.171875 C-37.08364258 47.45708984 -37.47197266 46.74230469 -37.87207031 46.00585938 C-39.7932806 42.58926549 -41.97981841 39.34202129 -44.19921875 36.11328125 C-45 34 -45 34 -44.21875 31.34765625 C-42.12841784 27.32108694 -42.12841784 27.32108694 -40 26 C-33.20300484 26.42130135 -26.95936187 28.86440919 -20.5625 31.0625 C-19.44939453 31.43955078 -18.33628906 31.81660156 -17.18945312 32.20507812 C-14.45773391 33.13128335 -11.72805139 34.06305809 -9 35 C-9.64066406 34.17757812 -10.28132813 33.35515625 -10.94140625 32.5078125 C-16.14980568 25.79501099 -21.21216284 19.02321808 -26 12 C-18.99622283 4.29584511 -10.76390079 -2.96935194 0 0 Z " fill="#F7F9FC" transform="translate(90,39)"/>
<path d="M0 0 C1.75 2.25 1.75 2.25 3 5 C1.82066604 8.45572275 -0.09515408 10.13544304 -3 12.25 C-4.051875 13.03117187 -4.051875 13.03117187 -5.125 13.828125 C-7 15 -7 15 -9 15 C-8.505 16.485 -8.505 16.485 -8 18 C-3.32894208 16.44298069 0.08705685 13.91552627 4 11 C6.475 13.475 6.475 13.475 9 16 C6.33397318 18.74443937 3.67898532 21.29999628 0.6875 23.6875 C-0.199375 24.450625 -1.08625 25.21375 -2 26 C-2 26.66 -2 27.32 -2 28 C1.7727673 25.92112822 5.34420637 23.80750224 8.8125 21.25 C12 19 12 19 14 19 C15.32 21.31 16.64 23.62 18 26 C17.5059668 26.34780518 17.01193359 26.69561035 16.50292969 27.05395508 C14.2515108 28.6395097 12.00074986 30.22599583 9.75 31.8125 C8.97269531 32.35970703 8.19539063 32.90691406 7.39453125 33.47070312 C6.64042969 34.00244141 5.88632813 34.53417969 5.109375 35.08203125 C4.41811523 35.56905518 3.72685547 36.0560791 3.01464844 36.55786133 C1.60739831 37.56520822 0.22671345 38.61025167 -1.13183594 39.68237305 C-3 41 -3 41 -5 41 C-6.17333984 39.62646484 -6.17333984 39.62646484 -7.4609375 37.7109375 C-7.93273437 37.01613281 -8.40453125 36.32132812 -8.890625 35.60546875 C-9.62539062 34.50138672 -9.62539062 34.50138672 -10.375 33.375 C-10.85710937 32.66214844 -11.33921875 31.94929688 -11.8359375 31.21484375 C-13.23145452 29.14811338 -14.61747337 27.07543974 -16 25 C-17.32 23.02 -18.64 21.04 -20 19 C-20 28.9 -20 38.8 -20 49 C-23.3 49.99 -26.6 50.98 -30 52 C-36.90951876 43.84088743 -43.5416538 35.51952052 -50 27 C-49.67 26.34 -49.34 25.68 -49 25 C-46.04179941 24.09408602 -43.03989563 23.59941604 -40 23 C-36.7 27.29 -33.4 31.58 -30 36 C-30.33 30.39 -30.66 24.78 -31 19 C-28.834375 17.9171875 -28.834375 17.9171875 -26.625 16.8125 C-19.99871557 13.23517259 -14.04579155 8.81974006 -8.02001953 4.31958008 C-7.26962402 3.76294678 -6.51922852 3.20631348 -5.74609375 2.6328125 C-5.07247803 2.12637207 -4.3988623 1.61993164 -3.70483398 1.09814453 C-2 0 -2 0 0 0 Z " fill="#F6F8FB" transform="translate(237,245)"/>
<path d="M0 0 C0.66 0 1.32 0 2 0 C3.25658227 1.85130495 4.41334211 3.77049184 5.52734375 5.7109375 C5.87254059 6.3066304 6.21773743 6.9023233 6.57339478 7.5160675 C7.701434 9.46527775 8.81939448 11.42007767 9.9375 13.375 C11.47331052 16.0370417 13.01398226 18.69625774 14.5546875 21.35546875 C15.12573967 22.34348228 15.12573967 22.34348228 15.70832825 23.35145569 C19.33263016 29.60875953 23.09984493 35.77375347 26.95092773 41.89404297 C30 46.79200161 30 46.79200161 30 49 C16.8 49 3.6 49 -10 49 C-10 46.36 -10 43.72 -10 41 C-2.08 40.67 5.84 40.34 14 40 C10.05559943 33.50512179 10.05559943 33.50512179 6.1015625 27.01611328 C5.37066406 25.80544189 5.37066406 25.80544189 4.625 24.5703125 C4.12226563 23.74289551 3.61953125 22.91547852 3.1015625 22.06298828 C2 20 2 20 2 18 C1.34 18 0.68 18 0 18 C-0.21527344 18.78503906 -0.43054688 19.57007813 -0.65234375 20.37890625 C-2.81847866 26.19921656 -6.06460858 31.38090474 -9.19702148 36.72729492 C-9.74044189 37.65517822 -10.2838623 38.58306152 -10.84375 39.5390625 C-11.65199219 40.91819824 -11.65199219 40.91819824 -12.4765625 42.32519531 C-13.86155429 44.75692128 -15.15028632 47.21083857 -16.40625 49.7109375 C-18.35182906 53.47724563 -20.17105082 56.81743217 -23 60 C-26.94127875 61.20085837 -30.03306907 61.00100126 -34 60 C-33.41773516 55.78756548 -31.97966286 52.93474636 -29.74609375 49.3359375 C-29.06361572 48.22573242 -28.3811377 47.11552734 -27.67797852 45.97167969 C-26.93128511 44.77270377 -26.18445579 43.57381248 -25.4375 42.375 C-23.88982263 39.8692802 -22.34713097 37.36050662 -20.8046875 34.8515625 C-20.40925247 34.20985107 -20.01381744 33.56813965 -19.60639954 32.90698242 C-16.80787882 28.35354367 -14.07711285 23.76421463 -11.3828125 19.1484375 C-11.01638138 18.52210419 -10.64995026 17.89577087 -10.27241516 17.25045776 C-8.84977951 14.81723305 -7.42798228 12.38367091 -6.01974487 9.94207764 C-5.0520476 8.26500697 -4.07508969 6.59328994 -3.09765625 4.921875 C-2.54601807 3.96893555 -1.99437988 3.01599609 -1.42602539 2.03417969 C-0.72014282 1.02726074 -0.72014282 1.02726074 0 0 Z " fill="#3EA7F3" transform="translate(203,133)"/>
<path d="M0 0 C10.07373248 8.33853066 10.07373248 8.33853066 12.20996094 13.62353516 C1.20253352 14.41354191 1.20253352 14.41354191 -2.85253906 11.18603516 C-3.49191406 10.34041016 -4.13128906 9.49478516 -4.79003906 8.62353516 C-6.27503906 8.12853516 -6.27503906 8.12853516 -7.79003906 7.62353516 C-7.79003906 6.96353516 -7.79003906 6.30353516 -7.79003906 5.62353516 C-8.50546875 5.34509766 -9.22089844 5.06666016 -9.95800781 4.77978516 C-12.72416974 3.65042801 -15.4038165 2.40454963 -18.10253906 1.12353516 C-33.34818194 -5.76028765 -49.5145313 -5.75235915 -65.22753906 -0.31396484 C-73.07182971 2.850278 -80.78836502 7.62186111 -86.79003906 13.62353516 C-89.39160156 13.81884766 -89.39160156 13.81884766 -92.41503906 13.74853516 C-93.919375 13.72146484 -93.919375 13.72146484 -95.45410156 13.69384766 C-96.22496094 13.67064453 -96.99582031 13.64744141 -97.79003906 13.62353516 C-94.35112221 3.41259742 -82.84830854 -2.62391987 -73.79003906 -7.37646484 C-50.01148752 -17.87510878 -20.9399879 -16.10197106 0 0 Z " fill="#3DA7F3" transform="translate(202.7900390625,102.37646484375)"/>
<path d="M0 0 C4.89879994 -0.67055817 9.21087273 -1.10821135 13.53515625 1.5703125 C15.17394473 2.97194297 16.79581492 4.39353872 18.40234375 5.83203125 C30.45719172 15.89284422 46.68446912 18.94947693 61.95703125 17.66796875 C73.66322909 16.07781218 85.85259939 11.53620062 94.25 3 C97.51944497 -0.24735412 99.9346457 -0.43219145 104.5 -0.4375 C106.33575186 -0.32617346 108.17093073 -0.19205227 110 0 C104.54100717 12.24878491 89.88764745 19.42911584 78 24 C64.17602818 29.19965103 45.83915591 29.06757327 32 24 C30.49953125 23.47212891 30.49953125 23.47212891 28.96875 22.93359375 C19.39730068 19.27178927 5.20379934 12.12639982 0.78125 2.2890625 C0.5234375 1.53367188 0.265625 0.77828125 0 0 Z " fill="#3DA7F3" transform="translate(105,203)"/>
<path d="M0 0 C4.79469421 2.19264005 8.03896285 4.76783237 10.87109375 9.31640625 C12.29746796 13.83885154 12.43871057 17.82275645 10.49609375 22.19140625 C7.34019883 27.71981791 3.00747185 32.50830863 -1.12890625 37.31640625 C-5.59264283 34.45934594 -9.62037719 31.33995212 -13.62890625 27.87890625 C-14.72247138 26.9424924 -15.81622048 26.00629334 -16.91015625 25.0703125 C-17.43867188 24.61672363 -17.9671875 24.16313477 -18.51171875 23.69580078 C-21.0317698 21.54630071 -23.57998343 19.43155154 -26.12890625 17.31640625 C-23.39253993 13.02094749 -20.45787186 9.27233739 -17.00390625 5.50390625 C-16.13507813 4.54871094 -15.26625 3.59351563 -14.37109375 2.609375 C-10.28068408 -1.57367461 -5.42834074 -1.74304519 0 0 Z " fill="#F7F9FC" transform="translate(264.12890625,226.68359375)"/>
<path d="M0 0 C4.19460762 1.39820254 5.71782961 4.43773787 8.125 7.9375 C8.80755859 8.90719727 8.80755859 8.90719727 9.50390625 9.89648438 C13.48307063 15.58184831 14.98992842 19.05912254 14 26 C11.98277582 30.64956605 8.52963349 34.06706804 4.0234375 36.33984375 C0.06851533 37.6301562 -3.93703281 37.85403947 -8 37 C-13.06724783 34.25662798 -16.05889897 30.80838662 -19.375 26.25 C-19.82488281 25.64800781 -20.27476562 25.04601562 -20.73828125 24.42578125 C-21.83411708 22.95689492 -22.91829713 21.47932488 -24 20 C-19.65498599 15.37238345 -14.78396402 11.60138199 -9.75 7.75 C-8.11939949 6.49530117 -6.48917062 5.24011917 -4.859375 3.984375 C-3.78381348 3.16018066 -3.78381348 3.16018066 -2.68652344 2.31933594 C-1.06670411 1.10712274 -1.06670411 1.10712274 0 0 Z " fill="#F7F9FC" transform="translate(264,60)"/>
<path d="M0 0 C4.8846525 2.26787438 7.73212562 5.1153475 10 10 C10.75703138 15.62366168 10.79821607 20.34444075 8.3125 25.5 C3.92200587 30.24648014 0.76920534 32.81841276 -5.8125 33.25 C-10.53142223 33.16357285 -14.01442669 31.96410765 -17.4453125 28.5703125 C-21.5260579 23.88328492 -22.31382012 20.27303055 -22.20703125 14.2734375 C-21.76097618 9.37524785 -19.36802764 6.08371063 -16.0625 2.625 C-11.25719787 -1.26013789 -5.87220963 -0.94739404 0 0 Z " fill="#F6F9FB" transform="translate(185,16)"/>
<path d="M0 0 C3.76182798 1.88497644 6.3381274 4.52363426 8.21484375 8.28515625 C9.87811637 13.50268405 9.48639284 18.53203601 7.74609375 23.65625 C4.86753659 27.78218192 1.73746422 30.72162651 -3.12890625 32.34375 C-7.67825488 32.87234098 -11.18389834 32.7799075 -15.37890625 30.84375 C-20.55896784 26.1346031 -23.40098393 21.91812353 -23.75390625 14.78125 C-23.43072397 8.12369503 -20.76996006 4.75176965 -16.00390625 0.40625 C-10.85199156 -1.49771847 -5.27042489 -1.62464474 0 0 Z " fill="#F6F9FB" transform="translate(183.12890625,272.65625)"/>
<path d="M0 0 C2.21100509 4.33356999 1.43929651 7.42676401 0.5625 12.0625 C0.5625 13.0525 0.5625 14.0425 0.5625 15.0625 C1.2225 15.7225 1.8825 16.3825 2.5625 17.0625 C3.1953125 19.6640625 3.1953125 19.6640625 3.6875 22.6875 C3.93886719 24.19183594 3.93886719 24.19183594 4.1953125 25.7265625 C4.31648438 26.49742188 4.43765625 27.26828125 4.5625 28.0625 C1.5925 28.0625 -1.3775 28.0625 -4.4375 28.0625 C-7.4375 21.3125 -7.4375 21.3125 -7.4375 19.0625 C-10.0775 19.0625 -12.7175 19.0625 -15.4375 19.0625 C-15.1075 22.6925 -14.7775 26.3225 -14.4375 30.0625 C-17.91075181 31.2202506 -20.79817448 31.13116652 -24.4375 31.0625 C-26.36193806 20.38731528 -27.93158601 9.91348273 -28.4375 -0.9375 C-6.1769636 -3.4815613 -6.1769636 -3.4815613 0 0 Z " fill="#F5F8FB" transform="translate(156.4375,17.9375)"/>
<path d="M0 0 C20.33918129 1.0994152 20.33918129 1.0994152 26.0625 5.1875 C28.54417484 8.78993122 28.70222603 10.70861868 28 15 C26 17.4375 26 17.4375 24 19 C24.33 19.99 24.66 20.98 25 22 C25.068991 24.06145107 25.08467727 26.12501401 25.0625 28.1875 C25.05347656 29.27417969 25.04445312 30.36085938 25.03515625 31.48046875 C25.02355469 32.31191406 25.01195312 33.14335937 25 34 C22.03 34 19.06 34 16 34 C15.93941406 33.28972656 15.87882812 32.57945312 15.81640625 31.84765625 C15.69072266 30.46900391 15.69072266 30.46900391 15.5625 29.0625 C15.48128906 28.14597656 15.40007812 27.22945313 15.31640625 26.28515625 C15.23955024 24.03840268 15.23955024 24.03840268 14 23 C11.67182036 22.63239269 9.3381615 22.29758419 7 22 C6.67 25.3 6.34 28.6 6 32 C2.7 31.67 -0.6 31.34 -4 31 C-3.52186762 27.1457043 -3.04230822 23.29158741 -2.5625 19.4375 C-2.42779297 18.35146484 -2.29308594 17.26542969 -2.15429688 16.14648438 C-1.48262448 10.75672296 -0.79402633 5.3731685 0 0 Z " fill="#F8FAFC" transform="translate(129,271)"/>
<path d="M0 0 C4.22885399 1.42493993 7.10422086 3.50384966 10.5 6.375 C11.4178125 7.14585938 12.335625 7.91671875 13.28125 8.7109375 C14.1784375 9.46632813 15.075625 10.22171875 16 11 C17.66264845 12.33834065 19.32802749 13.67332616 21 15 C19.61410019 18.09162264 18.50816459 19.49183541 16 22 C12.04 19.03 8.08 16.06 4 13 C3.01 13.99 2.02 14.98 1 16 C1.70125 16.226875 2.4025 16.45375 3.125 16.6875 C6.69343613 18.31656867 9.06514511 20.40640731 12 23 C11.38722388 25.96175123 10.74627478 27.38058783 9 30 C5.89257577 28.53181332 3.09528261 26.79975 0.25 24.875 C-0.54921875 24.33617188 -1.3484375 23.79734375 -2.171875 23.2421875 C-2.77515625 22.83226563 -3.3784375 22.42234375 -4 22 C-3.65153006 24.88913263 -3.17867229 25.84598381 -0.93359375 27.78125 C0.73223576 28.92830006 2.39890509 30.07413142 4.06640625 31.21875 C4.70449219 31.8065625 5.34257812 32.394375 6 33 C6 37 6 37 4 39.25 C3.34 39.8275 2.68 40.405 2 41 C-0.96803432 38.7625725 -3.92258799 36.50799037 -6.875 34.25 C-7.71675781 33.61578125 -8.55851563 32.9815625 -9.42578125 32.328125 C-10.23144531 31.709375 -11.03710938 31.090625 -11.8671875 30.453125 C-12.61081543 29.88754883 -13.35444336 29.32197266 -14.12060547 28.73925781 C-16.06428047 26.94051259 -16.99091448 25.42738544 -18 23 C-15.75058063 20.10371523 -13.50036071 17.20805341 -11.25 14.3125 C-10.61578125 13.49587891 -9.9815625 12.67925781 -9.328125 11.83789062 C-6.24441824 7.87083037 -3.1544988 3.91125987 0 0 Z " fill="#F6F9FB" transform="translate(236,37)"/>
<path d="M0 0 C2.71372362 2.18605514 3.97125385 3.54459317 5.25 6.8125 C5.44266202 9.98009027 5.17385935 12.77288869 4.25 15.8125 C0.94384555 19.50761379 -3.21348405 21.03347414 -7.75 22.8125 C-6.265 27.2675 -6.265 27.2675 -4.75 31.8125 C-11.375 34.8125 -11.375 34.8125 -14.75 34.8125 C-20.195 20.9525 -20.195 20.9525 -25.75 6.8125 C-19.49600359 0.55850359 -8.50442424 -3.67236501 0 0 Z " fill="#F7F9FB" transform="translate(119.75,24.1875)"/>
<path d="M0 0 C4.13573846 0.58797246 6.78849465 2.83366819 10.0625 5.3125 C11.62677734 6.48232422 11.62677734 6.48232422 13.22265625 7.67578125 C18.8403039 12.37690692 18.8403039 12.37690692 19.21484375 16.18359375 C18.59534074 21.21814636 17.78478159 24.32990876 14 28 C10.7675418 29.6162291 7.49361293 29.59908525 4 29 C1.98052101 27.82263577 0.29915407 26.53536307 -1.45703125 24.99609375 C-1.96621094 24.66738281 -2.47539063 24.33867187 -3 24 C-6.73639216 25.24546405 -7.18756513 26.63404953 -9 30 C-12.97243168 28.67585611 -15.13488574 27.0120432 -18 24 C-15.75171391 20.93623843 -13.50106683 17.87421888 -11.25 14.8125 C-10.61578125 13.94818359 -9.9815625 13.08386719 -9.328125 12.19335938 C-6.29186278 8.06594042 -3.24976694 3.96373089 0 0 Z " fill="#F7F9FC" transform="translate(80,244)"/>
<path d="M0 0 C18.78629601 6.15518479 18.78629601 6.15518479 23 12 C23.75531361 17.19278107 22.77204924 20.58525491 20 25 C15.74087527 27.83941649 11.9984397 27.40297498 7 27 C3.375 26 3.375 26 1 25 C0.01 27.31 -0.98 29.62 -2 32 C-5.73487777 31.5020163 -7.81237635 31.12508244 -11 29 C-10.35952645 25.16022316 -9.22822779 21.84403286 -7.71484375 18.26171875 C-7.04291992 16.66166992 -7.04291992 16.66166992 -6.35742188 15.02929688 C-5.88884766 13.92650391 -5.42027344 12.82371094 -4.9375 11.6875 C-4.46505859 10.56537109 -3.99261719 9.44324219 -3.50585938 8.28710938 C-2.34138677 5.52295723 -1.17263728 2.760696 0 0 Z " fill="#F8FAFC" transform="translate(103,260)"/>
<path d="M0 0 C2.375 2.1875 2.375 2.1875 4 5 C3.69880957 9.82765234 1.18278553 13.66054815 -1.1875 17.75 C-1.59170166 18.45576172 -1.99590332 19.16152344 -2.41235352 19.88867188 C-9.29520362 31.80745346 -9.29520362 31.80745346 -12 35 C-14 35 -14 35 -16.6875 32.375 C-18.0390625 30.71484375 -18.0390625 30.71484375 -19 29 C-18.71325582 26.99279077 -18.38133299 24.9914056 -18 23 C-19.85164036 20.24743206 -19.85164036 20.24743206 -22 18 C-22 17.34 -22 16.68 -22 16 C-22.886875 16.28875 -23.77375 16.5775 -24.6875 16.875 C-28 17 -28 17 -29.51171875 15.73046875 C-30.75157093 14.21351494 -31.88310821 12.60963817 -33 11 C-31.48876911 7.97753822 -29.32752559 7.89324311 -26.171875 6.8359375 C-24.97949219 6.43632812 -23.78710938 6.03671875 -22.55859375 5.625 C-21.9332373 5.42003906 -21.30788086 5.21507812 -20.66357422 5.00390625 C-18.76810598 4.38095063 -16.87814187 3.7413284 -14.98828125 3.1015625 C-13.79074219 2.70453125 -12.59320313 2.3075 -11.359375 1.8984375 C-9.71146973 1.35195557 -9.71146973 1.35195557 -8.03027344 0.79443359 C-5.14681625 0.03849018 -2.95539858 -0.33528708 0 0 Z " fill="#F6F8FB" transform="translate(69,228)"/>
<path d="M0 0 C3.98145228 1.21279719 7.89470692 2.5967579 11.8125 4 C13.38547852 4.55300781 13.38547852 4.55300781 14.99023438 5.1171875 C22.64004121 7.8200206 22.64004121 7.8200206 25 9 C23.62299976 11.96584667 22.32335498 14.67664502 20 17 C19.030625 16.979375 18.06125 16.95875 17.0625 16.9375 C13.84597492 16.6755142 13.84597492 16.6755142 11.5625 19.125 C9.65940274 21.90234734 9.65940274 21.90234734 10.5625 24.9375 C11 28 11 28 9.96875 29.71484375 C8.71038611 31.20041223 7.35997645 32.60685339 6 34 C1.69885078 32.56628359 0.70660762 29.36229189 -1.3125 25.5625 C-2.10504594 24.09802354 -2.89931817 22.63448 -3.6953125 21.171875 C-4.08364258 20.45708984 -4.47197266 19.74230469 -4.87207031 19.00585938 C-6.7932806 15.58926549 -8.97981841 12.34202129 -11.19921875 9.11328125 C-12 7 -12 7 -11.21875 4.34765625 C-8.27984623 -1.31350133 -5.99836258 -1.37431088 0 0 Z " fill="#F8FAFC" transform="translate(57,66)"/>
<path d="M0 0 C2.97 0.99 5.94 1.98 9 3 C9.08699039 9.26330814 8.78749618 14.70003057 8 21 C12.95 14.565 12.95 14.565 18 8 C21.73069283 8.74613857 24.57404607 9.53173403 28 11 C26.49993609 14.44779086 24.49590738 16.82360533 21.9375 19.5625 C17.68327013 24.13767498 13.96507126 28.96079102 10.3359375 34.04296875 C8 36 8 36 4.4765625 35.92578125 C1.68637486 35.18277623 -0.5421069 34.47473586 -3 33 C-2.5166022 21.89457165 -1.67027792 10.99464496 0 0 Z " fill="#F6F8FB" transform="translate(202,21)"/>
<path d="M0 0 C9.9 0 19.8 0 30 0 C30 2.97 30 5.94 30 9 C23.07 9 16.14 9 9 9 C9 15.6 9 22.2 9 29 C2 30 2 30 0 29 C0 19.43 0 9.86 0 0 Z " fill="#3EA8F4" transform="translate(90,164)"/>
<path d="M0 0 C4.0743356 0.84881992 5.54405875 2.30225596 8 5.625 C8.625 8.625 8.625 8.625 8 11.625 C5.54405875 14.94774404 4.0743356 16.40118008 0 17.25 C-4.0743356 16.40118008 -5.54405875 14.94774404 -8 11.625 C-8.625 8.625 -8.625 8.625 -8 5.625 C-5.54405875 2.30225596 -4.0743356 0.84881992 0 0 Z " fill="#F0F4F9" transform="translate(285,117.375)"/>
<path d="M0 0 C4.14822958 0.8642145 5.60540961 2.14195943 8 5.625 C8.32575603 8.5118724 7.96988093 10.89277446 7 13.625 C4.79003464 16.2442182 3.42877241 16.55201746 0.0625 17.125 C-4.11411135 16.44310427 -5.50915752 14.99496335 -8 11.625 C-8.625 8.625 -8.625 8.625 -8 5.625 C-5.54405875 2.30225596 -4.0743356 0.84881992 0 0 Z " fill="#F2F6FA" transform="translate(282,194.375)"/>
<path d="M0 0 C4.0743356 0.84881992 5.54405875 2.30225596 8 5.625 C8.625 8.625 8.625 8.625 8 11.625 C5.9375 14.5625 5.9375 14.5625 3 16.625 C-1.3497442 16.7776226 -3.2257221 16.33971806 -6.4375 13.375 C-8.17712985 10.31325146 -8.77259539 9.05875729 -8 5.625 C-5.53235541 2.35899981 -4.04381805 0.84246209 0 0 Z " fill="#F4F7FA" transform="translate(289,156.375)"/>
<path d="M0 0 C2.5 1.625 2.5 1.625 4 4 C4.63656938 7.73984509 4.25584708 9.50962644 2.5 12.875 C-0.52710708 15.44804102 -2.20460187 15.74916772 -6.08984375 15.48046875 C-8 15 -8 15 -10.5625 12.9375 C-12.43625505 9.10852228 -12.12962701 7.06665724 -11 3 C-8.71931555 -1.15889517 -4.22419138 -0.75644473 0 0 Z " fill="#F7F9FB" transform="translate(38,118)"/>
<path d="M0 0 C3.5625 0.625 3.5625 0.625 6.5625 2.6875 C8.5625 5.625 8.5625 5.625 8.5625 9.25 C7.08318474 14.24268902 7.08318474 14.24268902 4.5625 15.625 C-2.26961679 16.38412409 -2.26961679 16.38412409 -5.9375 14 C-7.9049199 10.88491849 -8.0298739 9.25329011 -7.4375 5.625 C-5.35210259 1.78786876 -4.33645599 0.78844654 0 0 Z " fill="#F8FAFC" transform="translate(36.4375,194.375)"/>
<path d="M0 0 C2 1 2 1 3 3 C3.75471698 9.79245283 3.75471698 9.79245283 1.4375 13.5 C-1.97532932 15.60020266 -4.06688873 15.63210717 -8 15 C-10.96135546 12.41830549 -11.86756104 10.81118865 -12.5 6.9375 C-12 4 -12 4 -10.5 1.625 C-6.75900771 -0.80664499 -4.42573582 -0.49174842 0 0 Z " fill="#F9FBFC" transform="translate(34,157)"/>
<path d="M0 0 C3.4375 0.875 3.4375 0.875 5.4375 3.875 C5.7734375 6.25 5.7734375 6.25 5.8125 8.875 C5.84085938 9.74125 5.86921875 10.6075 5.8984375 11.5 C5.4375 13.875 5.4375 13.875 3.57421875 15.69140625 C1.4375 16.875 1.4375 16.875 -1.125 16.8125 C-4.25633158 15.6081417 -5.11403287 14.92440449 -6.5625 11.875 C-7.56834341 4.25539171 -7.56834341 4.25539171 -5.26171875 1.08984375 C-3.5625 -0.125 -3.5625 -0.125 0 0 Z " fill="#054D9B" transform="translate(176.5625,280.125)"/>
<path d="M0 0 C3.3125 0.875 3.3125 0.875 4.3125 1.875 C4.85949576 6.71725759 4.96622716 10.66439416 2.625 15 C0.3125 16.875 0.3125 16.875 -2.25 17.4375 C-4.6875 16.875 -4.6875 16.875 -6.5 15.375 C-8.17078816 11.85755124 -8.34452872 8.65291513 -7.6875 4.875 C-5.53209863 0.65041331 -4.81722384 -0.16329572 0 0 Z " fill="#054E9B" transform="translate(180.6875,24.125)"/>
<path d="M0 0 C3.1875 0.4375 3.1875 0.4375 6.0625 2.5625 C8.1875 5.4375 8.1875 5.4375 8.6875 8.5 C8.14998682 11.65788995 7.33728703 13.10856405 5.1875 15.4375 C1.94888697 13.99325365 -0.43219163 12.17977753 -3.0625 9.8125 C-3.76890625 9.18085938 -4.4753125 8.54921875 -5.203125 7.8984375 C-5.73421875 7.41632813 -6.2653125 6.93421875 -6.8125 6.4375 C-4.10642971 0.63877796 -4.10642971 0.63877796 0 0 Z " fill="#0A519D" transform="translate(257.8125,235.5625)"/>
<path d="M0 0 C1.96484375 1.2890625 1.96484375 1.2890625 4 3 C4.73394876 7.40369259 4.48144207 9.29972063 1.9375 13 C-1 15 -1 15 -4.625 15.0625 C-8 14 -8 14 -9.9375 12.0625 C-11 10 -11 10 -11 8 C-9.217871 6.55925285 -7.37339724 5.19489351 -5.5 3.875 C-4.4790625 3.15054688 -3.458125 2.42609375 -2.40625 1.6796875 C-1.6121875 1.12539062 -0.818125 0.57109375 0 0 Z " fill="#09509C" transform="translate(264,73)"/>
<path d="M0 0 C5.75 1.75 5.75 1.75 8 4 C7.625 6.125 7.625 6.125 7 8 C1.46153846 8.36923077 1.46153846 8.36923077 -0.875 6.5 C-1.24625 6.005 -1.6175 5.51 -2 5 C-1.34 3.35 -0.68 1.7 0 0 Z " fill="#175AA2" transform="translate(109,271)"/>
<path d="M0 0 C0.33 1.32 0.66 2.64 1 4 C-4.75 8 -4.75 8 -7 8 C-7.66 6.02 -8.32 4.04 -9 2 C-5.5647952 -0.29013653 -4.014669 -0.17842973 0 0 Z " fill="#175AA2" transform="translate(115,32)"/>
<path d="M0 0 C0.8353125 0.37125 0.8353125 0.37125 1.6875 0.75 C1.18918276 4.43754757 0.58682357 6.35490662 -2.3125 8.75 C-4.25 7.9375 -4.25 7.9375 -6.3125 6.75 C-6.6425 5.76 -6.9725 4.77 -7.3125 3.75 C-2.88173077 -0.31153846 -2.88173077 -0.31153846 0 0 Z " fill="#0F549F" transform="translate(84.3125,47.25)"/>
<path d="M0 0 C2.97 0 5.94 0 9 0 C9 1.65 9 3.3 9 5 C6.04335481 6.4783226 3.25770263 6.06032783 0 6 C0 4.02 0 2.04 0 0 Z " fill="#0F549F" transform="translate(139,24)"/>
<path d="M0 0 C2.91517292 1.07401108 4.77810176 1.77810176 7 4 C6.625 6.125 6.625 6.125 6 8 C3.75 8.25 3.75 8.25 1 8 C-1.3125 6 -1.3125 6 -3 4 C-2.01 2.68 -1.02 1.36 0 0 Z " fill="#0E549E" transform="translate(83,256)"/>
<path d="M0 0 C5.625 -0.25 5.625 -0.25 9 2 C8.67 3.32 8.34 4.64 8 6 C5.66705225 6.04241723 3.33297433 6.04092937 1 6 C0 5 0 5 -0.0625 2.4375 C-0.041875 1.633125 -0.02125 0.82875 0 0 Z " fill="#054E9B" transform="translate(138,280)"/>
<path d="M0 0 C-1.44253657 3.36591866 -3.33264727 5.51047079 -6 8 C-6.99 6.35 -7.98 4.7 -9 3 C-2.25 0 -2.25 0 0 0 Z " fill="#2766A8" transform="translate(62,238)"/>
<path d="M0 0 C2.97 0.99 5.94 1.98 9 3 C8.34 4.32 7.68 5.64 7 7 C6.01 7 5.02 7 4 7 C2.02 3.535 2.02 3.535 0 0 Z " fill="#2262A7" transform="translate(56,75)"/>
<path d="" fill="#2178C5" transform="translate(0,0)"/>
<path d="" fill="#2178C5" transform="translate(0,0)"/>
<path d="" fill="#2178C5" transform="translate(0,0)"/>
</svg>
