<?xml version="1.0" encoding="UTF-8"?>
<svg version="1.1" xmlns="http://www.w3.org/2000/svg" width="319" height="319">
<path d="M0 0 C1.2226355 0.00131424 1.2226355 0.00131424 2.4699707 0.00265503 C29.45231084 0.09811454 54.41879144 6.15427201 78.0625 19.375 C78.70944824 19.73352051 79.35639648 20.09204102 80.02294922 20.46142578 C88.73349019 25.33941495 96.56966054 30.73411605 104.0625 37.375 C105.54363281 38.674375 105.54363281 38.674375 107.0546875 40 C118.8928934 50.52389728 128.52290716 62.0585208 137.0625 75.375 C137.43648926 75.95620605 137.81047852 76.53741211 138.19580078 77.13623047 C153.78269185 101.7717182 160.51347888 130.4331863 160.4375 159.3125 C160.43662384 160.12759033 160.43574768 160.94268066 160.43484497 161.7824707 C160.33938546 188.76481084 154.28322799 213.73129144 141.0625 237.375 C140.70397949 238.02194824 140.34545898 238.66889648 139.97607422 239.33544922 C135.09808505 248.04599019 129.70338395 255.88216054 123.0625 263.375 C122.19625 264.36242187 121.33 265.34984375 120.4375 266.3671875 C108.74880921 279.51565566 95.53321161 290.85204433 80.0625 299.375 C79.4025 299.375 78.7425 299.375 78.0625 299.375 C77.7325 300.035 77.4025 300.695 77.0625 301.375 C52.5139543 313.8888396 27.71274039 319.7086269 0.25 319.8125 C-0.91252792 319.82189606 -0.91252792 319.82189606 -2.09854126 319.83148193 C-16.34132635 319.90426947 -30.0826591 318.09383342 -43.8125 314.1875 C-44.54460693 313.97955811 -45.27671387 313.77161621 -46.03100586 313.55737305 C-60.78754911 309.1812947 -74.22068899 302.5699578 -87.23730469 294.42333984 C-88.77183112 293.47715137 -90.34136569 292.58831936 -91.9140625 291.70703125 C-92.91566406 291.04767578 -92.91566406 291.04767578 -93.9375 290.375 C-93.9375 289.715 -93.9375 289.055 -93.9375 288.375 C-94.49179688 288.1275 -95.04609375 287.88 -95.6171875 287.625 C-107.38642703 281.28466894 -117.2810614 269.84809261 -125.34375 259.40625 C-126.92421637 257.30840353 -126.92421637 257.30840353 -128.9375 255.375 C-131.39565709 251.78741938 -133.65833762 248.07807914 -135.9375 244.375 C-136.58332031 243.33988281 -137.22914063 242.30476562 -137.89453125 241.23828125 C-152.24093701 217.32760498 -159.32979806 190.30339804 -159.25317383 162.52001953 C-159.25002224 160.14178169 -159.2735398 157.76480334 -159.29882812 155.38671875 C-159.35885207 141.09630959 -157.22340839 127.54125029 -153.1875 113.8125 C-152.93000977 112.93174805 -152.67251953 112.05099609 -152.40722656 111.14355469 C-141.31278289 74.39737209 -115.98295305 43.92511068 -83.9375 23.375 C-83.35629395 23.00101074 -82.77508789 22.62702148 -82.17626953 22.24169922 C-57.5407818 6.65480815 -28.8793137 -0.07597888 0 0 Z M-75.62890625 95.43359375 C-92.83457185 117.35553317 -101.71361535 143.79389593 -98.47265625 171.76171875 C-94.93386393 197.86770221 -81.76052481 222.03182913 -60.9375 238.375 C-38.0436783 255.13740151 -11.22649934 262.61038695 17 258.25 C41.82559027 253.97337832 65.3154172 240.1505473 80.26123047 219.73779297 C96.25119027 197.01453569 103.26888296 170.77092413 98.8125 143.1875 C95.92191156 126.93922472 89.21430525 108.19019015 77.0625 96.375 C76.4025 96.375 75.7425 96.375 75.0625 96.375 C74.95164063 95.77816406 74.84078125 95.18132812 74.7265625 94.56640625 C72.02150396 85.63971308 57.6656257 77.54754606 49.92382812 73.1640625 C7.32869943 50.80643839 -43.7872907 58.6771804 -75.62890625 95.43359375 Z " fill="#024B99" transform="translate(158.9375,-0.37499999999999994)"/>
<path d="M0 0 C5.94 0 11.88 0 18 0 C18.02505615 1.45817139 18.0501123 2.91634277 18.07592773 4.41870117 C18.17015456 9.83268911 18.27033806 15.24655333 18.37231445 20.66040039 C18.4156055 23.00281885 18.45728469 25.34526768 18.49731445 27.68774414 C18.55515813 31.05624541 18.61881219 34.42459464 18.68359375 37.79296875 C18.70030624 38.83897751 18.71701874 39.88498627 18.73423767 40.96269226 C18.75418289 41.94333145 18.77412811 42.92397064 18.79467773 43.93432617 C18.81799416 45.22339119 18.81799416 45.22339119 18.84178162 46.53849792 C19.00637917 49.09924472 19.44174063 51.49798318 20 54 C21.83700789 54.77242269 21.83700789 54.77242269 24 55 C26.25334571 53.3749843 26.92742668 52.42497786 27.39872742 49.66511536 C27.40983047 48.74800278 27.42093353 47.8308902 27.43237305 46.88598633 C27.45216721 45.84513382 27.47196136 44.80428131 27.49235535 43.73188782 C27.49874527 42.60993515 27.50513519 41.48798248 27.51171875 40.33203125 C27.52966995 39.18208176 27.54762115 38.03213226 27.56611633 36.84733582 C27.62036261 33.16909468 27.65416171 29.49098436 27.6875 25.8125 C27.72066034 23.32094528 27.75514878 20.82940785 27.79101562 18.33789062 C27.87609767 12.2253546 27.94284097 6.11285835 28 0 C33.94 0 39.88 0 46 0 C46.07445438 7.09836564 46.12874645 14.19650123 46.16479492 21.29516602 C46.17983145 23.7073157 46.20026599 26.11943828 46.22631836 28.53149414 C46.26292732 32.00934564 46.27977829 35.48683394 46.29296875 38.96484375 C46.30845261 40.03395493 46.32393646 41.1030661 46.33988953 42.20457458 C46.34159616 49.88976157 45.28052833 56.25341775 41.25 62.875 C36.02494334 67.80977574 30.37114798 68.48562671 23.5 68.375 C22.77941406 68.38660156 22.05882813 68.39820313 21.31640625 68.41015625 C14.76279519 68.37460321 10.09766368 66.82987683 5.0625 62.4375 C3 60 3 60 3 58 C2.34 57.67 1.68 57.34 1 57 C-0.1989165 50.52254029 -0.13055759 44.06922685 -0.09765625 37.5 C-0.0962413 36.42371338 -0.09482635 35.34742676 -0.09336853 34.23852539 C-0.0878038 30.82565445 -0.07525787 27.41285087 -0.0625 24 C-0.05748044 21.6757822 -0.05291833 19.35156337 -0.04882812 17.02734375 C-0.03784593 11.35153683 -0.02060577 5.67577981 0 0 Z " fill="#D73644" transform="translate(86,126)"/>
<path d="M0 0 C7.59 0 15.18 0 23 0 C25.08859901 8.43980085 27.17524339 16.88007828 29.25842285 25.32121849 C30.22573957 29.24049265 31.19392119 33.15954897 32.1640625 37.078125 C33.09976304 40.85772363 34.03321372 44.63787129 34.96508789 48.41841507 C35.32152753 49.8627475 35.67878598 51.3068781 36.03686523 52.7508049 C36.53714394 54.76873051 37.03454172 56.7873454 37.53125 58.80615234 C37.81548828 59.95642914 38.09972656 61.10670593 38.39257812 62.2918396 C39 65 39 65 39 67 C32.4 67 25.8 67 19 67 C18.505 61.06 18.505 61.06 18 55 C13.71 55 9.42 55 5 55 C4.855625 56.60875 4.71125 58.2175 4.5625 59.875 C4.125 64.75 4.125 64.75 3 67 C-3.27 67 -9.54 67 -16 67 C-14.19114114 56.01764262 -11.4344527 45.29480844 -8.73535156 34.50561523 C-8.11914908 32.03724481 -7.50854016 29.56754021 -6.8984375 27.09765625 C-6.7078476 26.34347916 -6.51725769 25.58930206 -6.32089233 24.81227112 C-5.48072355 21.40306381 -5 18.53670187 -5 15 C-4.34 15 -3.68 15 -3 15 C-2.95101562 14.41992188 -2.90203125 13.83984375 -2.8515625 13.2421875 C-2.77679688 12.46101562 -2.70203125 11.67984375 -2.625 10.875 C-2.52058594 9.72644531 -2.52058594 9.72644531 -2.4140625 8.5546875 C-2 6 -2 6 0 0 Z M11 18 C10.32882733 21.43663614 9.66383929 24.87444041 9 28.3125 C8.80921875 29.28896484 8.6184375 30.26542969 8.421875 31.27148438 C8.24140625 32.20927734 8.0609375 33.14707031 7.875 34.11328125 C7.70742187 34.97735596 7.53984375 35.84143066 7.3671875 36.73168945 C6.92010153 39.11060196 6.92010153 39.11060196 7 42 C9.97 42 12.94 42 16 42 C14.68 34.08 13.36 26.16 12 18 C11.67 18 11.34 18 11 18 Z " fill="#D63644" transform="translate(194,126)"/>
<path d="M0 0 C4.16978206 2.96696031 6.62620675 5.44112025 8.25 10.3125 C8.37979439 13.31853796 8.29363173 16.30191031 8.25 19.3125 C2.64 19.3125 -2.97 19.3125 -8.75 19.3125 C-9.08 16.6725 -9.41 14.0325 -9.75 11.3125 C-13.56813447 11.58790704 -13.56813447 11.58790704 -16.75 13.3125 C-16.94115231 16.73173723 -16.94115231 16.73173723 -15.75 20.3125 C-13.14092836 22.03344242 -11.02756518 23.15082785 -8.1875 24.3125 C5.91309201 30.70100156 5.91309201 30.70100156 9.421875 37.625 C11.39662659 44.03362781 11.41148133 51.73873253 8.5625 57.875 C5.31125543 63.29374095 1.2655364 65.67693941 -4.75 67.3125 C-7.71322466 67.63608272 -10.6460125 67.68252673 -13.625 67.6875 C-14.38941406 67.71199219 -15.15382812 67.73648438 -15.94140625 67.76171875 C-21.65649409 67.79082786 -25.98175616 66.5104143 -30.75 63.3125 C-36.34381415 57.28839245 -35.84323149 53.33040831 -35.75 45.3125 C-30.14 45.3125 -24.53 45.3125 -18.75 45.3125 C-18.09 47.9525 -17.43 50.5925 -16.75 53.3125 C-14.35280568 53.99208603 -14.35280568 53.99208603 -11.75 54.3125 C-9.41699497 52.37672625 -9.41699497 52.37672625 -9.25 48.9375 C-9.34323438 45.14605732 -9.34323438 45.14605732 -12.3359375 43.30078125 C-16.35529212 40.95999006 -20.47620421 38.95725925 -24.71484375 37.04492188 C-30.28032444 34.39555906 -32.9742065 31.45516777 -35.0625 25.6875 C-36.48386255 18.83911679 -36.05709995 11.91679771 -32.5 5.8125 C-25.96658465 -3.394532 -9.81291172 -4.6090949 0 0 Z " fill="#D63644" transform="translate(169.75,126.6875)"/>
<path d="M0 0 C-1.36983503 3.16115776 -1.9890638 3.9927092 -5 6 C-5.70125 6.165 -6.4025 6.33 -7.125 6.5 C-7.74375 6.665 -8.3625 6.83 -9 7 C-9.33 7.66 -9.66 8.32 -10 9 C-9.50371094 8.71125 -9.00742188 8.4225 -8.49609375 8.125 C-3.86760503 5.59557922 -0.4008824 4.16909502 5 5 C7.5 6.5625 7.5 6.5625 9 9 C9.28928908 12.83308034 8.78421554 15.00931225 6.3828125 18.04296875 C1.45041983 22.85061219 1.45041983 22.85061219 -2.0859375 23.21484375 C-4 22.9375 -4 22.9375 -7 22 C-7 19 -7 19 -5.8125 17.3125 C-3.44258278 15.59635305 -1.85974334 15.76812892 1 16 C1.66 14.68 2.32 13.36 3 12 C-1.09012996 13.25203775 -1.09012996 13.25203775 -4.875 15.1875 C-7.32784381 16.12535204 -8.49933323 15.89684731 -11.0625 15.5 C-15.0457203 14.55735474 -15.0457203 14.55735474 -18 17 C-16.60605967 21.46060905 -14.11795013 24.63232556 -11.2421875 28.23046875 C-10 30 -10 30 -10 32 C-11.98 32.99 -13.96 33.98 -16 35 C-18.97 31.04 -21.94 27.08 -25 23 C-26.98 23.99 -26.98 23.99 -29 25 C-28.43179555 29.40358445 -26.71585505 33.03938166 -24.83984375 37.01171875 C-24 39 -24 39 -24 41 C-26.26531795 42.4263113 -27.61089 43.02103297 -30.3125 42.875 C-33.89104765 41.70989146 -36.78396581 39.95484431 -40 38 C-39.01 40.97 -38.02 43.94 -37 47 C-38.98 47.99 -40.96 48.98 -43 50 C-45.31 45.38 -47.62 40.76 -50 36 C-55.94 36.495 -55.94 36.495 -62 37 C-62 37.99 -62 38.98 -62 40 C-58.37 39.34 -54.74 38.68 -51 38 C-50.67 39.65 -50.34 41.3 -50 43 C-53.3 43.66 -56.6 44.32 -60 45 C-59.67 46.32 -59.34 47.64 -59 49 C-58.38511719 48.7834375 -57.77023438 48.566875 -57.13671875 48.34375 C-56.32847656 48.0653125 -55.52023438 47.786875 -54.6875 47.5 C-53.88699219 47.2215625 -53.08648437 46.943125 -52.26171875 46.65625 C-50 46 -50 46 -47 46 C-46.67 47.65 -46.34 49.3 -46 51 C-48.20391682 51.73463894 -50.40798223 52.46873509 -52.61328125 53.19921875 C-54.52080736 53.83922342 -56.41849755 54.50851799 -58.3125 55.1875 C-61 56 -61 56 -65 56 C-65.84179395 53.27318889 -66.67363069 50.54398557 -67.5 47.8125 C-67.73847656 47.04357422 -67.97695312 46.27464844 -68.22265625 45.48242188 C-68.56103516 44.35610352 -68.56103516 44.35610352 -68.90625 43.20703125 C-69.11572266 42.5210083 -69.32519531 41.83498535 -69.54101562 41.12817383 C-70.06375536 38.70438537 -70.07554763 36.47229619 -70 34 C-66.77198351 33.01701402 -63.54239567 32.03929198 -60.3125 31.0625 C-58.94448242 30.64581055 -58.94448242 30.64581055 -57.54882812 30.22070312 C-56.66259766 29.95322266 -55.77636719 29.68574219 -54.86328125 29.41015625 C-54.05157471 29.16402588 -53.23986816 28.91789551 -52.40356445 28.66430664 C-45.52289227 26.76259928 -45.52289227 26.76259928 -42.32421875 28.21484375 C-41.45410156 28.78332031 -40.58398438 29.35179687 -39.6875 29.9375 C-38.80449219 30.50339844 -37.92148438 31.06929688 -37.01171875 31.65234375 C-36.34785156 32.09707031 -35.68398437 32.54179687 -35 33 C-35.30035156 32.45730469 -35.60070312 31.91460937 -35.91015625 31.35546875 C-36.29042969 30.64003906 -36.67070312 29.92460937 -37.0625 29.1875 C-37.44535156 28.47980469 -37.82820313 27.77210938 -38.22265625 27.04296875 C-39 25 -39 25 -38 22 C-35.55859375 20.38671875 -35.55859375 20.38671875 -32.4375 18.6875 C-27.82709647 16.1047948 -23.63074082 13.38517665 -19.5234375 10.06640625 C-18 9 -18 9 -16 9 C-15.401875 8.0925 -14.80375 7.185 -14.1875 6.25 C-10.00657367 0.03833803 -7.4717486 -1.75805849 0 0 Z " fill="#F4F5F9" transform="translate(253,242)"/>
<path d="M0 0 C1.24265625 0.15726562 2.4853125 0.31453125 3.765625 0.4765625 C7.4267437 0.8851055 11.05224504 1.10612134 14.734375 1.2109375 C15.72050781 1.23929687 16.70664063 1.26765625 17.72265625 1.296875 C19.75631511 1.34935652 21.79020463 1.39350428 23.82421875 1.4296875 C33.32612292 1.72935333 33.32612292 1.72935333 37 5 C39.72804915 9.03025992 39.54516113 13.30322717 39 18 C37.78301616 20.85991202 36.9073028 22.38585872 34.34375 24.12109375 C29.28137219 26.01948543 23.29751255 25.09810208 18 25 C18 19.06 18 13.12 18 7 C15.03 7 12.06 7 9 7 C8.01 6.67 7.02 6.34 6 6 C6 6.99 6 7.98 6 9 C9.3 9.33 12.6 9.66 16 10 C16 11.65 16 13.3 16 15 C14.741875 15.020625 13.48375 15.04125 12.1875 15.0625 C11.47980469 15.07410156 10.77210938 15.08570313 10.04296875 15.09765625 C8 15 8 15 5 14 C5 15.32 5 16.64 5 18 C8.63 18.33 12.26 18.66 16 19 C16 20.98 16 22.96 16 25 C9.63440427 24.50873071 3.30735307 24.00344253 -3 23 C-2.48351265 15.21191437 -1.55123466 7.65074958 0 0 Z " fill="#F5F6F9" transform="translate(134,276)"/>
<path d="M0 0 C1.32 0.33 2.64 0.66 4 1 C3.32902328 5.19360449 1.1441606 8.40334352 -1 12 C2.99996286 10.66667905 3.83782337 8.5042173 6 5 C7.32 5.33 8.64 5.66 10 6 C9.29445932 9.66881155 7.72264494 12.70450534 6 16 C6.99 16 7.98 16 9 16 C10.46090788 14.4645122 10.46090788 14.4645122 11.6875 12.5 C12.12449219 11.8503125 12.56148437 11.200625 13.01171875 10.53125 C13.33785156 10.0259375 13.66398437 9.520625 14 9 C16.475 9.99 16.475 9.99 19 11 C17.33719424 13.61298048 15.67114908 16.22268042 13.984375 18.8203125 C11.97372466 21.95503023 11.97372466 21.95503023 10.328125 25.1796875 C8.72865204 28.11205459 7.31338109 30.58603712 5 33 C1.49065214 33.90563816 -1.46704394 33.70374779 -5 33 C-2.8092961 35.29113732 -0.90542812 36.6975667 2 38 C1.34 39.98 0.68 41.96 0 44 C-4.71370756 43.35014905 -8.57686444 41.48438608 -12.8125 39.4375 C-13.50537109 39.10814453 -14.19824219 38.77878906 -14.91210938 38.43945312 C-16.61044948 37.63127749 -18.30555769 36.81631623 -20 36 C-19.42040635 32.35499996 -18.44335483 29.5819167 -16.625 26.375 C-16.20476563 25.61960937 -15.78453125 24.86421875 -15.3515625 24.0859375 C-14.03899097 22.06017682 -12.88928617 20.50273146 -11 19 C-7.35265021 19.22330713 -5.61627165 19.38372835 -3 22 C-2.375 24.125 -2.375 24.125 -2 26 C-0.02 25.34 1.96 24.68 4 24 C-0.29 21.03 -4.58 18.06 -9 15 C-7.93913813 10.7565525 -6.53401667 8.71202222 -3.9375 5.25 C-3.20402344 4.26515625 -2.47054687 3.2803125 -1.71484375 2.265625 C-1.14894531 1.51796875 -0.58304688 0.7703125 0 0 Z " fill="#F1F4F8" transform="translate(49,73)"/>
<path d="M0 0 C1.98 0 3.96 0 6 0 C6.33719047 2.56204544 6.66987153 5.12454318 7 7.6875 C7.09539062 8.40873047 7.19078125 9.12996094 7.2890625 9.87304688 C7.76683735 13.60992871 8.11919794 17.22291531 8 21 C4.9375 21.5 4.9375 21.5 1 21 C-1.71294856 18.61176729 -3.86481726 15.90748288 -6 13 C-6 16.3 -6 19.6 -6 23 C-10.29 23.66 -14.58 24.32 -19 25 C-19.33 24.34 -19.66 23.68 -20 23 C-22.31 23.33 -24.62 23.66 -27 24 C-27 25.32 -27 26.64 -27 28 C-29.31 28.33 -31.62 28.66 -34 29 C-34.12152487 21.26291674 -33.84800767 13.692641 -33 6 C-28.25873094 4.24397442 -28.25873094 4.24397442 -25 5 C-20.71707442 8.98797518 -16.63066411 13.73867177 -14 19 C-13.90592642 13.82595311 -14.16659759 8.91201979 -14.87890625 3.78515625 C-14.91886719 3.19605469 -14.95882812 2.60695313 -15 2 C-14 1 -14 1 -11.375 0.4375 C-6.18701018 1.30216497 -4.05864225 4.94594163 -1 9 C-0.67 6.03 -0.34 3.06 0 0 Z " fill="#F4F6F9" transform="translate(148,21)"/>
<path d="M0 0 C5.61 0 11.22 0 17 0 C17 12.87 17 25.74 17 39 C11.39 39 5.78 39 0 39 C0 26.13 0 13.26 0 0 Z " fill="#D73644" transform="translate(151,202)"/>
<path d="M0 0 C5.61 0 11.22 0 17 0 C17 12.87 17 25.74 17 39 C11.39 39 5.78 39 0 39 C0 26.13 0 13.26 0 0 Z " fill="#D73644" transform="translate(151,78)"/>
<path d="M0 0 C5.28 0 10.56 0 16 0 C16 9.57 16 19.14 16 29 C6 34 6 34 0 35 C0 23.45 0 11.9 0 0 Z " fill="#D73644" transform="translate(183,202)"/>
<path d="M0 0 C5.28 0 10.56 0 16 0 C16 11.55 16 23.1 16 35 C7 33 7 33 0 29 C0 19.43 0 9.86 0 0 Z " fill="#D73644" transform="translate(120,202)"/>
<path d="M0 0 C0 11.55 0 23.1 0 35 C-5.28 35 -10.56 35 -16 35 C-16 25.43 -16 15.86 -16 6 C-4 0 -4 0 0 0 Z " fill="#D73644" transform="translate(136,82)"/>
<path d="M0 0 C9 2 9 2 16 6 C16 15.57 16 25.14 16 35 C10.72 35 5.44 35 0 35 C0 23.45 0 11.9 0 0 Z " fill="#D73644" transform="translate(183,82)"/>
<path d="M0 0 C4.06321581 1.56277531 7.01688254 3.03376507 9 7 C9.5775294 12.1977646 8.88196356 15.62736563 6 20 C3.6449865 22.14721819 2.03894686 22.93766319 -1.1484375 23.12890625 C-5.49739563 22.89050821 -7.54470577 22.36992656 -11 19.5625 C-14.22927032 15.4249974 -14.13529017 13.32503543 -13.515625 8.26171875 C-12.79061335 5.08155399 -11.31565187 3.2454806 -9 1 C-5.92805092 -0.53597454 -3.39755707 -0.2265038 0 0 Z " fill="#F2F4F8" transform="translate(37,114)"/>
<path d="M0 0 C2.9719385 1.12451727 5.33440687 2.22293791 8 4 C7.7834375 4.62648438 7.566875 5.25296875 7.34375 5.8984375 C7.0653125 6.71570312 6.786875 7.53296875 6.5 8.375 C6.2215625 9.18710937 5.943125 9.99921875 5.65625 10.8359375 C4.90326695 12.94209242 4.90326695 12.94209242 5 15 C7.31 13.02 9.62 11.04 12 9 C15.56311466 10.78155733 17.35645475 12.16763009 20 15 C18.23454414 17.29599183 16.46299049 19.58678905 14.6875 21.875 C14.18798828 22.52597656 13.68847656 23.17695312 13.17382812 23.84765625 C12.68720703 24.47285156 12.20058594 25.09804687 11.69921875 25.7421875 C11.03152466 26.60626221 11.03152466 26.60626221 10.3503418 27.48779297 C9 29 9 29 6 31 C5.01 30.34 4.02 29.68 3 29 C4.4859916 24.40693504 6.85014682 21.56430755 10 18 C9.20335937 18.63228516 9.20335937 18.63228516 8.390625 19.27734375 C7.33101562 20.09912109 7.33101562 20.09912109 6.25 20.9375 C5.55390625 21.48277344 4.8578125 22.02804688 4.140625 22.58984375 C1.98722971 24.00841254 0.56153258 24.75530075 -2 25 C-2.99 24.34 -3.98 23.68 -5 23 C-3.58192622 18.52761347 -1.88695626 14.28853694 0 10 C-2.31 12.97 -4.62 15.94 -7 19 C-8.32 18.67 -9.64 18.34 -11 18 C-11 13.88205403 -10.98140052 13.47717337 -8.59375 10.546875 C-8.09746094 9.928125 -7.60117188 9.309375 -7.08984375 8.671875 C-6.56519531 8.03765625 -6.04054687 7.4034375 -5.5 6.75 C-4.71302734 5.77546875 -4.71302734 5.77546875 -3.91015625 4.78125 C-2.61541043 3.18047335 -1.30882422 1.58928656 0 0 Z " fill="#F4F6F9" transform="translate(235,43)"/>
<path d="M0 0 C4.60353655 0.09637033 7.20178509 1.34603606 10.75 4.375 C13.25304378 8.12956567 13.20280074 9.92245934 12.75 14.375 C10.72333762 18.07890021 9.26955484 20.02863011 5.75 22.375 C1.97311096 23.05843706 -1.72186889 23.22607095 -5.13671875 21.32421875 C-7.29241292 19.55477487 -8.9958328 17.8833344 -10.25 15.375 C-10.7999739 9.65527145 -9.79794766 6.86211028 -6.25 2.375 C-3.87839852 0.00339852 -3.24378878 0.05516648 0 0 Z " fill="#F4F6F9" transform="translate(216.25,33.625)"/>
<path d="M0 0 C10.90349581 1.79960611 10.90349581 1.79960611 15 5 C17.51958669 8.77938003 17.08152385 10.45116669 16.4765625 14.77734375 C15.68338426 18.47667506 14.41491163 21.05567982 11.23828125 23.17578125 C8.32590679 24.24822629 6.52461369 23.86489399 3.5 23.25 C2.5615625 23.06953125 1.623125 22.8890625 0.65625 22.703125 C-1.79739715 22.05363017 -3.79016693 21.23000142 -6 20 C-4.38808348 13.14078075 -2.64031672 6.53792711 0 0 Z " fill="#F3F5F9" transform="translate(190,24)"/>
<path d="M0 0 C13.22555012 3.31815403 13.22555012 3.31815403 17 6 C18.125 8.9375 18.125 8.9375 18 12 C16.15858081 14.34939689 14.6600106 15.6699947 12 17 C12.33 17.70125 12.66 18.4025 13 19.125 C14.09044562 22.26003116 14.15322643 24.70563182 14 28 C8.53486542 26.67779002 8.53486542 26.67779002 6 25 C5.0040446 22.61743428 4.64159213 20.52148481 4.3515625 17.9609375 C4.23554687 17.31382812 4.11953125 16.66671875 4 16 C3.34 15.67 2.68 15.34 2 15 C1.855625 15.94875 1.71125 16.8975 1.5625 17.875 C1 21 1 21 0 23 C-1.98 22.67 -3.96 22.34 -6 22 C-7.11414246 18.65757263 -6.91364716 18.00302577 -5.8203125 14.8046875 C-5.55089844 14.00675781 -5.28148438 13.20882813 -5.00390625 12.38671875 C-4.71386719 11.55785156 -4.42382812 10.72898437 -4.125 9.875 C-3.84269531 9.03839844 -3.56039062 8.20179688 -3.26953125 7.33984375 C-1.1541718 1.1541718 -1.1541718 1.1541718 0 0 Z " fill="#F0F2F7" transform="translate(114,270)"/>
<path d="M0 0 C13.11226844 0.49017826 13.11226844 0.49017826 16.91796875 2.67578125 C19.52885592 5.59037387 19.67383377 7.064982 19.625 10.9375 C19.63789063 11.95714844 19.65078125 12.97679687 19.6640625 14.02734375 C18.75400291 18.10119872 17.36390524 19.55838401 14 22 C11.11628549 22.37353815 9.01710038 22.48712853 6.1875 22.3125 C3.815625 22.209375 1.44375 22.10625 -1 22 C-0.67 14.74 -0.34 7.48 0 0 Z " fill="#F9FAFB" transform="translate(158,20)"/>
<path d="M0 0 C4.875 1.875 4.875 1.875 6 3 C6.07258946 5.18639453 6.08373783 7.37500389 6.0625 9.5625 C6.05347656 10.76003906 6.04445313 11.95757812 6.03515625 13.19140625 C6.02355469 14.11824219 6.01195313 15.04507812 6 16 C7.65 13.69 9.3 11.38 11 9 C15 10 15 10 16.25 12.0625 C16.4975 12.701875 16.745 13.34125 17 14 C15.2308289 16.10558394 13.4597399 18.20950158 11.6875 20.3125 C11.18798828 20.90740234 10.68847656 21.50230469 10.17382812 22.11523438 C9.68720703 22.69208984 9.20058594 23.26894531 8.69921875 23.86328125 C8.03152466 24.65665894 8.03152466 24.65665894 7.3503418 25.46606445 C5.96013395 27.04528627 4.50273504 28.52812987 3 30 C1.046875 28.91796875 1.046875 28.91796875 -1 27 C-1.609375 23.86328125 -1.609375 23.86328125 -1.75 20.3125 C-1.80671875 19.13300781 -1.8634375 17.95351563 -1.921875 16.73828125 C-1.96054688 15.38283203 -1.96054688 15.38283203 -2 14 C-3.65 15.98 -5.3 17.96 -7 20 C-8.875 19.6875 -8.875 19.6875 -11 19 C-11.66 18.01 -12.32 17.02 -13 16 C-8.71748905 10.62295151 -4.42797123 5.25821584 0 0 Z " fill="#F5F6F9" transform="translate(77,247)"/>
<path d="M0 0 C3.84732824 3.59083969 3.84732824 3.59083969 4.78125 6.09375 C5.87272765 8.28919996 5.87272765 8.28919996 8.6015625 8.609375 C10.09816406 8.67898437 10.09816406 8.67898437 11.625 8.75 C13.12933594 8.83507812 13.12933594 8.83507812 14.6640625 8.921875 C15.43492188 8.94765625 16.20578125 8.9734375 17 9 C15.80482157 11.59586265 14.96228144 13.03448554 12.8125 15 C12.214375 15.66 11.61625 16.32 11 17 C11.12177688 18.91466367 11.12177688 18.91466367 12 21 C12.3496418 23.33094534 12.68554487 25.66404762 13 28 C12.46890625 27.77183594 11.9378125 27.54367188 11.390625 27.30859375 C10.33101562 26.87740234 10.33101562 26.87740234 9.25 26.4375 C8.55390625 26.14746094 7.8578125 25.85742188 7.140625 25.55859375 C4.6377207 24.90546361 3.40206499 25.09057622 1 26 C-0.678298 27.31866272 -2.34614767 28.65080468 -4 30 C-4.66 30 -5.32 30 -6 30 C-5.91878906 29.26394531 -5.83757813 28.52789062 -5.75390625 27.76953125 C-5.55607719 24.71327412 -5.49300085 22.02495293 -6 19 C-7.68595902 17.08164062 -9.21847656 16.08552324 -11.46875 14.90234375 C-11.9740625 14.60457031 -12.479375 14.30679688 -13 14 C-13 13.34 -13 12.68 -13 12 C-9.7 11.34 -6.4 10.68 -3 10 C-2.01 6.7 -1.02 3.4 0 0 Z " fill="#EFF3F8" transform="translate(29,166)"/>
<path d="M0 0 C0.33 0 0.66 0 1 0 C1.99 3.3 2.98 6.6 4 10 C7.3 10.66 10.6 11.32 14 12 C14 12.66 14 13.32 14 14 C8.58823529 18 8.58823529 18 6 18 C6 21.96 6 25.92 6 30 C5.0925 29.360625 4.185 28.72125 3.25 28.0625 C-0.19789602 25.8672437 -0.19789602 25.8672437 -4 25 C-6.16878904 25.51294382 -6.16878904 25.51294382 -8.25 26.4375 C-8.95640625 26.72496094 -9.6628125 27.01242188 -10.390625 27.30859375 C-11.18726563 27.65083984 -11.18726563 27.65083984 -12 28 C-11.09333784 21.2647954 -11.09333784 21.2647954 -10.28125 18.9609375 C-9.75475827 16.92913308 -9.75475827 16.92913308 -11.21484375 15.3671875 C-11.78332031 14.87476563 -12.35179687 14.38234375 -12.9375 13.875 C-13.98901394 12.95043421 -15.01707166 11.99717368 -16 11 C-16 10.34 -16 9.68 -16 9 C-14.89591797 9.0309375 -14.89591797 9.0309375 -13.76953125 9.0625 C-7.91936101 9.11098632 -7.91936101 9.11098632 -3.19140625 6.15234375 C-1.99686179 4.14253156 -0.99206801 2.11416435 0 0 Z " fill="#EFF4F9" transform="translate(290,165)"/>
<path d="M0 0 C1.85431641 0.23009766 1.85431641 0.23009766 3.74609375 0.46484375 C9.50807865 1.10506429 15.27170967 1.33963678 21.0625 1.5625 C22.64708008 1.62727539 22.64708008 1.62727539 24.26367188 1.69335938 C26.84234879 1.79837337 29.42110435 1.90052877 32 2 C32 2.33 32 2.66 32 3 C27.71 3 23.42 3 19 3 C19 10.26 19 17.52 19 25 C18.67 25 18.34 25 18 25 C18 19.06 18 13.12 18 7 C15.03 7 12.06 7 9 7 C8.01 6.67 7.02 6.34 6 6 C6 6.99 6 7.98 6 9 C9.3 9.33 12.6 9.66 16 10 C16 11.65 16 13.3 16 15 C14.741875 15.020625 13.48375 15.04125 12.1875 15.0625 C11.47980469 15.07410156 10.77210938 15.08570313 10.04296875 15.09765625 C8 15 8 15 5 14 C5 15.32 5 16.64 5 18 C8.63 18.33 12.26 18.66 16 19 C16 20.98 16 22.96 16 25 C9.63440427 24.50873071 3.30735307 24.00344253 -3 23 C-2.48351265 15.21191437 -1.55123466 7.65074958 0 0 Z " fill="#E3E8F1" transform="translate(134,276)"/>
<path d="M0 0 C0.9075 0.61875 1.815 1.2375 2.75 1.875 C7.19400657 5.19690752 7.19400657 5.19690752 12.359375 5.5390625 C13.14828125 5.23742187 13.9371875 4.93578125 14.75 4.625 C15.54921875 4.32851562 16.3484375 4.03203125 17.171875 3.7265625 C17.77515625 3.48679688 18.3784375 3.24703125 19 3 C18.690625 3.680625 18.38125 4.36125 18.0625 5.0625 C16.796993 8.56125465 16.06451294 11.25824932 16 15 C17.40702844 17.67335404 19.04215208 19.66013298 21 22 C20.26394531 21.91878906 19.52789062 21.83757812 18.76953125 21.75390625 C15.71327412 21.55607719 13.02495293 21.49300085 10 22 C8.08164062 23.68595902 7.08552324 25.21847656 5.90234375 27.46875 C5.60457031 27.9740625 5.30679688 28.479375 5 29 C4.34 29 3.68 29 3 29 C2.34 26.03 1.68 23.06 1 20 C-2.3 19.01 -5.6 18.02 -9 17 C-9 16.34 -9 15.68 -9 15 C-8.43410156 14.83886719 -7.86820313 14.67773438 -7.28515625 14.51171875 C-4.77543027 13.58104708 -3.02123407 12.77338718 -1 11 C0.0217367 7.32068907 0.1049094 3.80296566 0 0 Z " fill="#F5F7FB" transform="translate(39,206)"/>
<path d="M0 0 C0.33 0 0.66 0 1 0 C0.99097656 0.74765625 0.98195313 1.4953125 0.97265625 2.265625 C0.9152397 7.9514369 0.9152397 7.9514369 3.625 12.62109375 C5.75540342 13.85172714 5.75540342 13.85172714 9 15 C9 15.66 9 16.32 9 17 C8.37351562 17.11214844 7.74703125 17.22429687 7.1015625 17.33984375 C4.45397093 17.97877358 2.34947367 18.60835563 0 20 C-1.39354369 22.94366533 -1.78991116 25.76734274 -2 29 C-2.99 28.67 -3.98 28.34 -5 28 C-5.7425 26.4840625 -5.7425 26.4840625 -6.5 24.9375 C-8.65893825 21.74612352 -8.65893825 21.74612352 -11.703125 21.60546875 C-14.49016887 21.62333442 -17.22544316 21.74167919 -20 22 C-19.154375 20.989375 -18.30875 19.97875 -17.4375 18.9375 C-15.30532553 15.95606959 -14.99611657 15.22523882 -15.0625 11.375 C-15.87116319 8.46381251 -16.85340828 5.78797821 -18 3 C-17.28714844 3.28617188 -16.57429688 3.57234375 -15.83984375 3.8671875 C-12.82787134 4.91306756 -10.17989771 5.70548598 -7 6 C-4.03343804 4.50386563 -2.16740926 2.47411812 0 0 Z " fill="#F6F9FB" transform="translate(281,206)"/>
<path d="M0 0 C1.99033574 2.59392441 3.54251945 5.49025182 5.1875 8.3125 C5.66380859 9.09818359 6.14011719 9.88386719 6.63085938 10.69335938 C7.07623047 11.45068359 7.52160156 12.20800781 7.98046875 12.98828125 C8.59764771 14.03302612 8.59764771 14.03302612 9.22729492 15.09887695 C10 17 10 17 9 20 C2.41864408 21.68034619 -0.9901567 20.05115122 -7 17 C-5.35 19.97 -3.7 22.94 -2 26 C-3.98 26.99 -5.96 27.98 -8 29 C-9.73455685 26.26573198 -11.43272787 23.51060308 -13.125 20.75 C-13.61871094 19.97269531 -14.11242187 19.19539063 -14.62109375 18.39453125 C-15.07871094 17.64042969 -15.53632812 16.88632812 -16.0078125 16.109375 C-16.43723145 15.41811523 -16.86665039 14.72685547 -17.30908203 14.01464844 C-18 12 -18 12 -17.23681641 9.79956055 C-16 8 -16 8 -14.203125 7.09765625 C-11.16182408 6.96284681 -9.41162201 8.00162497 -6.75 9.4375 C-5.41195312 10.14712891 -5.41195312 10.14712891 -4.046875 10.87109375 C-3.37140625 11.24363281 -2.6959375 11.61617187 -2 12 C-2.70125 10.9275 -3.4025 9.855 -4.125 8.75 C-6.08819603 5.33514493 -6.08819603 5.33514493 -5.375 2.625 C-3.65020306 0.58660362 -2.68288453 0 0 0 Z " fill="#F4F6F9" transform="translate(99,34)"/>
<path d="M0 0 C2.8801015 1.19470877 5.00394874 2.59282177 7 5 C7.9375 8.8125 7.9375 8.8125 8 12 C5.125 11.75 5.125 11.75 2 11 C0.625 8.9375 0.625 8.9375 0 7 C-2.91634129 6.7497843 -2.91634129 6.7497843 -6 7 C-8.29013653 10.4352048 -8.17842973 11.985331 -8 16 C-6.02 16.66 -4.04 17.32 -2 18 C-2 17.34 -2 16.68 -2 16 C-2.99 15.67 -3.98 15.34 -5 15 C-4.67 13.68 -4.34 12.36 -4 11 C-0.04179141 11.56545837 2.6659053 12.80902348 6 15 C4.94124926 18.40312738 3.99097846 21.01353231 2 24 C-3.98403831 24.82538459 -7.31389628 23.72569244 -12.3359375 20.484375 C-15.29240351 17.8471518 -15.94235494 15.51880555 -16.375 11.625 C-15.93060645 7.32919568 -14.70408706 5.32216411 -12 2 C-7.93863434 -0.70757711 -4.76812749 -0.75784808 0 0 Z " fill="#F1F3F8" transform="translate(103,263)"/>
<path d="M0 0 C0.625 2.5625 0.625 2.5625 1 5 C-3.26616316 6.13764351 -6.56486311 7 -11 7 C-11 7.99 -11 8.98 -11 10 C-5.555 9.01 -5.555 9.01 0 8 C0.33 9.65 0.66 11.3 1 13 C-2.3 13.66 -5.6 14.32 -9 15 C-8.67 16.32 -8.34 17.64 -8 19 C-7.38511719 18.7834375 -6.77023438 18.566875 -6.13671875 18.34375 C-5.32847656 18.0653125 -4.52023438 17.786875 -3.6875 17.5 C-2.88699219 17.2215625 -2.08648437 16.943125 -1.26171875 16.65625 C1 16 1 16 4 16 C4.33 17.65 4.66 19.3 5 21 C2.79608318 21.73463894 0.59201777 22.46873509 -1.61328125 23.19921875 C-3.52080736 23.83922342 -5.41849755 24.50851799 -7.3125 25.1875 C-10 26 -10 26 -14 26 C-14.84179395 23.27318889 -15.67363069 20.54398557 -16.5 17.8125 C-16.85771484 16.65911133 -16.85771484 16.65911133 -17.22265625 15.48242188 C-18.40213617 11.55643872 -19.3326262 8.14951179 -19 4 C-16.21079611 3.1369594 -13.41913928 2.28427693 -10.625 1.4375 C-9.8309375 1.19064453 -9.036875 0.94378906 -8.21875 0.68945312 C-7.45820313 0.46064453 -6.69765625 0.23183594 -5.9140625 -0.00390625 C-5.2123291 -0.21861572 -4.5105957 -0.4333252 -3.78759766 -0.65454102 C-2 -1 -2 -1 0 0 Z " fill="#ECEFF5" transform="translate(202,272)"/>
<path d="M0 0 C0.33 0.66 0.66 1.32 1 2 C-1.35380297 5.92300495 -3.64464931 6.83857315 -8 8 C-7.55296014 12.47883696 -7.55296014 12.47883696 -5 16 C-1.91652174 16.16681109 -1.91652174 16.16681109 1 16 C1 15.01 1 14.02 1 13 C-0.32 12.67 -1.64 12.34 -3 12 C-3 11.01 -3 10.02 -3 9 C2.34883721 4 2.34883721 4 5 4 C9.91666667 8.91666667 9.91666667 8.91666667 10.1875 12.4375 C7.84244438 17.49788318 4.2895173 21.93954849 -1 24 C-6.28490928 23.80782148 -9.25332733 22.74667267 -13 19 C-15.52599898 15.51171569 -15.50729677 12.20331607 -15 8 C-11.23152451 1.63707407 -7.22163331 -0.27251446 0 0 Z " fill="#F1F3F8" transform="translate(79,50)"/>
<path d="M0 0 C1.99700801 1.93201662 3.58230608 3.69301724 5.25 5.875 C5.69601563 6.43058594 6.14203125 6.98617187 6.6015625 7.55859375 C8.2536393 9.63620548 9.80974383 11.61948766 11 14 C11.66 13.67 12.32 13.34 13 13 C13 13.99 13 14.98 13 16 C13.99 16.66 14.98 17.32 16 18 C12.7 18.66 9.4 19.32 6 20 C5.67 19.34 5.34 18.68 5 18 C2.69 18.33 0.38 18.66 -2 19 C-2 20.32 -2 21.64 -2 23 C-4.31 23.33 -6.62 23.66 -9 24 C-9.12152487 16.26291674 -8.84800767 8.692641 -8 1 C-4.87591425 -0.04136192 -3.23827213 -0.52693777 0 0 Z " fill="#E4EAF2" transform="translate(123,26)"/>
<path d="M0 0 C1.32 0.33 2.64 0.66 4 1 C3.32902328 5.19360449 1.1441606 8.40334352 -1 12 C2.99996286 10.66667905 3.83782337 8.5042173 6 5 C7.32 5.33 8.64 5.66 10 6 C9.29445932 9.66881155 7.72264494 12.70450534 6 16 C6.99 16 7.98 16 9 16 C10.46090788 14.4645122 10.46090788 14.4645122 11.6875 12.5 C12.12449219 11.8503125 12.56148437 11.200625 13.01171875 10.53125 C13.33785156 10.0259375 13.66398437 9.520625 14 9 C15.65 9.66 17.3 10.32 19 11 C11.70159453 22.52164009 11.70159453 22.52164009 8 28 C7.67 27.34 7.34 26.68 7 26 C4.69 26 2.38 26 0 26 C1.32 25.34 2.64 24.68 4 24 C-0.29 21.03 -4.58 18.06 -9 15 C-7.93913813 10.7565525 -6.53401667 8.71202222 -3.9375 5.25 C-2.83728516 3.77273437 -2.83728516 3.77273437 -1.71484375 2.265625 C-1.14894531 1.51796875 -0.58304688 0.7703125 0 0 Z " fill="#F0F2F7" transform="translate(49,73)"/>
<path d="M0 0 C1.9375 0.8125 1.9375 0.8125 4 2 C4.33 2.99 4.66 3.98 5 5 C5.66 5 6.32 5 7 5 C8.5078125 6.4609375 8.5078125 6.4609375 10.125 8.375 C10.66382813 9.00148438 11.20265625 9.62796875 11.7578125 10.2734375 C13 12 13 12 13 14 C11.02 14.99 11.02 14.99 9 16 C8.59007812 15.4946875 8.18015625 14.989375 7.7578125 14.46875 C7.21898437 13.8190625 6.68015625 13.169375 6.125 12.5 C5.59132813 11.8503125 5.05765625 11.200625 4.5078125 10.53125 C4.01023437 10.0259375 3.51265625 9.520625 3 9 C2.34 9 1.68 9 1 9 C2.05710093 11.27683278 3.08981993 13.10977992 4.6875 15.0625 C5.120625 15.701875 5.55375 16.34125 6 17 C5.67 17.99 5.34 18.98 5 20 C0.75177626 19.52797514 -1.19989709 17.03344482 -4 14 C-4 17.76687864 -3.76462683 18.91190305 -2 22 C-1.34 22 -0.68 22 0 22 C0.33 22.99 0.66 23.98 1 25 C0.34 25.66 -0.32 26.32 -1 27 C-3.76013637 26.81258333 -4.84879247 26.14514646 -6.8515625 24.22265625 C-7.43679687 23.50980469 -8.02203125 22.79695313 -8.625 22.0625 C-9.21539062 21.35222656 -9.80578125 20.64195313 -10.4140625 19.91015625 C-10.93742188 19.27980469 -11.46078125 18.64945313 -12 18 C-12.66 17.34 -13.32 16.68 -14 16 C-13.67432062 12.70078055 -12.48260998 11.14951571 -10.05859375 8.984375 C-9.47529297 8.45585938 -8.89199219 7.92734375 -8.29101562 7.3828125 C-7.67935547 6.84398438 -7.06769531 6.30515625 -6.4375 5.75 C-5.82197266 5.19570312 -5.20644531 4.64140625 -4.57226562 4.0703125 C-3.05498325 2.70593455 -1.52837406 1.35194145 0 0 Z " fill="#F4F6F9" transform="translate(257,61)"/>
<path d="M0 0 C2.57285724 2.172635 4.48996919 3.97993838 6 7 C6.25 10.5 6.25 10.5 6 14 C5.01 14.66 4.02 15.32 3 16 C0.39665076 13.28817788 0.00543309 12.10866187 -0.1875 8.25 C-0.0946875 6.64125 -0.0946875 6.64125 0 5 C-0.99 5.495 -0.99 5.495 -2 6 C-1.67 7.051875 -1.34 8.10375 -1 9.1875 C0.50104384 14.91022965 0.50104384 14.91022965 0 18 C-2.10774698 20.99948609 -3.32203951 21.87017778 -6.9375 22.5625 C-11.66844102 21.69355165 -13.62779409 18.87118988 -16.375 15.125 C-17.31207631 11.93894055 -16.61782106 9.21266953 -16 6 C-14.68 6 -13.36 6 -12 6 C-10.14223235 9.13498292 -9.79859524 11.37471432 -10 15 C-9.01 15.33 -8.02 15.66 -7 16 C-7.33 14.96875 -7.66 13.9375 -8 12.875 C-8.95381654 9.4851772 -9.40221786 6.53951715 -9 3 C-6.79159937 -0.68066771 -4.01883681 -0.64301389 0 0 Z " fill="#F1F3F8" transform="translate(274,80)"/>
<path d="M0 0 C3.52379766 1.97029546 5.70068885 4.10206655 7 8 C7.39094921 12.22225144 7.43502339 14.31846336 5.125 17.9375 C3 20 3 20 1 20 C0.22596442 15.93631321 -0.0984702 12.13574827 0 8 C-4.65052872 7.73067479 -4.65052872 7.73067479 -9 9 C-9 10.65 -9 12.3 -9 14 C-8.01 14.33 -7.02 14.66 -6 15 C-6 16.98 -6 18.96 -6 21 C-8.25 21.3125 -8.25 21.3125 -11 21 C-14.16314817 17.66112138 -15.87975556 15.27459108 -16.3125 10.6875 C-15.9475203 6.38073959 -15.06016472 4.97516014 -12 2 C-8.49075207 -0.63193594 -4.21480976 -0.8089846 0 0 Z " fill="#EFF2F7" transform="translate(292,129)"/>
<path d="M0 0 C1.32 0 2.64 0 4 0 C4 3.3 4 6.6 4 10 C4.99 10 5.98 10 7 10 C7.33 7.69 7.66 5.38 8 3 C9.32 3 10.64 3 12 3 C12 5.64 12 8.28 12 11 C14.64 11.33 17.28 11.66 20 12 C20 13.98 20 15.96 20 18 C17.49589513 19.25205243 16.19935991 18.95815898 13.4296875 18.66015625 C12.53378906 18.56669922 11.63789062 18.47324219 10.71484375 18.37695312 C9.77769531 18.27318359 8.84054688 18.16941406 7.875 18.0625 C6.93011719 17.96259766 5.98523438 17.86269531 5.01171875 17.75976562 C2.67385945 17.51181085 0.3367311 17.25833685 -2 17 C-1.85848172 14.9163691 -1.71162064 12.83310062 -1.5625 10.75 C-1.48128906 9.58984375 -1.40007813 8.4296875 -1.31640625 7.234375 C-1.06752213 4.69022624 -0.71885058 2.44046752 0 0 Z " fill="#F0F2F7" transform="translate(21,136)"/>
<path d="M0 0 C1.17620825 2.41242713 2.3410956 4.82927691 3.5 7.25 C3.83386719 7.93191406 4.16773438 8.61382812 4.51171875 9.31640625 C6.19374744 12.8520992 7 15.01929286 7 19 C5.35 19.33 3.7 19.66 2 20 C1.34 18.68 0.68 17.36 0 16 C-3.66172475 16.62678171 -6.8818995 17.64451846 -10.3125 19.0625 C-11.19550781 19.42472656 -12.07851563 19.78695312 -12.98828125 20.16015625 C-13.98408203 20.57587891 -13.98408203 20.57587891 -15 21 C-16.32563939 18.81659394 -17.02360642 17.47212832 -16.89453125 14.890625 C-15.65995435 12.28130089 -14.3253422 11.83794801 -11.6875 10.75 C-10.90761719 10.41484375 -10.12773437 10.0796875 -9.32421875 9.734375 C-7 9 -7 9 -3 9 C-3.33 8.236875 -3.66 7.47375 -4 6.6875 C-5 4 -5 4 -5 1 C-3 0 -3 0 0 0 Z " fill="#F2F4F8" transform="translate(285,96)"/>
<path d="M0 0 C3.16115776 1.36983503 3.9927092 1.9890638 6 5 C1.05 9.95 -3.9 14.9 -9 20 C-13.5 17.75 -13.5 17.75 -15 14 C-14.50371094 13.57589844 -14.00742187 13.15179688 -13.49609375 12.71484375 C-8.79678658 8.65756716 -4.32846012 4.45019806 0 0 Z " fill="#F3F5F9" transform="translate(71,240)"/>
<path d="M0 0 C2.31 0 4.62 0 7 0 C7.50059732 2.23081719 7.99783921 4.462236 8.48828125 6.6953125 C8.84940736 8.32175835 9.23021805 9.943894 9.625 11.5625 C10.1634598 15.06248873 10.05999507 18.46029079 10 22 C7.69 22 5.38 22 3 22 C2.49599549 19.08397391 1.99665334 16.16727908 1.5 13.25 C1.35691406 12.425 1.21382812 11.6 1.06640625 10.75 C0.93105469 9.95078125 0.79570312 9.1515625 0.65625 8.328125 C0.53056641 7.5949707 0.40488281 6.86181641 0.27539062 6.10644531 C0 4 0 4 0 0 Z " fill="#F3F5F8" transform="translate(174,277)"/>
<path d="M0 0 C4.62 0 9.24 0 14 0 C12.95500553 4.17997787 11.81242589 5.79919714 9.125 9.0625 C8.42632812 9.91972656 7.72765625 10.77695313 7.0078125 11.66015625 C3.68778366 15.5292171 3.68778366 15.5292171 2 17 C1.34 17 0.68 17 0 17 C0 11.39 0 5.78 0 0 Z " fill="#D53645" transform="translate(214,202)"/>
<path d="M0 0 C4.62 0 9.24 0 14 0 C14 5.61 14 11.22 14 17 C10.1507605 15.07538025 8.61136108 13.7306443 5.875 10.5625 C5.19179687 9.78003906 4.50859375 8.99757812 3.8046875 8.19140625 C0 3.57142857 0 3.57142857 0 0 Z " fill="#D53645" transform="translate(91,202)"/>
<path d="M0 0 C0.33 1.98 0.66 3.96 1 6 C-14.42857143 12 -14.42857143 12 -20 12 C-20.33 9.69 -20.66 7.38 -21 5 C-18.44013121 4.15774 -15.87760985 3.32601449 -13.3125 2.5 C-12.2306543 2.14228516 -12.2306543 2.14228516 -11.12695312 1.77734375 C-7.30592343 0.55601006 -4.06557944 -0.32075577 0 0 Z " fill="#F0F3F7" transform="translate(294,118)"/>
<path d="M0 0 C3.8492395 1.92461975 5.38863892 3.2693557 8.125 6.4375 C8.80820313 7.21996094 9.49140625 8.00242187 10.1953125 8.80859375 C14 13.42857143 14 13.42857143 14 17 C9.38 17 4.76 17 0 17 C0 11.39 0 5.78 0 0 Z " fill="#D53645" transform="translate(214,100)"/>
<path d="M0 0 C0 5.61 0 11.22 0 17 C-4.62 17 -9.24 17 -14 17 C-12.95500553 12.82002213 -11.81242589 11.20080286 -9.125 7.9375 C-8.07699219 6.65166016 -8.07699219 6.65166016 -7.0078125 5.33984375 C-2.42570952 0 -2.42570952 0 0 0 Z " fill="#D43645" transform="translate(105,100)"/>
<path d="M0 0 C3.19870559 0.45965651 4.91744512 1.52157286 7.234375 3.72265625 C7.80800781 4.26083984 8.38164063 4.79902344 8.97265625 5.35351562 C9.55917969 5.91748047 10.14570312 6.48144531 10.75 7.0625 C11.35199219 7.63033203 11.95398438 8.19816406 12.57421875 8.78320312 C14.05563212 10.18231575 15.5286488 11.59030947 17 13 C16.1875 14.9375 16.1875 14.9375 15 17 C14.01 17.33 13.02 17.66 12 18 C10.203125 16.77734375 10.203125 16.77734375 8.25 14.9375 C7.55390625 14.29554687 6.8578125 13.65359375 6.140625 12.9921875 C5.43421875 12.33476563 4.7278125 11.67734375 4 11 C2.67262004 9.8472753 1.33979007 8.70077693 0 7.5625 C-0.99 6.716875 -1.98 5.87125 -3 5 C-1.125 1.125 -1.125 1.125 0 0 Z " fill="#F4F6F9" transform="translate(56,65)"/>
<path d="M0 0 C0.928125 0.0825 1.85625 0.165 2.8125 0.25 C3.01875 0.86875 3.225 1.4875 3.4375 2.125 C5.36025888 5.09653645 7.47844527 5.38024659 10.8125 6.25 C11.1425 5.59 11.4725 4.93 11.8125 4.25 C11.35427532 7.71941546 10.92118317 10.92395049 9.8125 14.25 C8.8225 14.58 7.8325 14.91 6.8125 15.25 C7.1425 13.27 7.4725 11.29 7.8125 9.25 C3.3575 7.27 3.3575 7.27 -1.1875 5.25 C-1.1875 6.57 -1.1875 7.89 -1.1875 9.25 C-0.5275 9.58 0.1325 9.91 0.8125 10.25 C0.8125 10.91 0.8125 11.57 0.8125 12.25 C-1.5625 12.375 -1.5625 12.375 -4.1875 12.25 C-6.1875 10.25 -6.1875 10.25 -6.5 7.375 C-6.01590871 2.53408706 -5.05098814 0.39615593 0 0 Z " fill="#0C509C" transform="translate(100.1875,268.75)"/>
<path d="M0 0 C3.78517206 0.25662183 5.01775858 0.68704824 7.6875 3.25 C6.8125 8.125 6.8125 8.125 5.6875 9.25 C2.40500543 9.5417773 0.28483181 9.54866591 -2.6875 8.0625 C-4.3125 6.25 -4.3125 6.25 -4.625 3.625 C-4.14078238 -0.05505392 -3.85436481 0.29089546 0 0 Z " fill="#0D529C" transform="translate(33.3125,120.75)"/>
<path d="M0 0 C4.875 0.875 4.875 0.875 6 2 C5.54621849 8.12605042 5.54621849 8.12605042 3.75 11 C2 12 2 12 -0.6875 11.6875 C-1.450625 11.460625 -2.21375 11.23375 -3 11 C-3.36923077 4.6 -3.36923077 4.6 -1.5 1.5625 C-1.005 1.046875 -0.51 0.53125 0 0 Z " fill="#094F9B" transform="translate(216,39)"/>
<path d="M0 0 C1.65 0 3.3 0 5 0 C7 2 7 2 7.25 5.5 C7 9 7 9 5 11 C3.35 11 1.7 11 0 11 C0 7.37 0 3.74 0 0 Z " fill="#1D5BA1" transform="translate(164,26)"/>
<path d="M0 0 C2.475 0.99 2.475 0.99 5 2 C5.25 8.625 5.25 8.625 3 12 C-0.125 12.1875 -0.125 12.1875 -3 12 C-2.69106068 10.3743193 -2.3777305 8.74947252 -2.0625 7.125 C-1.88847656 6.22007813 -1.71445313 5.31515625 -1.53515625 4.3828125 C-1 2 -1 2 0 0 Z " fill="#1758A0" transform="translate(195,30)"/>
<path d="M0 0 C5 1 5 1 6 2 C6.1328125 3.8125 6.1328125 3.8125 6.125 6 C6.12757813 6.721875 6.13015625 7.44375 6.1328125 8.1875 C6 10 6 10 5 11 C3.35 11 1.7 11 0 11 C0 7.37 0 3.74 0 0 Z " fill="#044C9A" transform="translate(160,284)"/>
<path d="M0 0 C0.66 1.32 1.32 2.64 2 4 C-2.62 4.33 -7.24 4.66 -12 5 C-12 4.01 -12 3.02 -12 2 C-7.8803623 0.70756464 -4.33168317 -0.26252625 0 0 Z " fill="#0D519C" transform="translate(203,277)"/>
<path d="M0 0 C-0.33 1.32 -0.66 2.64 -1 4 C-3.49064888 4.68707555 -5.37886292 5 -8 5 C-8 4.01 -8 3.02 -8 2 C-4.77208445 -0.1519437 -3.71599191 -0.20086443 0 0 Z " fill="#14559E" transform="translate(256,254)"/>
<path d="M0 0 C0.99 0 1.98 0 3 0 C2.67 2.31 2.34 4.62 2 7 C0.68 6.34 -0.64 5.68 -2 5 C-1.34 3.35 -0.68 1.7 0 0 Z " fill="#205DA2" transform="translate(38,99)"/>
<path d="M0 0 C1.65 0.33 3.3 0.66 5 1 C5 1.99 5 2.98 5 4 C3.02 4 1.04 4 -1 4 C-0.67 2.68 -0.34 1.36 0 0 Z " fill="#0A4F9B" transform="translate(119,277)"/>
<path d="M0 0 C1.98 0 3.96 0 6 0 C3.60490662 2.89932357 1.68754757 3.50168276 -2 4 C-1.34 2.68 -0.68 1.36 0 0 Z " fill="#1D5AA1" transform="translate(245,247)"/>
<path d="M0 0 C0.33 0.66 0.66 1.32 1 2 C0.06553465 4.03144641 -0.93224776 6.03533587 -2 8 C-2.99 8 -3.98 8 -5 8 C-3.62845496 5.04590299 -2.01136276 2.55991624 0 0 Z " fill="#3D6EAB" transform="translate(235,52)"/>
</svg>
