<?xml version="1.0" encoding="UTF-8"?>
<svg version="1.1" xmlns="http://www.w3.org/2000/svg" width="319" height="319">
<path d="M0 0 C1.2226355 0.00131424 1.2226355 0.00131424 2.4699707 0.00265503 C29.45231084 0.09811454 54.41879144 6.15427201 78.0625 19.375 C78.70944824 19.73352051 79.35639648 20.09204102 80.02294922 20.46142578 C88.73349019 25.33941495 96.56966054 30.73411605 104.0625 37.375 C105.54363281 38.674375 105.54363281 38.674375 107.0546875 40 C118.8928934 50.52389728 128.52290716 62.0585208 137.0625 75.375 C137.43648926 75.95620605 137.81047852 76.53741211 138.19580078 77.13623047 C153.78269185 101.7717182 160.51347888 130.4331863 160.4375 159.3125 C160.43662384 160.12759033 160.43574768 160.94268066 160.43484497 161.7824707 C160.33938546 188.76481084 154.28322799 213.73129144 141.0625 237.375 C140.70397949 238.02194824 140.34545898 238.66889648 139.97607422 239.33544922 C135.09808505 248.04599019 129.70338395 255.88216054 123.0625 263.375 C122.19625 264.36242187 121.33 265.34984375 120.4375 266.3671875 C109.91360272 278.2053934 98.3789792 287.83540716 85.0625 296.375 C84.48129395 296.74898926 83.90008789 297.12297852 83.30126953 297.50830078 C59.41809314 312.61920392 31.2738615 319.76807845 3.20751953 319.69067383 C0.82928169 319.68752224 -1.54769666 319.7110398 -3.92578125 319.73632812 C-14.56616305 319.78032505 -24.5399564 318.60373657 -34.9375 316.375 C-36.26346191 316.09281616 -36.26346191 316.09281616 -37.61621094 315.80493164 C-61.62019377 310.29842013 -84.58441555 298.80935289 -102.9375 282.375 C-103.66743164 281.73328857 -103.66743164 281.73328857 -104.41210938 281.07861328 C-134.55661086 254.55412639 -154.68314882 218.62994604 -158.9375 178.375 C-159.24723624 173.09332581 -159.26776119 167.80928757 -159.25317383 162.52001953 C-159.25002224 160.14178169 -159.2735398 157.76480334 -159.29882812 155.38671875 C-159.34150279 144.72996058 -158.03850168 134.80419547 -155.9375 124.375 C-155.63515433 122.43913771 -155.34082077 120.5019621 -155.0625 118.5625 C-153.93746914 112.43938124 -151.45829776 107.03450695 -148.9375 101.375 C-148.28974609 99.75464844 -148.28974609 99.75464844 -147.62890625 98.1015625 C-135.06194787 66.98677036 -112.0008454 41.37146437 -83.9375 23.375 C-83.35629395 23.00101074 -82.77508789 22.62702148 -82.17626953 22.24169922 C-57.5407818 6.65480815 -28.8793137 -0.07597888 0 0 Z M-73.25 92.6875 C-91.29041628 113.51247971 -100.64307457 139.78800817 -98.9375 167.375 C-96.39005796 193.98763918 -84.16629616 218.49169721 -63.87890625 236.06640625 C-41.95696683 253.27207185 -15.51860407 262.15111535 12.44921875 258.91015625 C38.55520221 255.37136393 62.71932913 242.19802481 79.0625 221.375 C95.29848665 199.20014736 103.17271396 172.95405629 99.18969727 145.5222168 C96.26595252 127.42527765 89.28522916 110.25233442 77.0625 96.375 C76.41023437 95.5809375 75.75796875 94.786875 75.0859375 93.96875 C59.14890172 75.19202421 35.89687843 63.51817837 11.54296875 60.65625 C-20.64012096 58.05559629 -50.88309845 69.17801679 -73.25 92.6875 Z " fill="#048339" transform="translate(158.9375,-0.37499999999999994)"/>
<path d="M0 0 C8.58 0 17.16 0 26 0 C27.98 10.89 29.96 21.78 32 33 C35.06049787 18.055683 35.06049787 18.055683 37.60546875 3.01953125 C38 1 38 1 39 0 C47.25 0 55.5 0 64 0 C64 22.11 64 44.22 64 67 C58.39 67 52.78 67 47 67 C46.67 55.12 46.34 43.24 46 31 C43.69 42.88 41.38 54.76 39 67 C34.71 67 30.42 67 26 67 C24.47417431 62.42252293 23.34311873 58.12262526 22.4921875 53.4140625 C22.2535498 52.12967285 22.01491211 50.8452832 21.76904297 49.52197266 C21.47400879 47.90597168 21.17897461 46.2899707 20.875 44.625 C19.92625 39.46875 18.9775 34.3125 18 29 C17.67 41.54 17.34 54.08 17 67 C11.39 67 5.78 67 0 67 C0 44.89 0 22.78 0 0 Z " fill="#74B742" transform="translate(127,126)"/>
<path d="M0 0 C7.72562148 6.36513468 13.95894281 13.57767457 18.9375 22.25 C15.56131872 23.37539376 14.36010754 23.09833292 10.95703125 22.32421875 C9.96566162 22.10540039 8.97429199 21.88658203 7.95288086 21.66113281 C6.89593018 21.42233398 5.83897949 21.18353516 4.75 20.9375 C-4.84657506 18.85646982 -14.27503275 17.15898724 -24.0625 16.25 C-25.19429688 16.13914063 -26.32609375 16.02828125 -27.4921875 15.9140625 C-52.99473432 13.81251633 -78.73972287 15.11753313 -103.84228516 20.01660156 C-104.74640137 20.19030273 -105.65051758 20.36400391 -106.58203125 20.54296875 C-107.37714111 20.7030542 -108.17225098 20.86313965 -108.99145508 21.02807617 C-111.0625 21.25 -111.0625 21.25 -114.0625 20.25 C-92.92707752 2.71209624 -67.01288973 -3.0796959 -40.0625 -1.75 C-37.38001386 -1.48466295 -34.73166891 -1.13394259 -32.0625 -0.75 C-58.70200375 -6.41510966 -83.46187081 -3.81518707 -107.98828125 8.4296875 C-108.67277344 8.70039062 -109.35726562 8.97109375 -110.0625 9.25 C-110.7225 8.92 -111.3825 8.59 -112.0625 8.25 C-82.60958529 -23.83612232 -33.87684724 -25.90275858 0 0 Z " fill="#73B742" transform="translate(211.0625,95.75)"/>
<path d="M0 0 C5.43541939 0.98397578 10.86923117 1.9739188 16.296875 3 C51.63170041 9.56162938 87.38918096 10.10222982 122.72949219 3.23339844 C123.63860352 3.05969727 124.54771484 2.88599609 125.484375 2.70703125 C126.28584961 2.5469458 127.08732422 2.38686035 127.91308594 2.22192383 C130 2 130 2 133 3 C113.96427225 20.7781121 86.45853349 25.67289941 61.40820312 25.11474609 C57.57816165 24.93225223 53.80383477 24.4773889 50 24 C78.76462746 30.1875255 103.27200912 25.69660681 130 14 C125.24097054 24.78400765 111.40251707 31.39479396 100.93994141 35.59301758 C79.79527378 43.60039171 57.93355759 42.98960184 36.98828125 34.37109375 C21.82921669 27.41575825 7.89597896 15.88088343 0 1 C0 0.67 0 0.34 0 0 Z " fill="#73B742" transform="translate(89,200)"/>
<path d="M0 0 C6.72948242 5.53108144 8.59368297 12.70940522 9.46875 21.08203125 C10.4759644 32.95703714 11.68918333 49.07442021 4 59 C-1.5196195 65.0341603 -8.23909722 66.50685204 -16.12109375 67.0859375 C-22.48621869 66.89593377 -27.98093251 64.49285839 -32.4375 59.9375 C-38.44842078 51.64277378 -38.47473199 41.35130475 -38.375 31.5 C-38.38660156 30.35402344 -38.39820313 29.20804688 -38.41015625 28.02734375 C-38.37771334 18.52157023 -37.70628795 8.48587701 -30.7109375 1.37109375 C-22.75560557 -5.00406951 -8.58175805 -5.48605537 0 0 Z M-17 10 C-21.03596941 16.05395411 -20.18237059 24.29641585 -20.1875 31.375 C-20.19974609 32.25671875 -20.21199219 33.1384375 -20.22460938 34.046875 C-20.23813669 40.19729456 -19.64402589 46.05416964 -18 52 C-16.94689723 53.27003323 -16.94689723 53.27003323 -14.5625 53.1875 C-11.83265325 53.26839983 -11.83265325 53.26839983 -10 51 C-8.25585144 44.72397558 -8.81566571 38.01737779 -8.8125 31.5625 C-8.80025391 30.25216797 -8.78800781 28.94183594 -8.77539062 27.59179688 C-8.77345703 26.32529297 -8.77152344 25.05878906 -8.76953125 23.75390625 C-8.76542236 22.60220947 -8.76131348 21.4505127 -8.75708008 20.26391602 C-9.01748529 16.76506451 -9.39620562 12.60379438 -12 10 C-14.45792029 9.66656449 -14.45792029 9.66656449 -17 10 Z " fill="#74B742" transform="translate(230,128)"/>
<path d="M0 0 C6.44479989 5.89947067 7.34256369 11.67247335 8 20 C2.06 20 -3.88 20 -10 20 C-10.66 17.03 -11.32 14.06 -12 11 C-13.65 11 -15.3 11 -17 11 C-18.6724172 15.38781155 -19.25639372 19.0318975 -19.265625 23.71875 C-19.26820312 24.98074219 -19.27078125 26.24273437 -19.2734375 27.54296875 C-19.26570313 28.84878906 -19.25796875 30.15460938 -19.25 31.5 C-19.25773437 32.80582031 -19.26546875 34.11164063 -19.2734375 35.45703125 C-19.26957031 37.35001953 -19.26957031 37.35001953 -19.265625 39.28125 C-19.26336914 40.42658203 -19.26111328 41.57191406 -19.25878906 42.75195312 C-18.99023247 46.12259174 -18.20039248 48.85060881 -17 52 C-15.35 52 -13.7 52 -12 52 C-11.01 48.37 -10.02 44.74 -9 41 C-10.98 41 -12.96 41 -15 41 C-15 36.71 -15 32.42 -15 28 C-7.41 28 0.18 28 8 28 C8 40.21 8 52.42 8 65 C3.71 65 -0.58 65 -5 65 C-5.33 64.01 -5.66 63.02 -6 62 C-6.598125 62.474375 -7.19625 62.94875 -7.8125 63.4375 C-12.91570278 67.08264485 -18.9900841 66.53319913 -25 66 C-29.7282413 64.73609009 -32.86309146 62.75851107 -35.4375 58.5625 C-41.38364518 45.00528898 -40.7001663 23.38376522 -36.18359375 9.48828125 C-33.7028107 3.8727849 -29.97022773 0.18228338 -24.203125 -2.11328125 C-16.13444187 -4.3469289 -7.39649049 -3.96240562 0 0 Z " fill="#73B742" transform="translate(118,128)"/>
<path d="M0 0 C1.37207031 2.25317383 1.37207031 2.25317383 2.578125 5.20703125 C3.23554687 6.7993457 3.23554687 6.7993457 3.90625 8.42382812 C4.3496875 9.54208984 4.793125 10.66035156 5.25 11.8125 C5.93835938 13.47249023 5.93835938 13.47249023 6.640625 15.16601562 C10 23.42947824 10 23.42947824 10 28 C8.35 28.66 6.7 29.32 5 30 C2.36 23.73 -0.28 17.46 -3 11 C-1.515 21.395 -1.515 21.395 0 32 C-1.65 32.66 -3.3 33.32 -5 34 C-8.96 28.06 -12.92 22.12 -17 16 C-14.69999897 21.83520739 -14.69999897 21.83520739 -12.39257812 27.66748047 C-12.10833984 28.39338379 -11.82410156 29.11928711 -11.53125 29.8671875 C-11.23798828 30.61081543 -10.94472656 31.35444336 -10.64257812 32.12060547 C-10 34 -10 34 -10 36 C-13 38 -13 38 -16 38 C-17.67760333 33.75423582 -19.34017443 29.50274227 -21 25.25 C-21.47695312 24.0434375 -21.95390625 22.836875 -22.4453125 21.59375 C-22.89648438 20.43359375 -23.34765625 19.2734375 -23.8125 18.078125 C-24.44091797 16.47565918 -24.44091797 16.47565918 -25.08203125 14.84082031 C-26 12 -26 12 -26 8 C-23.36 7.01 -20.72 6.02 -18 5 C-16.93458984 6.62421875 -16.93458984 6.62421875 -15.84765625 8.28125 C-14.91945222 9.68761974 -13.99105696 11.09386327 -13.0625 12.5 C-12.35963867 13.57314453 -12.35963867 13.57314453 -11.64257812 14.66796875 C-10.45451512 16.46288408 -9.23013479 18.2336526 -8 20 C-7.67 20 -7.34 20 -7 20 C-7.144375 19.21496094 -7.28875 18.42992188 -7.4375 17.62109375 C-8.42998747 12.00389036 -9.2593193 6.70502463 -9 1 C-5.59701431 -0.60696546 -3.53243072 -1.5698247 0 0 Z " fill="#F3F9F6" transform="translate(120,22)"/>
<path d="M0 0 C5.18749613 4.36344075 10.15532939 8.88421121 15 13.625 C15.69222656 14.27984375 16.38445312 14.9346875 17.09765625 15.609375 C17.74605469 16.24617188 18.39445312 16.88296875 19.0625 17.5390625 C19.65160156 18.10834473 20.24070312 18.67762695 20.84765625 19.26416016 C22 21 22 21 21.8125 23.13818359 C21 25 21 25 18.9375 26.25 C18.298125 26.4975 17.65875 26.745 17 27 C17 27.66 17 28.32 17 29 C12.56829827 27.48103632 8.96975924 25.07360191 5.1875 22.375 C4.59001953 21.95476562 3.99253906 21.53453125 3.37695312 21.1015625 C1.91479435 20.07220272 0.45695101 19.0367177 -1 18 C-0.52949219 18.73605469 -0.05898437 19.47210938 0.42578125 20.23046875 C1.04839844 21.20628906 1.67101562 22.18210938 2.3125 23.1875 C3.23482422 24.63189453 3.23482422 24.63189453 4.17578125 26.10546875 C4.77777344 27.06066406 5.37976563 28.01585937 6 29 C6.87591797 30.35158203 6.87591797 30.35158203 7.76953125 31.73046875 C9 34 9 34 8.375 36.125 C5.72375691 39.74033149 5.72375691 39.74033149 4 41 C0.3113962 40.61225961 -1.32392607 38.98554383 -3.78515625 36.32421875 C-4.48060547 35.57849609 -5.17605469 34.83277344 -5.89257812 34.06445312 C-6.96668945 32.88786133 -6.96668945 32.88786133 -8.0625 31.6875 C-8.78244141 30.91470703 -9.50238281 30.14191406 -10.24414062 29.34570312 C-13.34075254 26.00182229 -16.31371684 22.68674185 -19 19 C-18.01 18.01 -17.02 17.02 -16 16 C-11.92623969 17.61010527 -9.23492931 20.53822271 -6.25 23.625 C-5.74339844 24.140625 -5.23679688 24.65625 -4.71484375 25.1875 C-3.47196098 26.45383339 -2.23534724 27.7263144 -1 29 C-1.47050781 28.20335937 -1.94101563 27.40671875 -2.42578125 26.5859375 C-3.04839844 25.52632812 -3.67101562 24.46671875 -4.3125 23.375 C-4.92738281 22.33085937 -5.54226562 21.28671875 -6.17578125 20.2109375 C-7.89431931 17.18601612 -9.47457142 14.12595518 -11 11 C-9.68 10.01 -8.36 9.02 -7 8 C-1.72 11.3 3.56 14.6 9 18 C9.1156797 16.48965086 9.1156797 16.48965086 6.375 14.27734375 C5.25250827 13.16153352 4.12737774 12.04837334 3 10.9375 C2.42765625 10.36966797 1.8553125 9.80183594 1.265625 9.21679688 C-0.15403829 7.80896411 -1.57674097 6.40419752 -3 5 C-1.125 1.125 -1.125 1.125 0 0 Z " fill="#F5FAF7" transform="translate(248,230)"/>
<path d="M0 0 C4.98951292 3.21546388 6.19109964 7.55631334 7.49609375 13.08203125 C8.45683517 18.64539437 8.91618814 23.68541942 6.8125 29 C3.7234418 32.40861595 0.98390013 32.87701248 -3.5 33.4375 C-7 33 -7 33 -9.75 31.1875 C-14.63091682 24.27286784 -16.115215 15.349042 -15 7 C-13.76777541 4.04266099 -12.80857462 2.62889137 -10.3125 0.6875 C-6.81431226 -0.35250176 -3.57398473 -0.65499322 0 0 Z " fill="#F0F7F3" transform="translate(144,16)"/>
<path d="M0 0 C1.89510699 -0.08160748 3.79124504 -0.13946459 5.6875 -0.1875 C6.74324219 -0.22230469 7.79898438 -0.25710938 8.88671875 -0.29296875 C12.47541926 0.04473832 14.17573106 0.78196255 17 3 C21.26486257 8.46610115 20.59893689 14.37975096 20 21 C19.03208212 25.24698661 17.7082609 29.46956787 14 32 C11.18872957 32.21714241 8.6116655 32.28284276 5.8125 32.1875 C5.06291016 32.17396484 4.31332031 32.16042969 3.54101562 32.14648438 C1.69370233 32.11118539 -0.15324066 32.05737917 -2 32 C-1.0125055 9.19872014 -1.0125055 9.19872014 0 0 Z " fill="#F2F8F5" transform="translate(157,15)"/>
<path d="M0 0 C4.48258574 3.6429083 8.78040233 7.1706035 12 12 C12.32793868 17.02839316 9.76188327 20.25467105 6.7578125 24.03515625 C3.03146784 28.2003815 -1.02590749 32.62929159 -6.7578125 33.34375 C-11.00143706 32.89382354 -12.69650547 31.29087324 -15.875 28.5 C-17.32519531 27.24703125 -17.32519531 27.24703125 -18.8046875 25.96875 C-19.52914062 25.3190625 -20.25359375 24.669375 -21 24 C-19.61431787 20.9089287 -17.99224396 18.70165043 -15.6640625 16.25 C-15.01179687 15.5590625 -14.35953125 14.868125 -13.6875 14.15625 C-13.006875 13.4446875 -12.32625 12.733125 -11.625 12 C-10.95210937 11.2884375 -10.27921875 10.576875 -9.5859375 9.84375 C-6.43399178 6.51807499 -3.26533799 3.21510202 0 0 Z " fill="#F4FAF7" transform="translate(251,48)"/>
<path d="M0 0 C3.883836 3.14012273 5.8023937 5.28741203 6.375 10.25 C5.92190656 14.7809344 4.20578019 16.96982306 1 20 C-1.33975144 21.48321085 -3.46337343 22.70318548 -5.9375 23.875 C-6.82985352 24.33519531 -6.82985352 24.33519531 -7.74023438 24.8046875 C-11.62872698 26.70856148 -14.68786595 27.53053438 -19 27 C-22.09481323 24.46788008 -24.85450518 21.89468238 -26 18 C-26.06342874 14.57484811 -25.90705498 12.13934955 -23.71875 9.390625 C-17.21451803 3.43863914 -8.97519038 -1.52121871 0 0 Z " fill="#F3F9F6" transform="translate(281,83)"/>
<path d="M0 0 C6.80329515 -0.33216812 11.95084656 -0.28758339 18 3 C19 4 19 4 19.09765625 6.28515625 C19.08605469 7.20167969 19.07445312 8.11820312 19.0625 9.0625 C19.05347656 9.98160156 19.04445312 10.90070313 19.03515625 11.84765625 C19.02355469 12.55792969 19.01195312 13.26820313 19 14 C17.02 14.99 17.02 14.99 15 16 C15.73669922 16.78117187 15.73669922 16.78117187 16.48828125 17.578125 C18.49150262 20.78742022 18.3000233 22.99922336 18.1875 26.75 C18.16042969 27.92046875 18.13335937 29.0909375 18.10546875 30.296875 C18.07066406 31.18890625 18.03585938 32.0809375 18 33 C15.69 33 13.38 33 11 33 C10.67 28.71 10.34 24.42 10 20 C8.35 19.67 6.7 19.34 5 19 C4.93941406 19.78246094 4.87882813 20.56492187 4.81640625 21.37109375 C4.73261719 22.38300781 4.64882812 23.39492188 4.5625 24.4375 C4.48128906 25.44683594 4.40007812 26.45617187 4.31640625 27.49609375 C4 30 4 30 3 31 C1.00041636 31.04080783 -1.00045254 31.04254356 -3 31 C-2.3742559 20.6093545 -1.28762194 10.3259779 0 0 Z " fill="#F1F8F4" transform="translate(137,272)"/>
<path d="M0 0 C0.70386802 2.03608174 1.38742855 4.07919024 2.0625 6.125 C2.44535156 7.26195313 2.82820313 8.39890625 3.22265625 9.5703125 C4.04395703 13.19394106 3.99816264 15.44178293 3 19 C0.01976365 21.62962031 -1.76595677 21.98439712 -5.75 22.25 C-9 22 -9 22 -10 21 C-10.639375 21.7425 -11.27875 22.485 -11.9375 23.25 C-15.34158774 26.70327976 -19.54650144 28.26323259 -24 30 C-24.66 27.69 -25.32 25.38 -26 23 C-24.5437455 22.32880451 -23.08492133 21.66318193 -21.625 21 C-20.81289063 20.62875 -20.00078125 20.2575 -19.1640625 19.875 C-17 19 -17 19 -15 19 C-15.66 17.02 -16.32 15.04 -17 13 C-20.96 13.99 -24.92 14.98 -29 16 C-29.33 13.69 -29.66 11.38 -30 9 C-26.05018918 7.71454512 -22.09916619 6.43289614 -18.14697266 5.15478516 C-16.80223134 4.71931109 -15.45782783 4.28279245 -14.11376953 3.84521484 C-12.18349334 3.21698473 -10.25203954 2.59250246 -8.3203125 1.96875 C-7.15773926 1.59169922 -5.99516602 1.21464844 -4.79736328 0.82617188 C-2 0 -2 0 0 0 Z " fill="#F2F8F4" transform="translate(294,105)"/>
<path d="M0 0 C6.40090892 0.59612656 12.18711109 2.08327314 18.3125 4 C19.65151367 4.40992188 19.65151367 4.40992188 21.01757812 4.828125 C24.35692019 5.85329548 27.68601387 6.89533796 31 8 C30.34 10.31 29.68 12.62 29 15 C26.26750659 15.75277515 23.71899317 16.16641703 20.890625 16.31640625 C20.13652344 16.35830078 19.38242187 16.40019531 18.60546875 16.44335938 C17.43951172 16.50233398 17.43951172 16.50233398 16.25 16.5625 C15.45722656 16.60568359 14.66445313 16.64886719 13.84765625 16.69335938 C11.89862185 16.79902991 9.94933252 16.89997966 8 17 C9.06927734 17.29003906 9.06927734 17.29003906 10.16015625 17.5859375 C15.45013328 19.02412775 20.73336033 20.47852632 26 22 C25.67 23.98 25.34 25.96 25 28 C14.72593063 26.02545229 4.92611555 23.26143797 -5 20 C-4.125 13.125 -4.125 13.125 -3 12 C-1.65984779 11.84417697 -0.31241097 11.74955858 1.03515625 11.68359375 C2.24848633 11.62075195 2.24848633 11.62075195 3.48632812 11.55664062 C4.7615332 11.49766602 4.7615332 11.49766602 6.0625 11.4375 C7.34350586 11.37272461 7.34350586 11.37272461 8.65039062 11.30664062 C10.76672037 11.20023298 12.88333813 11.09958269 15 11 C9.71169451 8.84705349 4.44876003 6.72066106 -1 5 C-0.67 3.35 -0.34 1.7 0 0 Z " fill="#F3F9F6" transform="translate(270,182)"/>
<path d="M0 0 C1.75 1 1.75 1 3.75 6 C-1.2 10.95 -6.15 15.9 -11.25 21 C-5.74333663 18.37141418 -5.74333663 18.37141418 -0.24072266 15.734375 C0.4445752 15.40953125 1.12987305 15.0846875 1.8359375 14.75 C2.5376709 14.41484375 3.2394043 14.0796875 3.96240234 13.734375 C5.75 13 5.75 13 7.75 13 C8.245 15.97 8.245 15.97 8.75 19 C5.08637915 20.8564979 1.4201704 22.70776879 -2.24853516 24.55419922 C-3.49665722 25.18329431 -4.74405805 25.81382241 -5.99072266 26.44580078 C-7.78098111 27.35303597 -9.57404628 28.25472596 -11.3671875 29.15625 C-12.44597168 29.70087891 -13.52475586 30.24550781 -14.63623047 30.80664062 C-17.25 32 -17.25 32 -19.25 32 C-20.24 29.69 -21.23 27.38 -22.25 25 C-17.63 20.38 -13.01 15.76 -8.25 11 C-13.05445255 13.29734826 -13.05445255 13.29734826 -17.8527832 15.60742188 C-20.82178444 17.01021234 -22.92854187 18 -26.25 18 C-26.58 16.35 -26.91 14.7 -27.25 13 C-24.20888251 11.39479066 -21.16700767 9.79102164 -18.125 8.1875 C-17.2690625 7.73568359 -16.413125 7.28386719 -15.53125 6.81835938 C-13.10664523 5.54077917 -10.67890981 4.26937212 -8.25 3 C-7.10273437 2.39800781 -5.95546875 1.79601562 -4.7734375 1.17578125 C-2.25 0 -2.25 0 0 0 Z " fill="#F6FAF8" transform="translate(53.25,200)"/>
<path d="M0 0 C6.58012763 1.31867613 12.67067706 3.17864971 18.9375 5.5625 C20.21077148 6.03719727 20.21077148 6.03719727 21.50976562 6.52148438 C27.62797619 8.8139881 27.62797619 8.8139881 30 10 C30 12.64 30 15.28 30 18 C29.37432129 18.11593506 28.74864258 18.23187012 28.10400391 18.35131836 C25.27708033 18.87693387 22.45104062 19.40715861 19.625 19.9375 C18.64015625 20.11990234 17.6553125 20.30230469 16.640625 20.49023438 C15.69960938 20.66748047 14.75859375 20.84472656 13.7890625 21.02734375 C12.48509521 21.27085571 12.48509521 21.27085571 11.15478516 21.51928711 C8.96537634 21.9165899 8.96537634 21.9165899 7 23 C5.45976004 23.06950541 3.91665012 23.08452357 2.375 23.0625 C1.14910156 23.04896484 1.14910156 23.04896484 -0.1015625 23.03515625 C-0.72804688 23.02355469 -1.35453125 23.01195312 -2 23 C-2 21.02 -2 19.04 -2 17 C0.31 17 2.62 17 5 17 C5 13.7 5 10.4 5 7 C3.35 7 1.7 7 0 7 C0 4.69 0 2.38 0 0 Z " fill="#F3F9F5" transform="translate(273,157)"/>
<path d="M0 0 C7.50775207 -0.22479546 14.69638637 0.45092098 22.125 1.5 C23.176875 1.64308594 24.22875 1.78617187 25.3125 1.93359375 C27.87587562 2.28314497 30.43825808 2.63870406 33 3 C32.34 4.98 31.68 6.96 31 9 C28.36 9 25.72 9 23 9 C22.34 11.64 21.68 14.28 21 17 C22.65 17.66 24.3 18.32 26 19 C25.67 20.98 25.34 22.96 25 25 C20.72960231 24.43061364 17.68177135 21.85680909 14.3125 19.375 C13.69616699 18.92785645 13.07983398 18.48071289 12.44482422 18.02001953 C7.54908484 14.45076866 2.73365443 10.78191438 -2 7 C-1.34 4.69 -0.68 2.38 0 0 Z " fill="#F7FBF9" transform="translate(26,104)"/>
<path d="M0 0 C1.42636772 1.18863977 2.85092109 2.37953292 4.265625 3.58203125 C5.96496632 5.01009214 5.96496632 5.01009214 7.734375 6.19921875 C10.87060764 8.44685214 11.92561667 9.59089167 12.625 13.4375 C11.89109767 17.6207433 10.61750461 19.67506171 8 23 C7.2575 24.010625 6.515 25.02125 5.75 26.0625 C2.72437296 29.5707424 -0.72057734 32.19512899 -5 34 C-8.80967981 34.26273654 -10.8033134 33.99327629 -13.76953125 31.53125 C-16.24257606 28.89024664 -17.81484668 26.88462143 -18.5625 23.3125 C-17.90549371 20.61147413 -16.83528775 19.06469872 -15 17 C-13.68 17.66 -12.36 18.32 -11 19 C-11 20.32 -11 21.64 -11 23 C-10.7018576 24.34164079 -10.37756808 25.67851173 -10 27 C-5.71449811 26.49890292 -3.779909 25.28118172 -0.8125 22.1875 C-0.13832031 21.50042969 0.53585938 20.81335938 1.23046875 20.10546875 C4.34264306 16.40246223 5.26861911 13.83514403 5 9 C1.535 10.485 1.535 10.485 -2 12 C-1.67 13.98 -1.34 15.96 -1 18 C-1.99 18.66 -2.98 19.32 -4 20 C-6.31 17.69 -8.62 15.38 -11 13 C-7.57360692 8.29866997 -4.23473064 3.98562883 0 0 Z " fill="#F1F8F4" transform="translate(75,235)"/>
<path d="M0 0 C2.67721997 4.01582995 2.69118476 7.28117075 2 12 C-0.03805615 15.01934244 -1.25219683 15.79605368 -4.75 16.75 C-5.86375 16.87375 -5.86375 16.87375 -7 17 C-7 14.69 -7 12.38 -7 10 C-5.68 9.34 -4.36 8.68 -3 8 C-3.66 6.68 -4.32 5.36 -5 4 C-14.19982581 3.66119152 -14.19982581 3.66119152 -23 6 C-24.28502523 7.99522186 -24.28502523 7.99522186 -25 10 C-22.4345406 12.5654594 -20.52313332 12.54046087 -17 13 C-17 11.35 -17 9.7 -17 8 C-15.35 8 -13.7 8 -12 8 C-12 11.3 -12 14.6 -12 18 C-17.28 18.66 -22.56 19.32 -28 20 C-29 15 -29 15 -29 13 C-29.66 12.01 -30.32 11.02 -31 10 C-30.92606399 5.93351935 -30.67670746 3.7587326 -27.9375 0.6875 C-19.89734919 -3.93131004 -7.78864915 -5.7439606 0 0 Z " fill="#F4FAF7" transform="translate(301,136)"/>
<path d="M0 0 C3.125 0.1875 3.125 0.1875 6.125 2.1875 C5.465 3.8375 4.805 5.4875 4.125 7.1875 C3.17625 7.14625 2.2275 7.105 1.25 7.0625 C-1.97744856 6.83776182 -1.97744856 6.83776182 -3.875 9.1875 C-3.5564823 11.29570797 -3.5564823 11.29570797 -2.875 13.1875 C1.12359301 12.87388486 3.51511859 12.67838016 6.6875 10.125 C9.125 8.1875 9.125 8.1875 12.0625 7.625 C16.33835806 8.41036168 18.20726148 9.99834395 21.125 13.1875 C22.3125 16.5625 22.3125 16.5625 22.125 20.1875 C20.4280535 23.52836343 18.52343317 26.48828342 15.125 28.1875 C9.58653846 28.41826923 9.58653846 28.41826923 7.125 27.1875 C7.785 25.2075 8.445 23.2275 9.125 21.1875 C11.105 21.1875 13.085 21.1875 15.125 21.1875 C14.63 18.7125 14.63 18.7125 14.125 16.1875 C10.79522947 16.59110855 8.48575098 17.49021105 5.6875 19.25 C2.34516592 21.22929979 0.06168463 21.8721408 -3.875 21.1875 C-6.57490662 19.38756226 -8.4168865 18.103727 -9.875 15.1875 C-10.01069519 10.25401046 -9.58087744 7.03455293 -6.375 3.1875 C-5.55 2.5275 -4.725 1.8675 -3.875 1.1875 C-2.875 0.1875 -2.875 0.1875 0 0 Z " fill="#F3F9F6" transform="translate(261.875,213.8125)"/>
<path d="M0 0 C-0.33 2.31 -0.66 4.62 -1 7 C-2.98 7.33 -4.96 7.66 -7 8 C-6.67 9.65 -6.34 11.3 -6 13 C0.55276707 15.28584898 7.10401439 15.60594368 14 16 C14 14.02 14 12.04 14 10 C11.03 9.505 11.03 9.505 8 9 C8 6.69 8 4.38 8 2 C12.82978133 2.44928198 15.67447217 3.38942693 19 7 C20.20909073 11.08068121 20.27648222 13.24331183 18.8125 17.25 C17.00494687 19.99249441 15.75469766 21.2857457 13 23 C4.87672551 24.476959 -4.38919982 22.40720012 -11.1875 17.875 C-13.70377715 13.88366383 -13.92465703 10.5982944 -13 6 C-9.30649723 0.09039557 -6.72640155 -0.12456299 0 0 Z " fill="#EDF6F1" transform="translate(30,125)"/>
<path d="M0 0 C0 1.98 0 3.96 0 6 C-3.63 6 -7.26 6 -11 6 C-11 8.31 -11 10.62 -11 13 C-7.37 13 -3.74 13 0 13 C0 14.65 0 16.3 0 18 C-4.95 18.495 -4.95 18.495 -10 19 C-10 21.64 -10 24.28 -10 27 C-6.04 27 -2.08 27 2 27 C2 28.65 2 30.3 2 32 C-3.94 32.33 -9.88 32.66 -16 33 C-16.3382674 29.35456468 -16.67074727 25.70875152 -17 22.0625 C-17.09539062 21.04091797 -17.19078125 20.01933594 -17.2890625 18.96679688 C-17.82746552 12.94822031 -18.10081112 7.04236648 -18 1 C-11.97968656 0.39034801 -6.05329744 -0.13451772 0 0 Z " fill="#F2F8F5" transform="translate(179,272)"/>
<path d="M0 0 C3.89006773 1.38780795 6.96558708 3.2152227 10.3125 5.625 C11.19550781 6.25664063 12.07851562 6.88828125 12.98828125 7.5390625 C13.98408203 8.26222656 13.98408203 8.26222656 15 9 C14.34 10.65 13.68 12.3 13 14 C9.7 12.35 6.4 10.7 3 9 C2.01 10.98 1.02 12.96 0 15 C0.763125 15.28875 1.52625 15.5775 2.3125 15.875 C5 17 5 17 8 19 C7.01 21.475 7.01 21.475 6 24 C2.66666667 22.66666667 -0.66666667 21.33333333 -4 20 C-5.98 22.97 -5.98 22.97 -8 26 C-7.2575 26.268125 -6.515 26.53625 -5.75 26.8125 C-3.13363446 27.94229421 -1.19812889 29.20893202 1 31 C0.01 33.475 0.01 33.475 -1 36 C-6.36675067 33.52303815 -11.1334542 30.34169478 -16 27 C-14.35524908 22.25979088 -11.80327535 18.26731422 -9.125 14.0625 C-8.69058594 13.37220703 -8.25617188 12.68191406 -7.80859375 11.97070312 C-5.26411237 7.94003067 -2.66111964 3.95454756 0 0 Z " fill="#F3F9F5" transform="translate(230,34)"/>
<path d="M0 0 C2 2 2 2 2 5 C-2.455 6.485 -2.455 6.485 -7 8 C-7 10.31 -7 12.62 -7 15 C-5.948125 14.649375 -4.89625 14.29875 -3.8125 13.9375 C-0.2045319 13.05029473 1.52632489 12.94737118 5 14 C5 15.32 5 16.64 5 18 C1.7 18.66 -1.6 19.32 -5 20 C-4.34 22.31 -3.68 24.62 -3 27 C0.96 26.67 4.92 26.34 9 26 C9.33 27.65 9.66 29.3 10 31 C7.37569876 31.6695256 4.75063343 32.33573718 2.125 33 C1.37863281 33.19078125 0.63226563 33.3815625 -0.13671875 33.578125 C-5.7734375 35 -5.7734375 35 -8 35 C-8.32613281 33.81664062 -8.65226563 32.63328125 -8.98828125 31.4140625 C-9.42946911 29.81764796 -9.87089055 28.22129797 -10.3125 26.625 C-10.5396167 25.80314209 -10.7667334 24.98128418 -11.00073242 24.13452148 C-12.42277274 19.01103104 -13.90235991 13.91360184 -15.51953125 8.84765625 C-16 7 -16 7 -16 4 C-13.37818175 3.27735761 -10.75376008 2.57150908 -8.125 1.875 C-7.37863281 1.66746094 -6.63226563 1.45992188 -5.86328125 1.24609375 C-3.93009221 0.74102634 -1.96511283 0.36144781 0 0 Z " fill="#F2F8F4" transform="translate(197,267)"/>
<path d="M0 0 C0.6695256 2.62430124 1.33573718 5.24936657 2 7.875 C2.19078125 8.62136719 2.3815625 9.36773437 2.578125 10.13671875 C4 15.7734375 4 15.7734375 4 18 C0.14732214 18.98508778 -3.70738394 19.96200161 -7.5625 20.9375 C-9.19155273 21.35418945 -9.19155273 21.35418945 -10.85351562 21.77929688 C-16.22658426 23.13481267 -21.49105699 24.37560043 -27 25 C-27.67155349 22.73050898 -28.3373963 20.4596039 -29 18.1875 C-29.37125 16.92292969 -29.7425 15.65835938 -30.125 14.35546875 C-31 11 -31 11 -31 8 C-29.35 7.67 -27.7 7.34 -26 7 C-24.5783681 10.3171411 -23.60990891 13.44219804 -23 17 C-21.02 16.34 -19.04 15.68 -17 15 C-17.33 12.03 -17.66 9.06 -18 6 C-16.35 5.67 -14.7 5.34 -13 5 C-12.34 7.64 -11.68 10.28 -11 13 C-8.36 13 -5.72 13 -3 13 C-3.99 9.04 -4.98 5.08 -6 1 C-3 0 -3 0 0 0 Z " fill="#F2F8F4" transform="translate(49,180)"/>
<path d="M0 0 C2.85215083 2.75118973 5.34358701 5.60315225 7.75 8.75 C8.36359375 9.54921875 8.9771875 10.3484375 9.609375 11.171875 C10.29773438 12.07679688 10.29773438 12.07679688 11 13 C9.56031033 16.4843629 7.84588136 18.16638826 4.82421875 20.3828125 C3.99599609 20.99253906 3.16777344 21.60226563 2.31445312 22.23046875 C1.44755859 22.85566406 0.58066406 23.48085937 -0.3125 24.125 C-1.16779297 24.75792969 -2.02308594 25.39085937 -2.90429688 26.04296875 C-6.85496673 28.92564188 -10.37689995 31.31878002 -15 33 C-16.50894379 31.06891122 -18.00711534 29.13093994 -19.5 27.1875 C-19.92925781 26.64029297 -20.35851563 26.09308594 -20.80078125 25.52929688 C-24 21.33984375 -24 21.33984375 -24 18 C-22.68 17.34 -21.36 16.68 -20 16 C-18.02 18.64 -16.04 21.28 -14 24 C-12.35 23.01 -10.7 22.02 -9 21 C-9.66 19.906875 -10.32 18.81375 -11 17.6875 C-12.58464929 15.06292462 -13 14.1743622 -13 11 C-11.68 10.67 -10.36 10.34 -9 10 C-7.35 11.98 -5.7 13.96 -4 16 C-0.27385847 14.88145414 -0.27385847 14.88145414 2 12 C0.02 9.03 -1.96 6.06 -4 3 C-2.68 2.01 -1.36 1.02 0 0 Z " fill="#F4FAF7" transform="translate(63,219)"/>
<path d="M0 0 C2.08473947 0.45189439 4.16775036 0.91176825 6.25 1.375 C7.41015625 1.63023437 8.5703125 1.88546875 9.765625 2.1484375 C12.46052401 2.85796405 14.59525832 3.63096389 17 5 C16.67 6.65 16.34 8.3 16 10 C12.7 9.34 9.4 8.68 6 8 C5.34 9.98 4.68 11.96 4 14 C6.97 14.99 9.94 15.98 13 17 C12.67 18.65 12.34 20.3 12 22 C10.54096742 21.69078116 9.08279278 21.37751201 7.625 21.0625 C6.40683594 20.80146484 6.40683594 20.80146484 5.1640625 20.53515625 C3 20 3 20 1 19 C0.87625 19.845625 0.7525 20.69125 0.625 21.5625 C-0.02770327 25.15236798 -0.95247463 28.50824875 -2 32 C-3.65 31.67 -5.3 31.34 -7 31 C-8.22171903 26.71879196 -7.69422961 24.02967092 -6.34765625 19.82421875 C-5.98349609 18.66728516 -5.61933594 17.51035156 -5.24414062 16.31835938 C-4.85419922 15.12017578 -4.46425781 13.92199219 -4.0625 12.6875 C-3.48338867 10.8612207 -3.48338867 10.8612207 -2.89257812 8.99804688 C-1.93873898 5.99521992 -0.97423596 2.99625905 0 0 Z " fill="#F0F7F3" transform="translate(118,266)"/>
<path d="M0 0 C0.67401855 0.20278564 1.34803711 0.40557129 2.04248047 0.61450195 C2.93338379 0.88222412 3.82428711 1.14994629 4.7421875 1.42578125 C5.62245605 1.69044189 6.50272461 1.95510254 7.40966797 2.2277832 C10.59922427 3.17863774 13.79720228 4.09486151 17 5 C16.67 6.65 16.34 8.3 16 10 C7.42857143 9 7.42857143 9 4 8 C4 9.98 4 11.96 4 14 C6.64 14.99 9.28 15.98 12 17 C11.67 18.65 11.34 20.3 11 22 C7.25212088 21.49547781 3.67363066 20.91840767 0 20 C-0.99 23.96 -1.98 27.92 -3 32 C-4.98 31.67 -6.96 31.34 -9 31 C-10 29 -10 29 -9.19555664 26.11083984 C-8.77137451 24.90637207 -8.34719238 23.7019043 -7.91015625 22.4609375 C-7.68678085 21.82008209 -7.46340546 21.17922668 -7.23326111 20.51895142 C-6.51670817 18.4684221 -5.7897508 16.42175661 -5.0625 14.375 C-4.57548326 12.98722063 -4.08914631 11.5992025 -3.60351562 10.2109375 C-2.4102257 6.8044837 -1.20757645 3.40141926 0 0 Z " fill="#F1F8F4" transform="translate(197,20)"/>
<path d="M0 0 C0.1451001 0.56396484 0.2902002 1.12792969 0.43969727 1.70898438 C3.85954543 16.43974222 3.85954543 16.43974222 13 28 C12.34 29.32 11.68 30.64 11 32 C7 32 7 32 5.64404297 30.65991211 C5.22268066 30.05928955 4.80131836 29.45866699 4.3671875 28.83984375 C0.70889166 24.27100292 -3.68632471 22.09823062 -8.875 19.5625 C-9.75414063 19.11712891 -10.63328125 18.67175781 -11.5390625 18.21289062 C-13.68608406 17.12771125 -15.83918624 16.05737185 -18 15 C-16.35 13.35 -14.7 11.7 -13 10 C-9.7 11.65 -6.4 13.3 -3 15 C-3.7734375 13.14375 -3.7734375 13.14375 -4.5625 11.25 C-5.88940024 8.06543942 -6.20662043 6.27313129 -5 3 C-2.53571429 0 -2.53571429 0 0 0 Z " fill="#F2F8F5" transform="translate(76,42)"/>
<path d="M0 0 C1.65 0 3.3 0 5 0 C5.33 1.98 5.66 3.96 6 6 C6.78761719 5.9278125 7.57523438 5.855625 8.38671875 5.78125 C16.27957154 5.1087229 24.08058786 4.88334745 32 5 C32 6.98 32 8.96 32 11 C29.33397504 11.33931227 26.66736986 11.67157176 24 12 C23.25621094 12.09539062 22.51242188 12.19078125 21.74609375 12.2890625 C16.79111949 12.89227676 11.99157504 13.09075591 7 13 C7 15.31 7 17.62 7 20 C5.35 20 3.7 20 2 20 C0.74158054 13.25846717 -0.26404456 6.86515862 0 0 Z " fill="#F1F8F4" transform="translate(15,162)"/>
<path d="M0 0 C5.65204156 1.93213209 10.40104626 5.32360604 15.38085938 8.54296875 C16.07373047 8.98511719 16.76660156 9.42726563 17.48046875 9.8828125 C18.10848389 10.28902832 18.73649902 10.69524414 19.38354492 11.11376953 C20.98504428 12.16024798 20.98504428 12.16024798 23 12 C24.36277086 10.21034453 24.36277086 10.21034453 25.625 8 C26.07101563 7.2575 26.51703125 6.515 26.9765625 5.75 C27.31429687 5.1725 27.65203125 4.595 28 4 C30.475 4.99 30.475 4.99 33 6 C31.61219205 9.89006773 29.7847773 12.96558708 27.375 16.3125 C26.74335937 17.19550781 26.11171875 18.07851562 25.4609375 18.98828125 C24.73777344 19.98408203 24.73777344 19.98408203 24 21 C17.81029362 19.43974234 12.94368349 15.97397934 7.6875 12.5 C6.30981445 11.60861328 6.30981445 11.60861328 4.90429688 10.69921875 C-1.86767256 6.26465488 -1.86767256 6.26465488 -3 4 C-2.01 2.68 -1.02 1.36 0 0 Z " fill="#F2F8F5" transform="translate(36,85)"/>
<path d="M0 0 C3.14876728 0.45721826 4.81630494 1.44237622 7.05859375 3.65234375 C7.88520508 4.44608398 7.88520508 4.44608398 8.72851562 5.25585938 C9.57446289 6.08827148 9.57446289 6.08827148 10.4375 6.9375 C15.52783396 12.00913688 15.52783396 12.00913688 22 15 C23.65 13.02 25.3 11.04 27 9 C28.32 9.33 29.64 9.66 31 10 C31 14.91730642 29.22297284 16.43120905 26 19.75 C25.52304688 20.25660156 25.04609375 20.76320313 24.5546875 21.28515625 C23.37860126 22.53180766 22.19043826 23.76704609 21 25 C14.75244237 20.62670966 9.26956427 15.6465625 3.74951172 10.4074707 C3.16443848 9.85406006 2.57936523 9.30064941 1.9765625 8.73046875 C1.18886475 7.97866333 1.18886475 7.97866333 0.38525391 7.21166992 C-1.006161 5.89181415 -1.006161 5.89181415 -3 5 C-1.125 1.125 -1.125 1.125 0 0 Z " fill="#F3F9F6" transform="translate(49,66)"/>
<path d="M0 0 C10.56 0 21.12 0 32 0 C32 2.31 32 4.62 32 7 C9.19872014 7.20638953 9.19872014 7.20638953 0 6 C0 4.02 0 2.04 0 0 Z " fill="#EDF6F0" transform="translate(15,151)"/>
<path d="M0 0 C1.98 0.66 3.96 1.32 6 2 C5.37143878 5.91834435 4.16760882 9.14548449 2.49609375 12.73828125 C2.00302734 13.80498047 1.50996094 14.87167969 1.00195312 15.97070312 C0.48568359 17.07349609 -0.03058594 18.17628906 -0.5625 19.3125 C-1.08263672 20.43462891 -1.60277344 21.55675781 -2.13867188 22.71289062 C-3.42099374 25.47752951 -4.70824847 28.23975766 -6 31 C-7.65 30.67 -9.3 30.34 -11 30 C-12.1370065 27.20030606 -12.02253211 26.06478468 -11.01196289 23.15917969 C-10.5039917 22.09086914 -9.99602051 21.02255859 -9.47265625 19.921875 C-8.92802734 18.76171875 -8.38339844 17.6015625 -7.82226562 16.40625 C-7.23592948 15.18737855 -6.64933765 13.96863007 -6.0625 12.75 C-5.4787435 11.51613265 -4.89604847 10.2817625 -4.31445312 9.046875 C-2.88668121 6.02613442 -1.4482183 3.01097779 0 0 Z " fill="#F2F8F5" transform="translate(218,28)"/>
<path d="M0 0 C6.04476527 1.79486204 11.66175847 4.49322293 17.375 7.125 C18.39722656 7.59292969 19.41945313 8.06085938 20.47265625 8.54296875 C22.98303821 9.69258292 25.49209231 10.84500064 28 12 C27.67 13.98 27.34 15.96 27 18 C20.66156102 17.12951718 15.47524969 14.80942938 9.6875 12.1875 C8.67365234 11.74857422 7.65980469 11.30964844 6.61523438 10.85742188 C5.65294922 10.42365234 4.69066406 9.98988281 3.69921875 9.54296875 C2.82096436 9.15133545 1.94270996 8.75970215 1.0378418 8.35620117 C-1 7 -1 7 -1.91870117 5.02856445 C-2 3 -2 3 0 0 Z " fill="#F3F9F5" transform="translate(263,204)"/>
<path d="M0 0 C3.71317907 1.14770989 5.2692056 1.85342428 7.4375 5.0625 C8 8 8 8 7.4375 11.0625 C4.98155875 14.38524404 3.5118356 15.83868008 -0.5625 16.6875 C-4.6368356 15.83868008 -6.10655875 14.38524404 -8.5625 11.0625 C-9.1875 8.0625 -9.1875 8.0625 -8.5625 5.0625 C-5.88937913 1.25532785 -4.71546409 0.08272744 0 0 Z " fill="#F3F9F5" transform="translate(97.5625,264.9375)"/>
<path d="M0 0 C2.875 1.5625 2.875 1.5625 5 4 C5.625 7.4375 5.625 7.4375 5 11 C2.52506641 14.42123173 1.11736219 15.79477021 -3.0625 16.5625 C-6 16 -6 16 -8.375 14.5 C-10.65416433 10.99359333 -10.81753559 8.07099353 -10 4 C-7.30203057 -0.15072221 -4.80768487 -0.78492814 0 0 Z " fill="#F5FAF7" transform="translate(221,267)"/>
<path d="M0 0 C2.97 0.495 2.97 0.495 6 1 C4.87791788 11.16474394 3.33636384 21.03151427 1 31 C-0.66611905 31.042721 -2.33382885 31.04063832 -4 31 C-5 30 -5 30 -5.01953125 27.91015625 C-4.32629636 18.37490648 -2.21534487 9.27353666 0 0 Z " fill="#F6FAF8" transform="translate(184,18)"/>
<path d="M0 0 C0.33 1.65 0.66 3.3 1 5 C-3.70561656 9.33412052 -8.87852021 12.96274048 -15 15 C-17.80859375 14.6328125 -17.80859375 14.6328125 -20 14 C-20.2265625 11.6953125 -20.2265625 11.6953125 -20 9 C-14.92306712 3.40764246 -7.5513233 -0.53938024 0 0 Z " fill="#09863E" transform="translate(281,89)"/>
<path d="M0 0 C1.2065625 0.0309375 1.2065625 0.0309375 2.4375 0.0625 C6.48404428 6.97534647 5.70651851 14.32074503 5.4375 22.0625 C3.7875 22.3925 2.1375 22.7225 0.4375 23.0625 C-3.70979549 18.19393573 -3.70159527 13.54261033 -3.6875 7.3125 C-3.69007813 6.16265625 -3.69265625 5.0128125 -3.6953125 3.828125 C-3.51559374 0.08574619 -3.51559374 0.08574619 0 0 Z " fill="#08863D" transform="translate(139.5625,20.9375)"/>
<path d="M0 0 C1.32 0.66 2.64 1.32 4 2 C4.36032312 5.72879837 4.29542152 7.53979892 2.2421875 10.73828125 C1.07042969 12.01251953 1.07042969 12.01251953 -0.125 13.3125 C-0.89070312 14.17488281 -1.65640625 15.03726563 -2.4453125 15.92578125 C-5.4153724 18.3372519 -7.1991769 18.8918465 -11 19 C-11.99 18.34 -12.98 17.68 -14 17 C-12.70396588 14.17131143 -11.30810402 12.0298979 -9.1796875 9.765625 C-8.64472656 9.19199219 -8.10976562 8.61835937 -7.55859375 8.02734375 C-7.00300781 7.44082031 -6.44742188 6.85429688 -5.875 6.25 C-5.31167969 5.64800781 -4.74835938 5.04601563 -4.16796875 4.42578125 C-2.78275854 2.94665849 -1.3919271 1.47280359 0 0 Z " fill="#0B873F" transform="translate(252,56)"/>
<path d="M0 0 C2.375 -0.125 2.375 -0.125 5 0 C7.61815739 2.61815739 7.26112488 4.50468338 7.2734375 8.07226562 C7.26570312 8.85279297 7.25796875 9.63332031 7.25 10.4375 C7.25773438 11.21416016 7.26546875 11.99082031 7.2734375 12.79101562 C7.25996806 16.70052168 7.21368645 18.67947032 5 22 C1.875 22.1875 1.875 22.1875 -1 22 C-1.02716824 19.45826023 -1.04691969 16.91681585 -1.0625 14.375 C-1.07087891 13.66214844 -1.07925781 12.94929688 -1.08789062 12.21484375 C-1.10710296 8.02655562 -0.8267327 4.1271538 0 0 Z " fill="#0B8740" transform="translate(163,20)"/>
<path d="M0 0 C2.375 -0.125 2.375 -0.125 5 0 C7 2 7 2 7.25 4.5 C7 7 7 7 5 9 C1.875 9.125 1.875 9.125 -1 9 C-0.67 6.03 -0.34 3.06 0 0 Z " fill="#118A44" transform="translate(143,277)"/>
<path d="M0 0 C0.125 2.375 0.125 2.375 0 5 C-2 7 -2 7 -4.5 7.25 C-7 7 -7 7 -9 5 C-9 3.68 -9 2.36 -9 1 C-5.57367167 -0.61798838 -3.61944899 -1.34053666 0 0 Z " fill="#0B8740" transform="translate(292,114)"/>
<path d="M0 0 C4.29 0.66 8.58 1.32 13 2 C12.67 3.98 12.34 5.96 12 8 C7.44328408 6.48109469 3.68276708 4.04597738 0 1 C0 0.67 0 0.34 0 0 Z " fill="#1F914F" transform="translate(31,109)"/>
<path d="M0 0 C4.19469571 0.59924224 8.00999834 1.57499941 12 3 C12 3.33 12 3.66 12 4 C7.9472484 4.98248524 4.16138263 5.08159574 0 5 C0 3.35 0 1.7 0 0 Z " fill="#0C8840" transform="translate(284,167)"/>
<path d="M0 0 C1.98 0 3.96 0 6 0 C6 0.99 6 1.98 6 3 C4.35 2.67 2.7 2.34 1 2 C1 3.98 1 5.96 1 8 C0.67 8 0.34 8 0 8 C0 5.36 0 2.72 0 0 Z " fill="#60B182" transform="translate(272,155)"/>
</svg>
