<?xml version="1.0" encoding="UTF-8"?>
<svg version="1.1" xmlns="http://www.w3.org/2000/svg" width="319" height="319">
<path d="M0 0 C0.78567352 -0.00067474 1.57134705 -0.00134949 2.38082886 -0.00204468 C13.90065593 0.01369179 24.90450547 0.43309305 36.125 3.25 C36.84284668 3.41628906 37.56069336 3.58257812 38.30029297 3.75390625 C50.21788878 6.53682592 61.14837758 10.88097261 72.125 16.25 C73.14086182 16.7435498 73.14086182 16.7435498 74.17724609 17.24707031 C83.23072304 21.70163856 91.27382109 26.86190167 99.125 33.25 C99.94145996 33.91418945 99.94145996 33.91418945 100.77441406 34.59179688 C133.21310853 61.130855 154.8450641 98.17398948 159.91705322 140.133255 C160.53533312 146.42688885 160.37013986 152.804599 160.375 159.125 C160.37567474 159.91067352 160.37634949 160.69634705 160.37704468 161.50582886 C160.36130821 173.02565593 159.94190695 184.02950547 157.125 195.25 C156.95871094 195.96784668 156.79242188 196.68569336 156.62109375 197.42529297 C153.83817408 209.34288878 149.49402739 220.27337758 144.125 231.25 C143.7959668 231.92724121 143.46693359 232.60448242 143.12792969 233.30224609 C138.67336144 242.35572304 133.51309833 250.39882109 127.125 258.25 C126.68220703 258.79430664 126.23941406 259.33861328 125.78320312 259.89941406 C99.244145 292.33810853 62.20101052 313.9700641 20.241745 319.04205322 C13.94811115 319.66033312 7.570401 319.49513986 1.25 319.5 C0.46432648 319.50067474 -0.32134705 319.50134949 -1.13082886 319.50204468 C-12.65065593 319.48630821 -23.65450547 319.06690695 -34.875 316.25 C-35.59284668 316.08371094 -36.31069336 315.91742188 -37.05029297 315.74609375 C-65.10084315 309.19591122 -89.64619964 294.41970379 -110.875 275.25 C-111.62523437 274.57324219 -112.37546875 273.89648438 -113.1484375 273.19921875 C-139.28883138 248.28582295 -157.52000095 209.50308348 -159.03613281 173.41455078 C-159.08211851 169.06783307 -159.12165736 164.72196532 -159.125 160.375 C-159.12567474 159.58932648 -159.12634949 158.80365295 -159.12704468 157.99417114 C-159.11130821 146.47434407 -158.69190695 135.47049453 -155.875 124.25 C-155.62556641 123.17322998 -155.62556641 123.17322998 -155.37109375 122.07470703 C-148.82091122 94.02415685 -134.04470379 69.47880036 -114.875 48.25 C-114.19824219 47.49976563 -113.52148438 46.74953125 -112.82421875 45.9765625 C-83.77649205 15.49821971 -41.43748011 0.03186377 0 0 Z M-62.875 83.25 C-63.69742188 83.93964844 -64.51984375 84.62929687 -65.3671875 85.33984375 C-85.00756435 102.32369546 -96.23334046 126.59542178 -98.875 152.25 C-100.39783598 177.9624998 -92.7839419 203.5523182 -75.875 223.25 C-74.84052734 224.48363281 -74.84052734 224.48363281 -73.78515625 225.7421875 C-56.80130454 245.38256435 -32.52957822 256.60834046 -6.875 259.25 C18.8374998 260.77283598 44.4273182 253.1589419 64.125 236.25 C64.94742188 235.56035156 65.76984375 234.87070313 66.6171875 234.16015625 C86.25756435 217.17630454 97.48334046 192.90457822 100.125 167.25 C101.76128903 139.62188906 92.64156301 113.85454755 74.60302734 92.90039062 C56.65815266 72.86283647 31.19373572 61.68237248 4.5390625 60.02734375 C-19.95803359 59.42666869 -44.16017097 67.18476146 -62.875 83.25 Z " fill="#D83846" transform="translate(158.875,-0.24999999999999997)"/>
<path d="M0 0 C8.58 0 17.16 0 26 0 C26.42152344 2.29839844 26.84304687 4.59679687 27.27734375 6.96484375 C27.68680236 9.18238597 28.09760706 11.39967484 28.50854492 13.61694336 C28.79413592 15.16193054 29.0783196 16.70717854 29.36108398 18.25268555 C29.76699904 20.46993435 30.1779121 22.68620592 30.58984375 24.90234375 C30.71592514 25.5971434 30.84200653 26.29194305 30.97190857 27.00779724 C31.37052423 30.28566746 31.37052423 30.28566746 33 33 C33.26478149 31.55379272 33.26478149 31.55379272 33.53491211 30.07836914 C34.18883665 26.51252977 34.84789919 22.94765636 35.50854492 19.38305664 C35.79413592 17.83806946 36.0783196 16.29282146 36.36108398 14.74731445 C36.76699904 12.53006565 37.1779121 10.31379408 37.58984375 8.09765625 C37.77896584 7.05545677 37.77896584 7.05545677 37.97190857 5.99220276 C38.88612829 1.11387171 38.88612829 1.11387171 40 0 C48.25 0 56.5 0 65 0 C65 22.77 65 45.54 65 69 C59.39 69 53.78 69 48 69 C47.67 56.13 47.34 43.26 47 30 C44.7370352 42.4600376 44.7370352 42.4600376 42.48266602 54.92163086 C42.19839234 56.47775902 41.91382605 58.03383376 41.62890625 59.58984375 C41.48287964 60.40521606 41.33685303 61.22058838 41.18640137 62.06066895 C40.1140718 67.8859282 40.1140718 67.8859282 39 69 C36.81360547 69.07258946 34.62499611 69.08373783 32.4375 69.0625 C31.23996094 69.05347656 30.04242188 69.04445313 28.80859375 69.03515625 C27.41833984 69.01775391 27.41833984 69.01775391 26 69 C25.22628765 65.33393506 24.4566074 61.66703354 23.6875 58 C23.47416016 56.989375 23.26082031 55.97875 23.04101562 54.9375 C21.2343961 46.30886943 19.62579539 37.67090874 18 29 C17.67 42.2 17.34 55.4 17 69 C11.39 69 5.78 69 0 69 C0 46.23 0 23.46 0 0 Z " fill="#004998" transform="translate(127,125)"/>
<path d="M0 0 C4.14005923 3.65136627 6.88336033 7.52846561 8 13 C8 15.64 8 18.28 8 21 C2.06 21 -3.88 21 -10 21 C-10.66 17.7 -11.32 14.4 -12 11 C-13.65 11 -15.3 11 -17 11 C-18.7459919 15.53229675 -19.25673048 19.31000513 -19.265625 24.15625 C-19.26753845 24.82160767 -19.2694519 25.48696533 -19.27142334 26.17248535 C-19.27277655 27.57088604 -19.26914084 28.96929966 -19.26074219 30.36767578 C-19.2500297 32.49410529 -19.26066631 34.61969016 -19.2734375 36.74609375 C-19.27211575 38.11198101 -19.26955304 39.47786775 -19.265625 40.84375 C-19.26336914 42.07287109 -19.26111328 43.30199219 -19.25878906 44.56835938 C-18.99812512 48.02486159 -18.24158621 50.77705427 -17 54 C-15.35 54 -13.7 54 -12 54 C-11.01 50.04 -10.02 46.08 -9 42 C-10.98 42 -12.96 42 -15 42 C-15 37.71 -15 33.42 -15 29 C-7.41 29 0.18 29 8 29 C8 41.54 8 54.08 8 67 C4.04 67 0.08 67 -4 67 C-4.66 66.01 -5.32 65.02 -6 64 C-7.670625 64.99 -7.670625 64.99 -9.375 66 C-14.82564773 68.71085312 -20.1691192 69.0142713 -26.05078125 67.45703125 C-31.3801586 65.39146958 -34.13054743 62.70670319 -36.6875 57.6875 C-39.40764328 50.04519269 -39.21324845 42.34730816 -39.25 34.3125 C-39.270625 33.20455078 -39.29125 32.09660156 -39.3125 30.95507812 C-39.35814882 21.19193727 -38.5663228 10.72508565 -32 3 C-24.34436473 -4.65563527 -9.19678737 -5.71529018 0 0 Z " fill="#004998" transform="translate(117,127)"/>
<path d="M0 0 C4.87436991 -0.22329729 9.74573961 -0.38613882 14.62402344 -0.49438477 C16.28112654 -0.53951672 17.93787369 -0.60084462 19.59375 -0.67895508 C33.38971838 -1.31320483 33.38971838 -1.31320483 37.31982422 1.8918457 C38.83411804 4.20322386 39.93090036 6.45765574 41 9 C47.29449712 16.62280355 55.03840759 21.81192017 65 23 C75.0827802 23.14707459 82.83246287 19.66843274 90.14453125 12.8671875 C94.16670844 8.81960708 97.43627271 5.12745457 100 0 C111.55 0 123.1 0 135 0 C122.47576567 18.78635149 105.19847196 30.36001864 83 35 C59.94834663 38.88266953 37.63950052 33.720931 18.60742188 20.18945312 C11.31244321 14.79134619 5.07975231 8.53552661 0 1 C0 0.67 0 0.34 0 0 Z " fill="#014998" transform="translate(92,205)"/>
<path d="M0 0 C7.01539256 5.69885564 12.18587128 11.38645232 17 19 C12.12563009 19.22329729 7.25426039 19.38613882 2.37597656 19.49438477 C0.71887346 19.53951672 -0.93787369 19.60084462 -2.59375 19.67895508 C-16.38971838 20.31320483 -16.38971838 20.31320483 -20.31982422 17.1081543 C-21.83411804 14.79677614 -22.93090036 12.54234426 -24 10 C-30.29449712 2.37719645 -38.03840759 -2.81192017 -48 -4 C-58.0827802 -4.14707459 -65.83246287 -0.66843274 -73.14453125 6.1328125 C-77.16670844 10.18039292 -80.43627271 13.87254543 -83 19 C-94.55 19 -106.1 19 -118 19 C-105.47576567 0.21364851 -88.19847196 -11.36001864 -66 -16 C-42.46590291 -19.96392919 -18.94093947 -14.60787524 0 0 Z " fill="#014998" transform="translate(210,95)"/>
<path d="M0 0 C1.89588867 -0.01836914 1.89588867 -0.01836914 3.83007812 -0.03710938 C21.1030281 -0.06419712 21.1030281 -0.06419712 27.9609375 6.43359375 C32.42125063 11.73169057 32.94773605 17.77647347 32.71484375 24.51171875 C32.10490388 30.39634988 30.55931759 34.48541168 26.1875 38.5625 C19.20521398 43.91558595 13.39738008 43.1875 4.4375 43.1875 C4.4375 51.7675 4.4375 60.3475 4.4375 69.1875 C1.488125 69.208125 -1.46125 69.22875 -4.5 69.25 C-5.89593384 69.26365601 -5.89593384 69.26365601 -7.32006836 69.27758789 C-8.41266968 69.28133423 -8.41266968 69.28133423 -9.52734375 69.28515625 C-10.2762085 69.29039307 -11.02507324 69.29562988 -11.79663086 69.30102539 C-13.5625 69.1875 -13.5625 69.1875 -14.5625 68.1875 C-14.66193972 66.10674591 -14.69049596 64.02258152 -14.69189453 61.93945312 C-14.69364685 61.28742416 -14.69539917 60.6353952 -14.69720459 59.96360779 C-14.70162204 57.79862847 -14.69868551 55.63373021 -14.6953125 53.46875 C-14.69598557 51.97041813 -14.69695562 50.47208637 -14.69821167 48.97375488 C-14.6996885 45.82966067 -14.69753458 42.68559483 -14.69287109 39.54150391 C-14.6871738 35.50263461 -14.69045289 31.46383176 -14.69644356 27.4249649 C-14.70004958 24.3298492 -14.69891039 21.23474935 -14.69631577 18.13963318 C-14.69564661 16.65001925 -14.69647452 15.1604039 -14.69879532 13.67079163 C-14.70132253 11.59233765 -14.69748033 9.51399269 -14.69189453 7.43554688 C-14.69109894 6.25053589 -14.69030334 5.0655249 -14.68948364 3.84460449 C-14.38255284 -2.57785439 -4.91965281 0.00245614 0 0 Z M4.4375 14.1875 C4.4375 19.1375 4.4375 24.0875 4.4375 29.1875 C10.07606256 29.8276844 10.07606256 29.8276844 12.3125 27.625 C13.87391373 24.24193692 13.89798843 21.87140741 13.4375 18.1875 C11.89464369 15.64418762 11.89464369 15.64418762 9.4375 14.1875 C7.7875 14.1875 6.1375 14.1875 4.4375 14.1875 Z " fill="#004998" transform="translate(208.5625,124.8125)"/>
<path d="M0 0 C1.4540625 0.0309375 1.4540625 0.0309375 2.9375 0.0625 C4.50277985 3.68475542 5.47239076 7.14943944 6.2265625 11.01953125 C6.44570312 12.13134766 6.66484375 13.24316406 6.890625 14.38867188 C7.11234375 15.53916016 7.3340625 16.68964844 7.5625 17.875 C7.79195313 19.04482422 8.02140625 20.21464844 8.2578125 21.41992188 C8.82206494 24.29996039 9.3818005 27.18080115 9.9375 30.0625 C4.76493745 32.06099008 4.76493745 32.06099008 1.796875 32.06640625 C-2.6012098 29.69181005 -4.8029136 23.19059054 -7.0625 19.0625 C-6.0725 24.0125 -5.0825 28.9625 -4.0625 34.0625 C-11.2578125 35.86132812 -11.2578125 35.86132812 -18.453125 37.66015625 C-18.98421875 37.79292969 -19.5153125 37.92570312 -20.0625 38.0625 C-20.7225 36.7425 -21.3825 35.4225 -22.0625 34.0625 C-23.7125 34.7225 -25.3625 35.3825 -27.0625 36.0625 C-27.0625 38.0425 -27.0625 40.0225 -27.0625 42.0625 C-27.76117188 42.40023437 -28.45984375 42.73796875 -29.1796875 43.0859375 C-30.08976562 43.53195313 -30.99984375 43.97796875 -31.9375 44.4375 C-32.84242187 44.87835938 -33.74734375 45.31921875 -34.6796875 45.7734375 C-37.15784472 46.96752699 -37.15784472 46.96752699 -39.0625 49.0625 C-40.0525 49.0625 -41.0425 49.0625 -42.0625 49.0625 C-43.92062283 46.93224265 -45.59143524 44.8385903 -47.25 42.5625 C-47.71341797 41.94246094 -48.17683594 41.32242188 -48.65429688 40.68359375 C-49.7989137 39.14957119 -50.93182941 37.60683057 -52.0625 36.0625 C-51.5571875 37.02671875 -51.051875 37.9909375 -50.53125 38.984375 C-49.8745761 40.26019857 -49.21834945 41.53625242 -48.5625 42.8125 C-48.22863281 43.44671875 -47.89476563 44.0809375 -47.55078125 44.734375 C-45.79074467 48.18260993 -45.0625 50.11090069 -45.0625 54.0625 C-46.7125 54.7225 -48.3625 55.3825 -50.0625 56.0625 C-54.3525 52.1025 -58.6425 48.1425 -63.0625 44.0625 C-62.175625 45.238125 -61.28875 46.41375 -60.375 47.625 C-57.54436164 51.39694328 -54.7883259 55.2142752 -52.0625 59.0625 C-53.7125 60.3825 -55.3625 61.7025 -57.0625 63.0625 C-60.24896613 61.68892659 -62.03862262 60.21434584 -64.19140625 57.5078125 C-64.75150391 56.81042969 -65.31160156 56.11304688 -65.88867188 55.39453125 C-66.46166016 54.66621094 -67.03464844 53.93789062 -67.625 53.1875 C-68.20185547 52.46691406 -68.77871094 51.74632812 -69.37304688 51.00390625 C-70.94746988 49.03179163 -72.5134916 47.05463334 -74.0625 45.0625 C-74.61800537 44.36366699 -75.17351074 43.66483398 -75.74584961 42.94482422 C-77.0625 41.0625 -77.0625 41.0625 -77.125 39.125 C-75.46898187 35.91037657 -72.91987733 34.25112944 -70.0625 32.0625 C-64.65760481 33.58262677 -61.07757372 37.33635218 -57.0625 41.0625 C-57.51882812 40.24265625 -57.97515625 39.4228125 -58.4453125 38.578125 C-59.02023438 37.50046875 -59.59515625 36.4228125 -60.1875 35.3125 C-60.76757812 34.24515625 -61.34765625 33.1778125 -61.9453125 32.078125 C-63.0625 29.0625 -63.0625 29.0625 -62.46875 26.84375 C-60.9435298 24.91180441 -59.48291372 23.67610915 -57.4375 22.3125 C-56.80585937 21.88453125 -56.17421875 21.4565625 -55.5234375 21.015625 C-55.04132813 20.70109375 -54.55921875 20.3865625 -54.0625 20.0625 C-48.26026061 26.96214482 -42.5307362 33.89223001 -37.0625 41.0625 C-37.67704317 34.05670781 -38.97791533 27.28727301 -40.44140625 20.41796875 C-41.0625 17.0625 -41.0625 17.0625 -41.0625 13.0625 C-39.77336513 12.39095067 -38.48109796 11.72541141 -37.1875 11.0625 C-36.46820313 10.69125 -35.74890625 10.32 -35.0078125 9.9375 C-33.0625 9.0625 -33.0625 9.0625 -31.0625 9.0625 C-29.41781085 11.00786358 -27.88785295 12.95570318 -26.375 15 C-25.47809045 16.1902744 -24.58095364 17.38037758 -23.68359375 18.5703125 C-23.24128418 19.16102539 -22.79897461 19.75173828 -22.34326172 20.36035156 C-20.56810006 22.71956375 -18.75499279 25.04831188 -16.9375 27.375 C-16.37804687 28.09300781 -15.81859375 28.81101562 -15.2421875 29.55078125 C-14.65824219 30.29908203 -14.65824219 30.29908203 -14.0625 31.0625 C-14.8274088 25.19283144 -15.94352445 19.42383228 -17.125 13.625 C-17.31126953 12.70267578 -17.49753906 11.78035156 -17.68945312 10.83007812 C-18.14537249 8.57386179 -18.60369151 6.31813059 -19.0625 4.0625 C-15.7625 3.4025 -12.4625 2.7425 -9.0625 2.0625 C-6.7525 6.3525 -4.4425 10.6425 -2.0625 15.0625 C-2.5575 12.9896875 -2.5575 12.9896875 -3.0625 10.875 C-3.80281778 7.54094477 -4.38426619 4.49467271 -4.0625 1.0625 C-3.0625 0.0625 -3.0625 0.0625 0 0 Z " fill="#FDF7F7" transform="translate(136.0625,16.9375)"/>
<path d="M0 0 C6.52372668 2.02533998 12.94879659 6.58197682 17.390625 11.7421875 C18.54399167 17.71872389 17.13183805 20.63382535 13.890625 25.7421875 C12.7411634 27.42076634 11.57998903 29.0916415 10.390625 30.7421875 C7.06557171 30.09180917 4.61775548 28.84414086 1.73046875 27.08984375 C0.85455078 26.56068359 -0.02136719 26.03152344 -0.92382812 25.48632812 C-1.83068359 24.93138672 -2.73753906 24.37644531 -3.671875 23.8046875 C-4.58259766 23.25361328 -5.49332031 22.70253906 -6.43164062 22.13476562 C-9.86280108 20.05381864 -13.27006949 17.96839117 -16.609375 15.7421875 C-15.97691782 12.06709848 -14.37280972 9.63986949 -12.234375 6.6171875 C-11.62851562 5.74835938 -11.02265625 4.87953125 -10.3984375 3.984375 C-7.2604466 0.05160911 -4.93720347 -0.74972349 0 0 Z " fill="#FDF8F9" transform="translate(48.609375,77.2578125)"/>
<path d="M0 0 C6.33489498 2.43007684 6.33489498 2.43007684 8.85546875 6.2109375 C9.6320862 10.95191611 9.25768054 14.43425266 7.04296875 18.7109375 C4.49261428 21.62562832 3.06163054 22.11676271 -0.74609375 22.4140625 C-8.48575483 22.53405725 -15.47678539 22.23682784 -21.64453125 17.1484375 C-24.49865001 13.46186743 -24.53163928 10.85623382 -24.14453125 6.2109375 C-19.04381322 -2.97035496 -9.49722213 -2.38315388 0 0 Z " fill="#FDF7F7" transform="translate(40.14453125,128.7890625)"/>
<path d="M0 0 C9.40181727 3.75611817 9.40181727 3.75611817 12.8125 8.0234375 C13.72129332 11.69870461 13.53937201 15.45235092 11.94140625 18.90625 C10.7201402 20.75827984 9.38378322 22.45215428 7.8125 24.0234375 C-1.3289478 25.03546711 -8.72082336 23.12276415 -16.25 17.8984375 C-19.05259782 15.18624606 -19.16569783 14.28506358 -19.5 10.2734375 C-19.46016563 5.899624 -17.99377251 3.407472 -15.1875 0.0234375 C-10.47493953 -2.33284274 -4.87544876 -1.49370366 0 0 Z " fill="#FDF9F9" transform="translate(42.1875,102.9765625)"/>
<path d="M0 0 C1.20546193 4.22425683 2.3861943 8.45504006 3.5625 12.6875 C4.07586914 14.48477539 4.07586914 14.48477539 4.59960938 16.31835938 C4.91865234 17.47529297 5.23769531 18.63222656 5.56640625 19.82421875 C5.86490479 20.88729248 6.16340332 21.95036621 6.47094727 23.0456543 C7.01435475 26.08016005 6.82142309 28.05478157 6 31 C3.03 31.495 3.03 31.495 0 32 C-2.25374117 26.23676746 -4.07763927 20.47253467 -5.6875 14.5 C-5.91244141 13.67757813 -6.13738281 12.85515625 -6.36914062 12.0078125 C-6.91611425 10.00612177 -7.45853969 8.00318912 -8 6 C-8.33 7.32 -8.66 8.64 -9 10 C-10.65 10 -12.3 10 -14 10 C-13.90912109 10.61520508 -13.81824219 11.23041016 -13.72460938 11.86425781 C-13.31345112 14.65907971 -12.90668141 17.45452331 -12.5 20.25 C-12.35691406 21.21808594 -12.21382812 22.18617188 -12.06640625 23.18359375 C-11.93105469 24.11816406 -11.79570312 25.05273438 -11.65625 26.015625 C-11.53056641 26.87446289 -11.40488281 27.73330078 -11.27539062 28.61816406 C-11 31 -11 31 -11 35 C-13.64 35.33 -16.28 35.66 -19 36 C-21.15626379 28.45307674 -22.04905387 20.76943218 -23 13 C-25.97 12.505 -25.97 12.505 -29 12 C-29.04254356 10.00045254 -29.04080783 7.99958364 -29 6 C-27.50745983 4.50745983 -26.03041063 4.61317407 -23.95703125 4.31640625 C-22.71663086 4.13174805 -22.71663086 4.13174805 -21.45117188 3.94335938 C-19.71174193 3.69229436 -17.97216143 3.44226988 -16.23242188 3.19335938 C-10.81076109 2.38409369 -5.37738147 0 0 0 Z " fill="#FDF7F7" transform="translate(196,268)"/>
<path d="M0 0 C3.04163529 4.59142089 6.64813553 10.30168521 6.25 16 C4.59421679 19.9738797 2.84768955 21.15014925 -1 23 C-3.8125 23.3125 -3.8125 23.3125 -6 23 C-6.33 22.67 -6.66 22.34 -7 22 C-7.38800781 22.75667969 -7.77601563 23.51335937 -8.17578125 24.29296875 C-10.23167908 27.34379786 -11.99950758 28.53219254 -15.1875 30.3125 C-16.08855469 30.82425781 -16.98960937 31.33601563 -17.91796875 31.86328125 C-18.60503906 32.23839844 -19.29210937 32.61351562 -20 33 C-23.12543554 27.71080139 -23.12543554 27.71080139 -22.625 24.875 C-20.17660168 22.04992501 -17.31224075 20.71745817 -14 19 C-14 18.01 -14 17.02 -14 16 C-15.299375 16.433125 -15.299375 16.433125 -16.625 16.875 C-19.75 17.91666667 -22.875 18.95833333 -26 20 C-29 15.375 -29 15.375 -29 12 C-25.35856844 10.11752317 -21.71071834 8.24820514 -18.05639648 6.39086914 C-16.81399758 5.75709152 -15.57341674 5.1197368 -14.3347168 4.47875977 C-12.55478262 3.55849744 -10.76770675 2.65208974 -8.98046875 1.74609375 C-7.90692139 1.19622803 -6.83337402 0.6463623 -5.72729492 0.07983398 C-3 -1 -3 -1 0 0 Z " fill="#FDF7F8" transform="translate(285,87)"/>
<path d="M0 0 C3.82038063 1.19248875 7.2663996 2.52996391 10.75 4.5 C11.50796875 4.9228125 12.2659375 5.345625 13.046875 5.78125 C15 7 15 7 17 9 C17.47025629 13.98471662 17.07908998 17.00858706 14 21 C13.01 21.66 12.02 22.32 11 23 C10.73735492 24.9370075 10.4837466 26.8766619 10.31640625 28.82421875 C9.82466817 32.20567687 8.47091591 34.93026245 7 38 C4.69 37.01 2.38 36.02 0 35 C0.60825035 30.65535464 1.26167392 26.32448133 2 22 C-1.11596912 22.66627512 -1.11596912 22.66627512 -2.16796875 25.06640625 C-2.67263672 26.30197266 -2.67263672 26.30197266 -3.1875 27.5625 C-3.53167969 28.38878906 -3.87585938 29.21507812 -4.23046875 30.06640625 C-4.61138672 31.02353516 -4.61138672 31.02353516 -5 32 C-10.75 30.125 -10.75 30.125 -13 29 C-11.72451525 24.96530333 -10.2387032 21.19173454 -8.3984375 17.3828125 C-7.90859375 16.36445313 -7.41875 15.34609375 -6.9140625 14.296875 C-6.40617187 13.25015625 -5.89828125 12.2034375 -5.375 11.125 C-4.859375 10.05507813 -4.34375 8.98515625 -3.8125 7.8828125 C-2.54486479 5.25364318 -1.2739434 2.62611698 0 0 Z " fill="#FDF7F8" transform="translate(101,258)"/>
<path d="M0 0 C0.33 3.3 0.66 6.6 1 10 C-5.93 12.97 -5.93 12.97 -13 16 C-8.05 15.67 -3.1 15.34 2 15 C3.35439668 17.70879335 3.06501451 20.00933268 3 23 C-0.93231128 23.57236003 -4.86501295 24.14194927 -8.7980957 24.70898438 C-10.13577083 24.90223474 -11.47333724 25.09623922 -12.81079102 25.29101562 C-14.73424932 25.57099916 -16.65813552 25.84803815 -18.58203125 26.125 C-19.73936768 26.29257813 -20.8967041 26.46015625 -22.08911133 26.6328125 C-25 27 -25 27 -28 27 C-28.33 24.03 -28.66 21.06 -29 18 C-24.05 15.69 -19.1 13.38 -14 11 C-19.37461131 11.50840918 -24.68699144 12.0212879 -30 13 C-30.33 10.36 -30.66 7.72 -31 5 C-26.58442544 4.16080872 -22.16737466 3.3296592 -17.75 2.5 C-16.49574219 2.26152344 -15.24148438 2.02304688 -13.94921875 1.77734375 C-12.74394531 1.55175781 -11.53867187 1.32617188 -10.296875 1.09375 C-9.18666992 0.88427734 -8.07646484 0.67480469 -6.93261719 0.45898438 C-4 0 -4 0 0 0 Z " fill="#FDF8F8" transform="translate(300,125)"/>
<path d="M0 0 C1.64671412 0.30782496 3.29235576 0.62139234 4.9375 0.9375 C5.85402344 1.11152344 6.77054688 1.28554688 7.71484375 1.46484375 C10 2 10 2 11 3 C11.0883967 5.3756852 11.11530305 7.72208674 11.09765625 10.09765625 C11.0962413 10.80651474 11.09482635 11.51537323 11.09336853 12.24571228 C11.08775443 14.51801712 11.07519963 16.79022475 11.0625 19.0625 C11.05748681 20.59960796 11.05292359 22.13671745 11.04882812 23.67382812 C11.03778042 27.44925642 11.02050641 31.22461171 11 35 C5.25 34.125 5.25 34.125 3 33 C3 31.02 3 29.04 3 27 C0.69 26.67 -1.62 26.34 -4 26 C-4.33 27.65 -4.66 29.3 -5 31 C-9.455 30.01 -9.455 30.01 -14 29 C-4.23404255 8.27659574 -4.23404255 8.27659574 0 0 Z " fill="#FDF8F8" transform="translate(128,269)"/>
<path d="M0 0 C1.75 1.75 1.75 1.75 3 4 C2.97265625 5.82421875 2.97265625 5.82421875 2 8 C-0.07186451 9.82913562 -2.08516578 11.44943602 -4.3125 13.0625 C-4.89451172 13.49626953 -5.47652344 13.93003906 -6.07617188 14.37695312 C-8.49275203 16.17502013 -10.91583681 17.94357395 -13.41796875 19.62109375 C-14.20107422 20.30365234 -14.20107422 20.30365234 -15 21 C-15 21.99 -15 22.98 -15 24 C-11.95164793 23.40851012 -10.08209617 22.52987509 -7.6875 20.56640625 C-6.78644531 19.8403418 -6.78644531 19.8403418 -5.8671875 19.09960938 C-5.25101562 18.59236328 -4.63484375 18.08511719 -4 17.5625 C3.43530521 11.48826008 3.43530521 11.48826008 7 10 C8.32 11.65 9.64 13.3 11 15 C8.85253882 19.99491602 5.0826217 22.49410225 0.875 25.75 C0.14023437 26.35199219 -0.59453125 26.95398438 -1.3515625 27.57421875 C-4.95067302 30.36859857 -7.72062542 32.39319623 -12.375 32.53515625 C-16.87532539 31.87077632 -18.2183581 30.51795887 -21 27 C-23.40832094 23.38751859 -23.72360855 22.26125032 -23 18 C-19.60634971 12.44349512 -14.3107032 8.46293831 -9.25 4.5 C-8.399823 3.83145996 -8.399823 3.83145996 -7.5324707 3.14941406 C-3.37304227 0 -3.37304227 0 0 0 Z " fill="#FDF8F9" transform="translate(268,63)"/>
<path d="M0 0 C3.46941546 0.45822468 6.67395049 0.89131683 10 2 C10.09224118 8.50300298 9.77432572 14.84347136 9.125 21.3125 C9.00705078 22.63217773 9.00705078 22.63217773 8.88671875 23.97851562 C8.80292969 24.82736328 8.71914062 25.67621094 8.6328125 26.55078125 C8.52283936 27.69027222 8.52283936 27.69027222 8.41064453 28.8527832 C7.96534456 31.18120962 7.15027525 32.93775004 6 35 C3.69 34.01 1.38 33.02 -1 32 C-0.67 30.02 -0.34 28.04 0 26 C-2.31 25.67 -4.62 25.34 -7 25 C-7.33 26.32 -7.66 27.64 -8 29 C-12.455 28.01 -12.455 28.01 -17 27 C-15.61624948 23.16598382 -13.83573405 20.05008918 -11.5234375 16.69921875 C-10.853125 15.72275391 -10.1828125 14.74628906 -9.4921875 13.74023438 C-8.44417969 12.22913086 -8.44417969 12.22913086 -7.375 10.6875 C-6.31539062 9.14739258 -6.31539062 9.14739258 -5.234375 7.57617188 C-3.49388988 5.04776444 -1.74898214 2.52253376 0 0 Z " fill="#FDF9F9" transform="translate(203,23)"/>
<path d="M0 0 C5.61 0 11.22 0 17 0 C17 2.66666667 17 5.33333333 17 8 C17.495 8.99 17.495 8.99 18 10 C18.43023798 13.87214182 18.31669086 15.52496371 16.125 18.8125 C11.85876263 23.20421494 7.00199402 22.3298929 1.1875 22.4375 C0.18912109 22.48326172 -0.80925781 22.52902344 -1.83789062 22.57617188 C-8.96798793 22.6854272 -8.96798793 22.6854272 -11.78979492 20.8112793 C-15.33656563 16.86021348 -15.81033392 13.40534519 -15.55859375 8.34765625 C-14.93049803 5.70789733 -14.256577 4.66713366 -12.25 2.875 C-9 1 -9 1 -5 1 C-5 3.64 -5 6.28 -5 9 C-5.99 9.33 -6.98 9.66 -8 10 C-8.73323796 12.01508358 -8.73323796 12.01508358 -9 14 C-6.04132082 13.85953745 -3.08317736 13.71287776 -0.125 13.5625 C0.71675781 13.52318359 1.55851562 13.48386719 2.42578125 13.44335938 C3.63427734 13.38051758 3.63427734 13.38051758 4.8671875 13.31640625 C5.61081543 13.27974854 6.35444336 13.24309082 7.12060547 13.20532227 C9.08864312 13.10044135 9.08864312 13.10044135 11 12 C10.67 11.01 10.34 10.02 10 9 C7.525 8.505 7.525 8.505 5 8 C5 8.99 5 9.98 5 11 C3.35 11 1.7 11 0 11 C0 7.37 0 3.74 0 0 Z " fill="#FDF6F6" transform="translate(30,153)"/>
<path d="M0 0 C0.88558594 -0.01546875 1.77117187 -0.0309375 2.68359375 -0.046875 C9.45234116 -0.00652479 13.25784545 1.63284545 18.125 6.5 C18.84372914 11.22188332 18.74218374 15.29031987 16.5625 19.5625 C13.45102376 22.03572471 11.04101134 22.27407627 7.125 22.5 C7.125 19.86 7.125 17.22 7.125 14.5 C8.445 14.17 9.765 13.84 11.125 13.5 C11.125 12.51 11.125 11.52 11.125 10.5 C8.41783758 9.59761253 6.88723232 9.38148698 4.11328125 9.40234375 C3.35595703 9.40556641 2.59863281 9.40878906 1.81835938 9.41210938 C0.63983398 9.42467773 0.63983398 9.42467773 -0.5625 9.4375 C-1.35978516 9.44201172 -2.15707031 9.44652344 -2.97851562 9.45117188 C-4.94404257 9.4629415 -6.90953085 9.48087652 -8.875 9.5 C-8.545 10.49 -8.215 11.48 -7.875 12.5 C-6.225 12.83 -4.575 13.16 -2.875 13.5 C-2.875 12.84 -2.875 12.18 -2.875 11.5 C-0.895 11.5 1.085 11.5 3.125 11.5 C3.125 15.13 3.125 18.76 3.125 22.5 C-2.485 22.17 -8.095 21.84 -13.875 21.5 C-13.875 19.85 -13.875 18.2 -13.875 16.5 C-13.215 16.5 -12.555 16.5 -11.875 16.5 C-12.535 15.51 -13.195 14.52 -13.875 13.5 C-14.2109375 11.37890625 -14.2109375 11.37890625 -14.25 9.0625 C-14.27835937 8.30066406 -14.30671875 7.53882813 -14.3359375 6.75390625 C-12.79323209 -0.78966173 -6.26094308 -0.1084146 0 0 Z " fill="#FDF7F8" transform="translate(285.875,153.5)"/>
<path d="M0 0 C2.64 0 5.28 0 8 0 C8.14536813 4.39548491 8.23409948 8.79035087 8.3125 13.1875 C8.35439453 14.43337891 8.39628906 15.67925781 8.43945312 16.96289062 C8.56244552 26.13812306 8.56244552 26.13812306 5.828125 30.328125 C1.23780218 33.04174125 -2.83119253 32.87606906 -8 32 C-11.16620095 29.81381363 -11.7896387 28.63108389 -13 25 C-13.08239169 23.15389468 -13.10743359 21.30494836 -13.09765625 19.45703125 C-13.09443359 18.38388672 -13.09121094 17.31074219 -13.08789062 16.20507812 C-13.07951172 15.08552734 -13.07113281 13.96597656 -13.0625 12.8125 C-13.05798828 11.68134766 -13.05347656 10.55019531 -13.04882812 9.38476562 C-13.03703498 6.58979073 -13.0205765 3.7949218 -13 1 C-10.36 1 -7.72 1 -5 1 C-4.67 9.58 -4.34 18.16 -4 27 C-3.01 26.67 -2.02 26.34 -1 26 C-0.67 17.42 -0.34 8.84 0 0 Z " fill="#FEFCFC" transform="translate(160,15)"/>
<path d="M0 0 C3.67405908 0.60533696 5.81545286 2.18337355 8.6875 4.5 C9.47511719 5.1290625 10.26273438 5.758125 11.07421875 6.40625 C13 8 13 8 14 9 C14.35536226 14.33043395 14.44866826 17.65723256 11 22 C7.44342962 24.37104692 6.19476306 24.48401112 2 24 C-0.49918259 22.84575904 -2.6705424 21.49085287 -5 20 C-5.37125 20.8353125 -5.37125 20.8353125 -5.75 21.6875 C-7.21606015 24.39971127 -9.02989471 26.63587365 -11 29 C-13.90542812 27.6975667 -15.8092961 26.29113732 -18 24 C-15.94122453 21.12231646 -13.87730798 18.24835738 -11.8125 15.375 C-11.23435547 14.56675781 -10.65621094 13.75851562 -10.06054688 12.92578125 C-6.85538558 8.47115029 -3.57674223 4.16276214 0 0 Z " fill="#FDF8F8" transform="translate(83,246)"/>
<path d="M0 0 C2 1.8125 2 1.8125 4 4 C4 4.99 4 5.98 4 7 C-1.25714286 11 -1.25714286 11 -4 11 C-2.68 12.32 -1.36 13.64 0 15 C0.928125 14.319375 1.85625 13.63875 2.8125 12.9375 C3.864375 12.298125 4.91625 11.65875 6 11 C6.99 11.33 7.98 11.66 9 12 C9.33 13.65 9.66 15.3 10 17 C8.02 18.32 6.04 19.64 4 21 C4.66 22.32 5.32 23.64 6 25 C8.91517292 23.92598892 10.77810176 23.22189824 13 21 C15 21.125 15 21.125 17 22 C18.125 24.0546875 18.125 24.0546875 19 26 C17.0862931 27.46236093 15.16924767 28.91994246 13.25 30.375 C12.71117187 30.7875 12.17234375 31.2 11.6171875 31.625 C8.83735682 33.7268232 6.13965067 35.5012611 3 37 C2.59160889 36.41508789 2.18321777 35.83017578 1.76245117 35.22753906 C-0.0951553 32.56786226 -1.95381666 29.90892434 -3.8125 27.25 C-4.45509766 26.32960938 -5.09769531 25.40921875 -5.75976562 24.4609375 C-6.38173828 23.57148438 -7.00371094 22.68203125 -7.64453125 21.765625 C-8.50075073 20.54020996 -8.50075073 20.54020996 -9.37426758 19.29003906 C-10.44910208 17.77600578 -11.5589304 16.28615825 -12.70361328 14.82421875 C-14 13 -14 13 -14.09765625 11.046875 C-12.3660519 7.81783345 -9.43754458 6.19101936 -6.4375 4.25 C-5.82197266 3.83878906 -5.20644531 3.42757812 -4.57226562 3.00390625 C-3.05495359 1.99236489 -1.52833914 0.99480211 0 0 Z " fill="#FDF7F7" transform="translate(232,247)"/>
<path d="M0 0 C0.85464844 -0.00515625 1.70929688 -0.0103125 2.58984375 -0.015625 C5.21626892 0.26651862 6.82925221 0.8635047 9.0625 2.25 C11.37080393 5.48162551 11.23891243 8.3689265 11.0625 12.25 C8.4225 12.25 5.7825 12.25 3.0625 12.25 C2.7325 10.27 2.4025 8.29 2.0625 6.25 C1.0725 5.92 0.0825 5.59 -0.9375 5.25 C-0.9375 12.18 -0.9375 19.11 -0.9375 26.25 C-0.2775 26.25 0.3825 26.25 1.0625 26.25 C1.3925 23.94 1.7225 21.63 2.0625 19.25 C5.0325 19.25 8.0025 19.25 11.0625 19.25 C11.56591475 24.5358549 10.33160671 27.11554151 7.0625 31.25 C3.11515002 33.22367499 -1.64506678 32.82782755 -5.9375 32.25 C-9.59080579 29.03161157 -10.82045029 26.02150231 -11.140625 21.17578125 C-11.23163777 14.16021382 -11.20180182 8.5368035 -7.9375 2.25 C-4.71002945 0.09835297 -3.73244361 -0.02245079 0 0 Z " fill="#FDF5F5" transform="translate(154.9375,272.75)"/>
<path d="M0 0 C3.10164769 2.55024365 4.72566416 4.17699247 6 8 C1.375 11 1.375 11 -2 11 C-2.66 9.68 -3.32 8.36 -4 7 C-4.66 7 -5.32 7 -6 7 C-5.62561394 12.74058626 -3.78679721 16.81649127 -1.05859375 21.86328125 C0 24 0 24 0 26 C1.32 26 2.64 26 4 26 C3.34 23.36 2.68 20.72 2 18 C7.75 15 7.75 15 10 15 C12.23117064 19.33109594 12.33821718 22.31623988 11 27 C7.89416842 30.48459152 5.52576909 32.18481974 0.9375 33.0625 C-3.76285986 32.98789111 -4.67573644 32.17628362 -8 29 C-12.2251267 22.62491945 -16.12266808 14.84428335 -15 7 C-11.10261304 1.65501217 -6.64076925 -0.94868132 0 0 Z " fill="#FDF6F7" transform="translate(215,261)"/>
<path d="M0 0 C4.16845826 0.90547723 7.05578745 3.49328745 9.99609375 6.43359375 C10.0078125 8.52734375 10.0078125 8.52734375 9.68359375 10.93359375 C9.58433594 11.72765625 9.48507813 12.52171875 9.3828125 13.33984375 C8.99609375 15.43359375 8.99609375 15.43359375 7.99609375 17.43359375 C3.24609375 15.55859375 3.24609375 15.55859375 0.99609375 14.43359375 C1.32609375 11.79359375 1.65609375 9.15359375 1.99609375 6.43359375 C-2.1880588 7.93914974 -3.54368716 10.46778532 -5.69140625 14.24609375 C-6.29339844 15.28378906 -6.89539063 16.32148437 -7.515625 17.390625 C-8.86952128 20.15882763 -9.58355762 22.40147896 -10.00390625 25.43359375 C-6.84274849 24.06375872 -6.01119705 23.44452995 -4.00390625 20.43359375 C-1.06640625 21.24609375 -1.06640625 21.24609375 1.99609375 22.43359375 C2.32609375 23.42359375 2.65609375 24.41359375 2.99609375 25.43359375 C0.41306443 29.46957706 -0.85305884 31.05695278 -5.44140625 32.55859375 C-9.84259936 32.40416592 -11.63058676 31.19358242 -15.00390625 28.43359375 C-15.62265625 28.02109375 -16.24140625 27.60859375 -16.87890625 27.18359375 C-18.40019145 24.8171501 -18.65258343 22.66902414 -18.5546875 19.88671875 C-16.59093236 11.14034834 -9.94965819 -0.62067811 0 0 Z " fill="#FDF8F8" transform="translate(230.00390625,33.56640625)"/>
<path d="M0 0 C3.56311466 1.78155733 5.35645475 3.16763009 8 6 C6.54254576 9.36335594 4.68882146 11.54534005 2.0859375 14.109375 C1.32539063 14.86347656 0.56484375 15.61757812 -0.21875 16.39453125 C-1.0128125 17.17183594 -1.806875 17.94914062 -2.625 18.75 C-3.82769531 19.93916016 -3.82769531 19.93916016 -5.0546875 21.15234375 C-7.03202846 23.10614493 -9.01388909 25.05512103 -11 27 C-13.475 26.01 -13.475 26.01 -16 25 C-16 24.34 -16 23.68 -16 23 C-16.66 23 -17.32 23 -18 23 C-18 22.34 -18 21.68 -18 21 C-18.66 21 -19.32 21 -20 21 C-20 20.34 -20 19.68 -20 19 C-20.66 19 -21.32 19 -22 19 C-22 18.34 -22 17.68 -22 17 C-22.66 17 -23.32 17 -24 17 C-24.66 15.35 -25.32 13.7 -26 12 C-23.69 9.69 -21.38 7.38 -19 5 C-16.36 6.98 -13.72 8.96 -11 11 C-7.37 7.37 -3.74 3.74 0 0 Z " fill="#D63644" transform="translate(171,197)"/>
<path d="M0 0 C2.22941405 0.31073024 4.45852212 0.62365625 6.6875 0.9375 C7.92886719 1.11152344 9.17023438 1.28554688 10.44921875 1.46484375 C13.32474548 1.89822897 16.15644813 2.39649282 19 3 C18.67 4.98 18.34 6.96 18 9 C12.555 8.505 12.555 8.505 7 8 C7 9.98 7 11.96 7 14 C9.97 14 12.94 14 16 14 C15.67 16.31 15.34 18.62 15 21 C11.7 20.67 8.4 20.34 5 20 C4.855625 21.60875 4.71125 23.2175 4.5625 24.875 C4.125 29.75 4.125 29.75 3 32 C0.36 31.67 -2.28 31.34 -5 31 C-3.83100289 20.53403763 -2.21936179 10.29783869 0 0 Z " fill="#FDF8F8" transform="translate(175,16)"/>
<path d="M0 0 C5.96392565 3.60974447 10.89628532 8.27956824 16 13 C14.68 14.65 13.36 16.3 12 18 C10.02 17.34 8.04 16.68 6 16 C1.05 21.28 -3.9 26.56 -9 32 C-14 30 -14 30 -16 27 C-15.43152344 26.38253906 -14.86304688 25.76507813 -14.27734375 25.12890625 C-9.2433136 19.60744079 -4.48772121 13.9740083 0 8 C-1.32 7.34 -2.64 6.68 -4 6 C-2.84826645 3.53199953 -1.95216435 1.95216435 0 0 Z " fill="#FDF7F8" transform="translate(247,45)"/>
<path d="M0 0 C0.66 2.64 1.32 5.28 2 8 C-3.86383622 10.24960537 -9.76504556 12.28490459 -15.75 14.1875 C-17.00490234 14.59645508 -17.00490234 14.59645508 -18.28515625 15.01367188 C-19.09339844 15.27083984 -19.90164063 15.52800781 -20.734375 15.79296875 C-21.82057129 16.14137817 -21.82057129 16.14137817 -22.92871094 16.49682617 C-25 17 -25 17 -29 17 C-29.33 14.36 -29.66 11.72 -30 9 C-26.21165112 7.71248643 -22.42135154 6.43090931 -18.62915039 5.15478516 C-17.33953841 4.71988772 -16.05046971 4.28337578 -14.76196289 3.84521484 C-12.9091547 3.21547426 -11.05421111 2.59202743 -9.19921875 1.96875 C-8.08377686 1.59169922 -6.96833496 1.21464844 -5.8190918 0.82617188 C-3 0 -3 0 0 0 Z " fill="#FDF5F5" transform="translate(296,111)"/>
<path d="M0 0 C2.4375 2.125 2.4375 2.125 4 5 C4 8.77910616 3.83289714 11.00693033 1.375 13.9375 C-1.97682053 15.43699866 -4.36980218 15.45377473 -8 15 C-10.4375 13.4375 -10.4375 13.4375 -12 11 C-12.5 7.5 -12.5 7.5 -12 4 C-8.31256631 -0.67074935 -5.74002152 -1.60720603 0 0 Z " fill="#FDF5F6" transform="translate(60,230)"/>
<path d="M0 0 C1.8046875 0.640625 1.8046875 0.640625 3.8046875 2.328125 C5.14507256 5.42776546 5.35136619 7.29221802 4.8046875 10.640625 C2.7421875 13.578125 2.7421875 13.578125 -0.1953125 15.640625 C-3.71664395 15.640625 -6.03795544 15.33503923 -9.0703125 13.515625 C-10.88972673 10.48326794 -11.1953125 8.16195645 -11.1953125 4.640625 C-8.07525244 -0.19043574 -5.38934645 -1.09820645 0 0 Z " fill="#FDF5F6" transform="translate(41.1953125,197.359375)"/>
<path d="M0 0 C3 2.125 3 2.125 5 5 C5.0740828 8.63005731 4.41566541 10.39248901 2.375 13.375 C-0.97730682 15.66868361 -3.02651567 15.6385957 -7 15 C-9.96135546 12.41830549 -10.86756104 10.81118865 -11.5 6.9375 C-11 4 -11 4 -9.4375 1.625 C-6.02544071 -0.64970619 -4.02388226 -0.63534983 0 0 Z " fill="#FDF9F9" transform="translate(264,233)"/>
<path d="M0 0 C2.4375 1.5625 2.4375 1.5625 4 4 C4.56288002 7.94016013 4.60396028 10.05782196 2.4375 13.4375 C-0.94217804 15.60396028 -3.05983987 15.56288002 -7 15 C-9.4375 13.4375 -9.4375 13.4375 -11 11 C-11.56288002 7.05983987 -11.60396028 4.94217804 -9.4375 1.5625 C-6.05782196 -0.60396028 -3.94016013 -0.56288002 0 0 Z " fill="#FEF9FA" transform="translate(283,201)"/>
<path d="M0 0 C4.37198384 0.48648722 8.22834937 1.64278755 12.3125 3.25 C13.88451172 3.84554687 13.88451172 3.84554687 15.48828125 4.453125 C18 6 18 6 18.85546875 8.671875 C18.90316406 9.44015625 18.95085938 10.2084375 19 11 C12.29471328 10.54282136 5.8032682 8.39591877 0 5 C-0.9140625 2.89453125 -0.9140625 2.89453125 -1 1 C-0.67 0.67 -0.34 0.34 0 0 Z " fill="#DB4451" transform="translate(30,109)"/>
<path d="M0 0 C7.62951555 -0.34855655 13.92444501 -0.0017506 21 3 C20.67 4.32 20.34 5.64 20 7 C12.75841435 6.64999003 6.65594553 5.94397591 0 3 C0 2.01 0 1.02 0 0 Z " fill="#DA404D" transform="translate(22,136)"/>
<path d="M0 0 C4.16396651 0.56168613 6.81929152 1.91408554 10.25 4.3125 C11.55710937 5.20388672 11.55710937 5.20388672 12.890625 6.11328125 C15.12761294 8.11414269 15.66382287 9.07138001 16 12 C15.01 12.33 14.02 12.66 13 13 C10.49026115 11.60050651 8.17830602 10.17371593 5.8125 8.5625 C5.15830078 8.12873047 4.50410156 7.69496094 3.83007812 7.24804688 C2.21391967 6.17454017 0.60613901 5.0884403 -1 4 C-0.67 2.68 -0.34 1.36 0 0 Z " fill="#DA3F4D" transform="translate(43,85)"/>
<path d="M0 0 C1.05960937 0.00676758 1.05960937 0.00676758 2.140625 0.01367188 C3.88545275 0.02546125 5.630237 0.04339676 7.375 0.0625 C7.375 0.3925 7.375 0.7225 7.375 1.0625 C5.395 1.3925 3.415 1.7225 1.375 2.0625 C1.375 2.3925 1.375 2.7225 1.375 3.0625 C-0.275 3.0625 -1.925 3.0625 -3.625 3.0625 C-3.625 3.7225 -3.625 4.3825 -3.625 5.0625 C-5.275 5.0625 -6.925 5.0625 -8.625 5.0625 C-8.955 3.7425 -9.285 2.4225 -9.625 1.0625 C-6.55966836 -0.47016582 -3.35745728 -0.04026471 0 0 Z " fill="#DE5561" transform="translate(286.625,161.9375)"/>
<path d="M0 0 C1.65 0 3.3 0 5 0 C5.66 1.32 6.32 2.64 7 4 C4 6 4 6 0 6 C0 5.34 0 4.68 0 4 C-1.65 4 -3.3 4 -5 4 C-5 3.67 -5 3.34 -5 3 C-3.35 3 -1.7 3 0 3 C0 2.01 0 1.02 0 0 Z " fill="#DE5964" transform="translate(35,161)"/>
<path d="M0 0 C1.32 0.66 2.64 1.32 4 2 C3.67 3.65 3.34 5.3 3 7 C1.35 7 -0.3 7 -2 7 C-1.125 2.25 -1.125 2.25 0 0 Z " fill="#DA4350" transform="translate(106,267)"/>
<path d="M0 0 C0.042721 1.66611905 0.04063832 3.33382885 0 5 C-1 6 -1 6 -3.5625 6.0625 C-4.7690625 6.0315625 -4.7690625 6.0315625 -6 6 C-6 4.68 -6 3.36 -6 2 C-2.25 0 -2.25 0 0 0 Z " fill="#DA4350" transform="translate(283,96)"/>
<path d="M0 0 C0.33 0 0.66 0 1 0 C1 3.63 1 7.26 1 11 C-0.32 10.67 -1.64 10.34 -3 10 C-2.49287967 6.28111761 -1.88391785 3.26545761 0 0 Z " fill="#DD4E5B" transform="translate(131,279)"/>
<path d="M0 0 C0.33 0 0.66 0 1 0 C0.125 7.625 0.125 7.625 -1 11 C-2.32 10.34 -3.64 9.68 -5 9 C-3.35 6.03 -1.7 3.06 0 0 Z " fill="#DD4F5B" transform="translate(205,32)"/>
<path d="M0 0 C0.99 0.33 1.98 0.66 3 1 C2.67 2.65 2.34 4.3 2 6 C0.35 6.33 -1.3 6.66 -3 7 C-2.38722388 4.03824877 -1.74627478 2.61941217 0 0 Z " fill="#DA424F" transform="translate(86,255)"/>
<path d="M0 0 C2.63664741 2.63664741 4.255224 4.75970171 6 8 C6 8.66 6 9.32 6 10 C4.68 10.33 3.36 10.66 2 11 C1.34 7.37 0.68 3.74 0 0 Z " fill="#DC4A57" transform="translate(103,36)"/>
</svg>
