<?xml version="1.0" encoding="UTF-8"?>
<svg version="1.1" xmlns="http://www.w3.org/2000/svg" width="319" height="319">
<path d="M0 0 C2.48994643 2.19655739 4.92024251 4.44070279 7.33203125 6.72265625 C8.15316406 7.4909375 8.97429687 8.25921875 9.8203125 9.05078125 C33.86203027 32.23253089 53.45188143 68.31085599 54.63842773 102.30395508 C54.67141278 104.26237352 54.69251272 106.22102005 54.703125 108.1796875 C54.71215347 109.24394455 54.72118195 110.3082016 54.73048401 111.40470886 C54.74490366 113.64762603 54.75385244 115.89058448 54.75756836 118.13354492 C54.76936851 121.48888279 54.81855859 124.84231956 54.86914062 128.19726562 C55.18118901 169.54024729 37.18596648 206.82067876 8.80566406 236.30859375 C-20.48362686 265.80375189 -59.12787756 280.86260373 -100.18383789 281.07275391 C-102.52150529 281.08916762 -104.85912566 281.11625917 -107.1965332 281.15478516 C-147.41832875 281.81242452 -184.7566457 267.26024306 -213.96875 239.36328125 C-215.30486328 238.05617188 -215.30486328 238.05617188 -216.66796875 236.72265625 C-217.52777344 235.913125 -218.38757813 235.10359375 -219.2734375 234.26953125 C-247.2805611 207.34795508 -263.84055133 167.73047329 -264.87109375 129.05078125 C-265.40861022 87.55995323 -253.80663995 49.54471968 -226.66796875 17.72265625 C-226.2287207 17.20364746 -225.78947266 16.68463867 -225.33691406 16.14990234 C-198.48393759 -15.25155828 -159.66543075 -34.47926738 -118.61181641 -38.06347656 C-75.08173746 -41.22588734 -33.24493652 -28.37744947 0 0 Z " fill="#73BC47" transform="translate(264.66796875,38.27734375)"/>
<path d="M0 0 C16.8844189 13.15649297 28.01961663 32.22190897 31.55859375 53.33203125 C34.28033037 75.94893997 28.37348525 97.36438093 14.6875 115.6875 C0.43484873 132.93573063 -16.71538786 143.75158747 -39 147 C-39.029729 145.30810547 -39.029729 145.30810547 -39.06005859 143.58203125 C-39.13727526 139.3175158 -39.22579198 135.05329139 -39.31738281 130.7890625 C-39.35520127 128.95839262 -39.39012728 127.12766023 -39.421875 125.296875 C-39.78182119 103.51253102 -39.78182119 103.51253102 -44.1875 82.25 C-44.50569702 81.1993335 -44.50569702 81.1993335 -44.83032227 80.12744141 C-49.62812829 65.17852388 -58.31534586 55.6896652 -71 47 C-68 46 -68 46 -65.94140625 46.828125 C-50.25661851 56.20294066 -40.69053598 68.60479143 -33 85 C-27.78921639 77.99800952 -28.34857921 71.08671303 -29.25 62.6640625 C-31.23869275 52.18199448 -40.6910121 44.72190951 -48.953125 38.9296875 C-66.58521376 27.94096867 -87.61507856 25.05823363 -108 24 C-105.51573261 31.95243137 -102.6890044 39.52836164 -99 47 C-98.67870117 47.65194336 -98.35740234 48.30388672 -98.02636719 48.97558594 C-93.48187163 58.11039689 -88.77098824 66.29404234 -82 74 C-81.236875 75.03125 -80.47375 76.0625 -79.6875 77.125 C-71.43092005 85.95762041 -62.66495046 90.65973377 -50.71484375 91.56640625 C-49.64226318 91.64963135 -48.56968262 91.73285645 -47.46459961 91.81860352 C-46.2446228 91.90839478 -46.2446228 91.90839478 -45 92 C-44.94902664 98.52869305 -44.9141522 105.05733421 -44.89013672 111.58618164 C-44.88011826 113.80430011 -44.86649974 116.0224055 -44.84912109 118.24047852 C-44.82468949 121.44029989 -44.81347504 124.63994567 -44.8046875 127.83984375 C-44.79436493 128.82145981 -44.78404236 129.80307587 -44.77340698 130.81443787 C-44.7724371 136.85151033 -45.48099546 142.15262092 -47 148 C-69.61338455 149.01422157 -89.23147558 141.3122197 -106.25 126.625 C-121.51872665 112.33347185 -132.44977027 92.72110219 -133.3359375 71.5546875 C-133.36564779 69.66164669 -133.37821029 67.76827122 -133.375 65.875 C-133.37338867 64.87380127 -133.37177734 63.87260254 -133.37011719 62.84106445 C-133.22627104 54.03753931 -131.79279441 46.34939227 -129 38 C-128.54947266 36.6078125 -128.54947266 36.6078125 -128.08984375 35.1875 C-124.10870614 24.15750836 -117.0183796 15.377626 -109 7 C-108.42507812 6.36191406 -107.85015625 5.72382812 -107.2578125 5.06640625 C-79.43801047 -24.81658684 -30.88996595 -23.25373392 0 0 Z " fill="#73BB47" transform="translate(211,95)"/>
<path d="M0 0 C2.48994643 2.19655739 4.92024251 4.44070279 7.33203125 6.72265625 C8.15316406 7.4909375 8.97429687 8.25921875 9.8203125 9.05078125 C33.86203027 32.23253089 53.45188143 68.31085599 54.63842773 102.30395508 C54.67141278 104.26237352 54.69251272 106.22102005 54.703125 108.1796875 C54.71215347 109.24394455 54.72118195 110.3082016 54.73048401 111.40470886 C54.74490366 113.64762603 54.75385244 115.89058448 54.75756836 118.13354492 C54.76936851 121.48888279 54.81855859 124.84231956 54.86914062 128.19726562 C55.18118901 169.54024729 37.18596648 206.82067876 8.80566406 236.30859375 C-20.48362686 265.80375189 -59.12787756 280.86260373 -100.18383789 281.07275391 C-102.52150529 281.08916762 -104.85912566 281.11625917 -107.1965332 281.15478516 C-147.41832875 281.81242452 -184.7566457 267.26024306 -213.96875 239.36328125 C-215.30486328 238.05617188 -215.30486328 238.05617188 -216.66796875 236.72265625 C-217.52777344 235.913125 -218.38757813 235.10359375 -219.2734375 234.26953125 C-247.2805611 207.34795508 -263.84055133 167.73047329 -264.87109375 129.05078125 C-265.40861022 87.55995323 -253.80663995 49.54471968 -226.66796875 17.72265625 C-226.2287207 17.20364746 -225.78947266 16.68463867 -225.33691406 16.14990234 C-198.48393759 -15.25155828 -159.66543075 -34.47926738 -118.61181641 -38.06347656 C-75.08173746 -41.22588734 -33.24493652 -28.37744947 0 0 Z M-111.57421875 -30.19140625 C-153.50152553 -28.76870326 -190.79001005 -8.80783112 -219.23046875 21.41015625 C-246.28921175 52.47398395 -258.43316636 91.95228557 -256.66796875 132.72265625 C-255.67898811 145.8117154 -252.92457948 158.32717345 -248.66796875 170.72265625 C-248.28769531 171.83769531 -247.90742188 172.95273438 -247.515625 174.1015625 C-233.33854468 213.0049984 -204.51722933 243.15987331 -167.3425293 260.82128906 C-130.75366275 277.60832332 -88.85164267 278.36773745 -51.12060547 264.80712891 C-11.24813575 249.74245683 18.81795895 219.32823666 36.33203125 180.72265625 C44.04387048 162.153061 47.56516328 142.42786102 47.58203125 122.41015625 C47.58270599 121.69334686 47.58338074 120.97653748 47.58407593 120.23800659 C47.56749519 109.15044915 47.03955201 98.51276605 44.33203125 87.72265625 C44.16574219 87.03284668 43.99945313 86.34303711 43.828125 85.63232422 C37.35803341 59.47038907 23.79712957 36.22718063 5.33203125 16.72265625 C4.5121875 15.83835938 3.69234375 14.9540625 2.84765625 14.04296875 C-8.04685335 2.664975 -20.75078893 -5.99329641 -34.66796875 -13.27734375 C-35.82554687 -13.88320313 -36.983125 -14.4890625 -38.17578125 -15.11328125 C-61.05936319 -26.62985517 -86.18705464 -30.74992386 -111.57421875 -30.19140625 Z " fill="#74B94D" transform="translate(264.66796875,38.27734375)"/>
<path d="M0 0 C17.04659488 15.05063283 28.53726942 34.26340178 31.46875 57.1796875 C33.03949887 84.00919133 25.27973195 107.866007 7.46875 128.1796875 C-8.25333906 144.52075645 -30.39131068 154.9197914 -53.1340332 155.54833984 C-78.7227901 155.62398597 -100.49409483 146.65302819 -119.03125 129.1171875 C-136.79246994 111.00770834 -143.84375 88.47887589 -143.84375 63.56323242 C-143.57221483 40.50279931 -132.94441747 19.27151283 -116.53125 3.1796875 C-83.6660157 -25.93078213 -34.32855292 -28.7881852 0 0 Z M-94.53125 -5.8203125 C-95.37042969 -5.37945312 -96.20960937 -4.93859375 -97.07421875 -4.484375 C-103.69959747 -0.76594539 -109.06265666 3.94203137 -114.53125 9.1796875 C-115.4903125 10.04400391 -115.4903125 10.04400391 -116.46875 10.92578125 C-129.76567533 23.30260683 -138.11187824 43.23889462 -138.76953125 61.234375 C-139.24898021 86.11221082 -132.70695464 105.20950897 -116.53125 124.1796875 C-115.98210937 124.84226563 -115.43296875 125.50484375 -114.8671875 126.1875 C-102.5545548 139.76296683 -83.34177313 147.82241238 -65.53125 150.1796875 C-61.18224625 150.38270116 -56.87985675 150.37472468 -52.53125 150.1796875 C-50.74872638 143.31789676 -50.26157249 137.09120858 -50.3359375 130.01953125 C-50.34018234 128.47381187 -50.34018234 128.47381187 -50.34451294 126.89686584 C-50.35562137 123.63685007 -50.38070837 120.37711888 -50.40625 117.1171875 C-50.41629187 114.8938842 -50.4254156 112.67057656 -50.43359375 110.44726562 C-50.45553003 105.02464407 -50.48891335 99.60218613 -50.53125 94.1796875 C-51.63621826 94.05343994 -52.74118652 93.92719238 -53.87963867 93.79711914 C-55.34036404 93.62413079 -56.80105567 93.45085733 -58.26171875 93.27734375 C-58.98870972 93.19504517 -59.71570068 93.11274658 -60.46472168 93.0279541 C-65.97083997 92.36534015 -70.03703849 91.3964033 -74.53125 88.1796875 C-75.80162109 87.28636719 -75.80162109 87.28636719 -77.09765625 86.375 C-93.73515226 73.74068453 -104.06375591 54.31972063 -110.375 34.75390625 C-111.32003683 31.83259308 -112.34849134 29.01064226 -113.53125 26.1796875 C-86.30228259 27.84732506 -60.16925527 32.6570874 -40.53125 53.1796875 C-35.41830388 59.62082422 -34.40520663 65.44253628 -34.21875 73.6171875 C-34.16267578 75.22400391 -34.16267578 75.22400391 -34.10546875 76.86328125 C-34.65569811 81.14901271 -36.21086065 83.55951398 -38.53125 87.1796875 C-39.07652344 86.06851563 -39.62179688 84.95734375 -40.18359375 83.8125 C-47.58131247 69.07674833 -57.68446765 54.74818962 -73.53125 48.1796875 C-75.01625 48.6746875 -75.01625 48.6746875 -76.53125 49.1796875 C-75.22800781 50.12328125 -75.22800781 50.12328125 -73.8984375 51.0859375 C-67.45277366 55.83709383 -61.72036353 60.22057382 -57.53125 67.1796875 C-57.08394531 67.89898437 -56.63664062 68.61828125 -56.17578125 69.359375 C-47.39861383 84.23680248 -45.5592627 101.93850574 -45.21484375 118.90625 C-45.19406265 119.77994232 -45.17328156 120.65363464 -45.15187073 121.55380249 C-45.08726374 124.30402915 -45.02791027 127.05433885 -44.96875 129.8046875 C-44.92547994 131.68620599 -44.88186318 133.56771654 -44.83789062 135.44921875 C-44.73167564 140.02595982 -44.63016711 144.60278312 -44.53125 149.1796875 C-37.52749958 148.1949787 -31.03547223 147.09296466 -24.59375 144.1171875 C-23.92118164 143.81192139 -23.24861328 143.50665527 -22.55566406 143.19213867 C-0.36685974 132.74495364 13.23270456 115.56386132 22.46875 93.1796875 C29.2304704 74.36761537 28.01987125 53.16856087 19.84375 35.015625 C19.39 34.07976562 18.93625 33.14390625 18.46875 32.1796875 C18.015 31.24382812 17.56125 30.30796875 17.09375 29.34375 C6.94739693 9.65761932 -10.60277227 -4.58749912 -31.37890625 -11.890625 C-52.38200393 -18.08484711 -75.21983514 -16.09170268 -94.53125 -5.8203125 Z " fill="#F8FCF6" transform="translate(216.53125,92.8203125)"/>
<path d="M0 0 C0.71430176 0.12358887 1.42860352 0.24717773 2.16455078 0.37451172 C33.33768203 5.88980944 60.30472463 20.09605223 83 42 C83.85207031 42.78890625 84.70414062 43.5778125 85.58203125 44.390625 C105.21980105 63.06970052 118.9656006 89.73432917 125 116 C125.29777344 117.23363281 125.59554688 118.46726562 125.90234375 119.73828125 C134.18884536 158.09758813 125.13412564 198.81473939 105 232 C82.77648336 265.68674178 50.76856227 288.13441336 11.9375 298.4375 C11.01074463 298.6845166 10.08398926 298.9315332 9.12915039 299.18603516 C-25.0440477 307.77140483 -61.87627874 301.31229121 -93 286 C-94.01320313 285.50757813 -95.02640625 285.01515625 -96.0703125 284.5078125 C-107.87091836 278.41828703 -118.45790557 270.17733547 -128 261 C-128.49854492 260.53255371 -128.99708984 260.06510742 -129.51074219 259.58349609 C-146.7605104 243.37710292 -158.97209332 224.23472695 -167 202 C-167.45246094 200.77539062 -167.90492188 199.55078125 -168.37109375 198.2890625 C-176.84842494 174.29092021 -179.11655099 146.90156173 -173.44873047 122.00341797 C-172.99052166 119.95768265 -172.58809881 117.90612999 -172.19140625 115.84765625 C-169.91784173 104.60107307 -165.86438569 94.36631446 -161 84 C-160.68546875 83.32694824 -160.3709375 82.65389648 -160.046875 81.96044922 C-143.11035557 46.44578798 -110.71798008 19.53811847 -74.04272461 6.32470703 C-50.32551848 -1.87280988 -24.76094498 -4.39915266 0 0 Z M-122.74609375 41.95703125 C-124.31303137 43.37732306 -125.9330861 44.74027645 -127.58984375 46.0546875 C-131.23277559 48.99501174 -134.05605182 52.37154213 -137 56 C-137.81597656 57.00546875 -138.63195312 58.0109375 -139.47265625 59.046875 C-165.53480668 92.31567712 -173.66058328 132.19439446 -169.64990234 173.61572266 C-165.1775493 204.91250304 -148.40491968 232.4685056 -127 255 C-126.37996094 255.69609375 -125.75992188 256.3921875 -125.12109375 257.109375 C-102.47623597 281.62863935 -65.69257428 295.65281279 -32.93823242 297.13891602 C8.66859989 298.4388301 47.07097331 285.28052451 77.62890625 256.625 C94.68775052 240.28136581 107.07834548 221.26377538 115 199 C115.22671387 198.37158203 115.45342773 197.74316406 115.68701172 197.09570312 C124.49287916 172.33116512 126.22829324 144.58144477 120 119 C119.70996094 117.73542969 119.41992188 116.47085938 119.12109375 115.16796875 C109.58406604 76.42129967 85.20207533 44.92050386 51.6640625 23.91015625 C-3.65297071 -9.06487155 -75.5530632 -1.88217987 -122.74609375 41.95703125 Z " fill="#F6FBF4" transform="translate(184,10)"/>
<path d="M0 0 C0.84782498 15.10384508 -2.32389765 29.140627 -11.73046875 41.22265625 C-16.22726167 46.06931407 -21.19398556 49.54056341 -27.84765625 50.34375 C-35.24842103 50.57776628 -35.24842103 50.57776628 -37.82421875 48.59765625 C-39 47 -39 47 -39 45 C-37.85724609 44.50693359 -37.85724609 44.50693359 -36.69140625 44.00390625 C-25.04475028 38.63859283 -17.93779497 31.88544619 -13 20 C-13.66 20 -14.32 20 -15 20 C-15.2475 20.721875 -15.495 21.44375 -15.75 22.1875 C-19.21778174 29.99000891 -25.92832332 35.81085492 -33.625 39.23828125 C-36.9573776 40.30705367 -39.53401024 40.37673802 -43 40 C-43.43983867 31.64306529 -41.1447575 25.73075964 -36.00390625 19.12109375 C-30.44839886 13.24070288 -23.43235442 8.20116352 -16 5 C-14.68 5 -13.36 5 -12 5 C-12 4.34 -12 3.68 -12 3 C-10.75336669 2.49166409 -9.50250613 1.99368855 -8.25 1.5 C-7.55390625 1.2215625 -6.8578125 0.943125 -6.140625 0.65625 C-4 0 -4 0 0 0 Z " fill="#F8FCF6" transform="translate(218,163)"/>
<path d="M0 0 C12.58728309 10.6154134 12.58728309 10.6154134 13.5625 16.25 C13 19 13 19 11.9375 20.875 C8.99772876 22.58196395 6.32129197 22.18799766 3 22 C2.67 25.3 2.34 28.6 2 32 C3.15757812 31.7834375 4.31515625 31.566875 5.5078125 31.34375 C7.04682443 31.06222343 8.5858898 30.78098887 10.125 30.5 C10.88554687 30.35691406 11.64609375 30.21382812 12.4296875 30.06640625 C16.64470348 29.30334301 20.70394485 28.5859224 25 29 C27.375 31.5 27.375 31.5 29 34 C27.41824001 39.34634876 23.88376781 43.1177231 20.375 47.3125 C19.76398438 48.05306641 19.15296875 48.79363281 18.5234375 49.55664062 C17.02116023 51.37580451 15.513276 53.18998451 14 55 C11 54 11 54 9 51 C9.165 49.88625 9.33 48.7725 9.5 47.625 C10.01804371 43.86918308 9.70147135 42.30285614 8 39 C6.700625 39.2475 6.700625 39.2475 5.375 39.5 C1.41205315 38.91289676 1.06477641 38.32876665 -1.25 35.25 C-2.20725463 33.86043683 -3.12566599 32.44317783 -4 31 C-4.40476563 30.360625 -4.80953125 29.72125 -5.2265625 29.0625 C-6.26187183 26.30167512 -5.79872846 24.59463127 -5.125 21.75 C-4.92132813 20.85796875 -4.71765625 19.9659375 -4.5078125 19.046875 C-4.34023437 18.37140625 -4.17265625 17.6959375 -4 17 C-4.9075 17.845625 -5.815 18.69125 -6.75 19.5625 C-9.68013366 22.00888518 -9.68013366 22.00888518 -12.25 21.9375 C-14 21 -14 21 -16 19 C-15.69371213 15.45600743 -14.10501726 13.74942859 -11.62109375 11.328125 C-10.94755859 10.66425781 -10.27402344 10.00039062 -9.58007812 9.31640625 C-8.87302734 8.63449219 -8.16597656 7.95257813 -7.4375 7.25 C-6.72658203 6.55261719 -6.01566406 5.85523437 -5.28320312 5.13671875 C-3.52869286 3.4175342 -1.76756648 1.70574128 0 0 Z " fill="#F7FBF5" transform="translate(242,63)"/>
<path d="M0 0 C14.76194733 -0.41779096 14.76194733 -0.41779096 20 3 C23.14963371 7.30571314 22.62486985 12.91822711 22 18 C19.90219061 21.61691275 18.95125774 22.68291409 15 24 C12.42502932 24.07035439 9.88550071 24.0934934 7.3125 24.0625 C3.6928125 24.0315625 3.6928125 24.0315625 0 24 C0 16.08 0 8.16 0 0 Z " fill="#F9FCF7" transform="translate(153,263)"/>
<path d="M0 0 C4.22824021 1.29666033 7.95050812 2.91225281 11.8125 5.0625 C12.76769531 5.58972656 13.72289063 6.11695313 14.70703125 6.66015625 C17 8 17 8 18 9 C18.4626087 15.24521739 18.4626087 15.24521739 16.8125 17.9375 C14.43958382 19.32851983 12.70313576 19.21917317 10 19 C10 19.66 10 20.32 10 21 C10.66 21 11.32 21 12 21 C12 24.63 12 28.26 12 32 C6.25 30.125 6.25 30.125 4 29 C3.5859375 26.49609375 3.5859375 26.49609375 3.375 23.4375 C3.26285156 21.91962891 3.26285156 21.91962891 3.1484375 20.37109375 C3.09945312 19.58863281 3.05046875 18.80617188 3 18 C2.34 18 1.68 18 1 18 C0.01 20.31 -0.98 22.62 -2 25 C-6.75 24.125 -6.75 24.125 -9 23 C-8.43997169 17.43527426 -6.3654757 13.0732061 -3.9375 8.125 C-3.37192383 6.949375 -3.37192383 6.949375 -2.79492188 5.75 C-1.87006766 3.83004947 -0.93596022 1.914561 0 0 Z " fill="#F7FBF4" transform="translate(107,249)"/>
<path d="M0 0 C3.21012901 1.36417601 4.829416 2.72405594 6.796875 5.58984375 C7.28027344 6.29173828 7.76367188 6.99363281 8.26171875 7.71679688 C8.75285156 8.44962891 9.24398437 9.18246094 9.75 9.9375 C10.25660156 10.66646484 10.76320312 11.39542969 11.28515625 12.14648438 C15 17.60860638 15 17.60860638 15 21 C11.23642247 23.50905168 9.66563106 23.0695896 5.36328125 22.4921875 C1.9575449 21.78289365 -0.87994294 20.52683644 -4 19 C-3.566875 19.62648438 -3.13375 20.25296875 -2.6875 20.8984375 C-2.130625 21.71570313 -1.57375 22.53296875 -1 23.375 C-0.443125 24.18710937 0.11375 24.99921875 0.6875 25.8359375 C2 28 2 28 2 30 C0.02 30.99 -1.96 31.98 -4 33 C-5.98917433 30.25711333 -7.96452242 27.5045544 -9.9375 24.75 C-10.50146484 23.97269531 -11.06542969 23.19539063 -11.64648438 22.39453125 C-12.18466797 21.64042969 -12.72285156 20.88632812 -13.27734375 20.109375 C-13.77484131 19.41811523 -14.27233887 18.72685547 -14.78491211 18.01464844 C-16.00571954 15.99051685 -16.56292309 14.30994013 -17 12 C-15.30859375 10.42578125 -15.30859375 10.42578125 -13 9 C-10.59765625 9.29296875 -10.59765625 9.29296875 -8.0625 10.1875 C-7.22847656 10.46980469 -6.39445313 10.75210938 -5.53515625 11.04296875 C-3.00958471 11.99638174 -0.50114516 12.98432925 2 14 C1.55527344 13.38511719 1.11054688 12.77023438 0.65234375 12.13671875 C0.08644531 11.32847656 -0.47945312 10.52023438 -1.0625 9.6875 C-1.63097656 8.88699219 -2.19945312 8.08648437 -2.78515625 7.26171875 C-3.18605469 6.51535156 -3.58695313 5.76898438 -4 5 C-3 2 -3 2 0 0 Z " fill="#F8FBF6" transform="translate(227,238)"/>
<path d="M0 0 C1.82861328 0.80517578 1.82861328 0.80517578 3.19580078 2.94189453 C4.03180681 6.72456381 3.20424164 8.97614026 1.95361328 12.61767578 C1.56431641 13.77912109 1.17501953 14.94056641 0.77392578 16.13720703 C0.46197266 17.01763672 0.15001953 17.89806641 -0.17138672 18.80517578 C2.46861328 16.82517578 5.10861328 14.84517578 7.82861328 12.80517578 C11.82861328 14.80517578 11.82861328 14.80517578 12.57861328 16.93017578 C12.70236328 17.85830078 12.70236328 17.85830078 12.82861328 18.80517578 C10.74551242 20.40964509 8.66214101 22.01376096 6.57861328 23.61767578 C5.99208984 24.06949219 5.40556641 24.52130859 4.80126953 24.98681641 C1.82403481 27.27828358 -1.15858227 29.56048732 -4.17138672 31.80517578 C-6.63938719 30.65344223 -8.21922237 29.75734013 -10.17138672 27.80517578 C-9.99951172 25.85205078 -9.99951172 25.85205078 -9.42138672 23.55517578 C-9.12361328 22.35828125 -9.12361328 22.35828125 -8.81982422 21.13720703 C-8.03699685 18.321858 -7.15867072 15.55546693 -6.17138672 12.80517578 C-8.81138672 14.78517578 -11.45138672 16.76517578 -14.17138672 18.80517578 C-18.17138672 16.80517578 -18.17138672 16.80517578 -18.92138672 14.68017578 C-19.00388672 14.06142578 -19.08638672 13.44267578 -19.17138672 12.80517578 C-16.43748416 10.59692082 -13.68195773 8.41746709 -10.92138672 6.24267578 C-10.14408203 5.61425781 -9.36677734 4.98583984 -8.56591797 4.33837891 C-7.81181641 3.74863281 -7.05771484 3.15888672 -6.28076172 2.55126953 C-5.24387207 1.72647095 -5.24387207 1.72647095 -4.18603516 0.88500977 C-2.17138672 -0.19482422 -2.17138672 -0.19482422 0 0 Z " fill="#F8FBF6" transform="translate(71.17138671875,213.19482421875)"/>
<path d="M0 0 C1.4540625 0.0309375 1.4540625 0.0309375 2.9375 0.0625 C3.61257066 3.12320934 4.27604922 6.1863209 4.9375 9.25 C5.12828125 10.11431641 5.3190625 10.97863281 5.515625 11.86914062 C5.78632813 13.13081055 5.78632813 13.13081055 6.0625 14.41796875 C6.23007813 15.18778076 6.39765625 15.95759277 6.5703125 16.75073242 C6.96300915 19.22310247 6.99935285 21.56325809 6.9375 24.0625 C0.23219656 25.02040049 0.23219656 25.02040049 -3.375 22.3515625 C-5.4182525 20.33020199 -7.33028782 18.35675974 -9.0625 16.0625 C-9.0625 15.4025 -9.0625 14.7425 -9.0625 14.0625 C-9.7225 14.0625 -10.3825 14.0625 -11.0625 14.0625 C-10.918125 14.66578125 -10.77375 15.2690625 -10.625 15.890625 C-10.439375 16.68984375 -10.25375 17.4890625 -10.0625 18.3125 C-9.876875 19.10140625 -9.69125 19.8903125 -9.5 20.703125 C-9.0625 23.0625 -9.0625 23.0625 -9.0625 27.0625 C-11.3725 27.0625 -13.6825 27.0625 -16.0625 27.0625 C-18.47066567 19.32196748 -20.50329285 11.21716777 -20.0625 3.0625 C-16.88956533 2.54329251 -15.12645305 2.2927384 -12.0625 3.0625 C-8.67983137 5.73631973 -5.86416825 8.79388704 -3.0625 12.0625 C-3.18818359 10.88880859 -3.18818359 10.88880859 -3.31640625 9.69140625 C-3.41824219 8.67949219 -3.52007812 7.66757812 -3.625 6.625 C-3.72941406 5.61566406 -3.83382812 4.60632812 -3.94140625 3.56640625 C-3.98136719 2.74011719 -4.02132812 1.91382813 -4.0625 1.0625 C-3.0625 0.0625 -3.0625 0.0625 0 0 Z " fill="#F7FBF4" transform="translate(146.0625,33.9375)"/>
<path d="M0 0 C6.10974219 0.4850835 10.44948446 4.0342657 14.75 8.125 C16.1875 10.6875 16.1875 10.6875 16.125 13.6875 C15.16682133 16.75367175 14.05226981 19.07682226 12.1875 21.6875 C8.03515613 23.76367194 3.90235698 22.91324431 -0.375 21.5625 C-4.23582792 19.45659386 -7.45221203 17.47103277 -9.8125 13.6875 C-10.0376065 9.48551203 -9.09526082 6.66347893 -6.75 3.25 C-3.8125 0.6875 -3.8125 0.6875 0 0 Z " fill="#F7FBF4" transform="translate(57.8125,91.3125)"/>
<path d="M0 0 C4.40977968 2.80622343 8.00049113 6.10904448 10 11 C10.50046695 14.92032447 10.34198493 16.48702261 8.125 19.8125 C5.35910976 22.65973995 4.4226144 22.93327141 0.4375 23.5625 C-4.81215555 23.55288525 -7.59153308 20.41324964 -11.21484375 16.9453125 C-13.63194771 14.31135676 -13.96997504 13.31826461 -14.3125 9.6875 C-13.95124058 5.42463889 -12.98007946 3.98007946 -10 1 C-6.69425702 -0.65287149 -3.54394193 -0.76826713 0 0 Z " fill="#F7FBF4" transform="translate(77,72)"/>
<path d="M0 0 C3.74210393 2.22081304 6.93033114 4.93033114 10 8 C10.125 11.125 10.125 11.125 10 14 C7 15 7 15 4.9375 14.375 C3 13 3 13 2.0625 10.4375 C1.22724759 7.80097017 1.22724759 7.80097017 -1.3125 6.875 C-4.22910481 6.75698534 -4.22910481 6.75698534 -6.8125 9.125 C-9.1447728 11.76734652 -9.1447728 11.76734652 -9.5625 14.625 C-9.1923033 17.14021436 -9.1923033 17.14021436 -7.125 18.8125 C-5.1147343 20.16260712 -5.1147343 20.16260712 -3 20 C-2.67 19.34 -2.34 18.68 -2 18 C-2.99 17.67 -3.98 17.34 -5 17 C-4.67 15.68 -4.34 14.36 -4 13 C1.30479934 13 2.18982627 14.5362057 6 18 C5.4229284 21.89523329 3.80519876 24.27061743 1 27 C-3.11608725 27.93547438 -5.61261677 26.86900691 -9.125 24.8125 C-12.41970097 22.55291581 -15.02178114 20.54430879 -17 17 C-17.61142615 12.1850191 -17.51030438 10.04023585 -15.375 5.6875 C-11.01537077 0.75423534 -6.54080019 -1.01495175 0 0 Z " fill="#F6FBF4" transform="translate(92,237)"/>
<path d="M0 0 C8.0639709 1.55076363 13.92516932 6.82622076 20 12 C20.63292969 12.52335938 21.26585937 13.04671875 21.91796875 13.5859375 C29.34817314 20.28502338 33.63740854 30.15933673 38 39 C38.33 39.66 38.66 40.32 39 41 C39.99 41.33 40.98 41.66 42 42 C41.66226563 42.43828125 41.32453125 42.8765625 40.9765625 43.328125 C36.81978964 49.23891184 35.79338685 54.89504313 35 62 C34.67 62 34.34 62 34 62 C33.67 60.35 33.34 58.7 33 57 C32.34 58.32 31.68 59.64 31 61 C30.91363281 60.04222656 30.82726562 59.08445313 30.73828125 58.09765625 C28.95801268 40.46068108 24.6462711 21.47491736 11 9 C8.11480886 6.78615527 5.18759912 4.66823513 2.1953125 2.6015625 C1.47085938 2.07304687 0.74640625 1.54453125 0 1 C0 0.67 0 0.34 0 0 Z " fill="#78BE4D" transform="translate(140,141)"/>
<path d="M0 0 C2.97 0.33 5.94 0.66 9 1 C10.17372973 4.60190542 11.33776256 8.20687151 12.5 11.8125 C12.83386719 12.83666016 13.16773438 13.86082031 13.51171875 14.91601562 C13.82753906 15.89892578 14.14335937 16.88183594 14.46875 17.89453125 C14.76201172 18.80050049 15.05527344 19.70646973 15.35742188 20.63989258 C16 23 16 23 16 26 C13.36 26 10.72 26 8 26 C7.505 23.525 7.505 23.525 7 21 C4.03 21 1.06 21 -2 21 C-2 21.99 -2 22.98 -2 24 C-4.64 24 -7.28 24 -10 24 C-9.38473958 19.54989727 -7.62495293 15.93168216 -5.5625 12 C-3.52249523 8.06300111 -1.56617796 4.15548726 0 0 Z " fill="#F2F9EF" transform="translate(165,33)"/>
<path d="M0 0 C0.33 1.65 0.66 3.3 1 5 C-0.4562545 5.67119549 -1.91507867 6.33681807 -3.375 7 C-4.59316406 7.556875 -4.59316406 7.556875 -5.8359375 8.125 C-8 9 -8 9 -10 9 C-9.67 10.32 -9.34 11.64 -9 13 C-8.37351563 12.71125 -7.74703125 12.4225 -7.1015625 12.125 C-6.28429687 11.75375 -5.46703125 11.3825 -4.625 11 C-3.81289062 10.62875 -3.00078125 10.2575 -2.1640625 9.875 C0 9 0 9 2 9 C2.66 10.65 3.32 12.3 4 14 C0.7 15.32 -2.6 16.64 -6 18 C-6 19.32 -6 20.64 -6 22 C-5.32453125 21.69964844 -4.6490625 21.39929688 -3.953125 21.08984375 C-3.06109375 20.70957031 -2.1690625 20.32929688 -1.25 19.9375 C0.07257813 19.36322266 0.07257813 19.36322266 1.421875 18.77734375 C4.15256309 17.95399992 5.36901347 18.0226008 8 19 C8.33 20.32 8.66 21.64 9 23 C6.23174812 24.17314026 3.46071514 25.33870215 0.6875 26.5 C-0.09818359 26.83386719 -0.88386719 27.16773438 -1.69335938 27.51171875 C-2.45068359 27.82753906 -3.20800781 28.14335937 -3.98828125 28.46875 C-5.03302612 28.90864258 -5.03302612 28.90864258 -6.09887695 29.35742188 C-8 30 -8 30 -11 30 C-12.15268129 27.10684629 -13.29590743 24.21004513 -14.4375 21.3125 C-14.92573242 20.08756836 -14.92573242 20.08756836 -15.42382812 18.83789062 C-16.96339769 14.91754337 -18.39344895 11.19459951 -19 7 C-16.2100561 5.82905995 -13.41821403 4.66309073 -10.625 3.5 C-9.43390625 2.99919922 -9.43390625 2.99919922 -8.21875 2.48828125 C-7.45820313 2.17246094 -6.69765625 1.85664063 -5.9140625 1.53125 C-5.2123291 1.23798828 -4.5105957 0.94472656 -3.78759766 0.64257812 C-2 0 -2 0 0 0 Z " fill="#F6FAF3" transform="translate(208,252)"/>
<path d="M0 0 C2.20927044 0.2844814 4.41738979 0.5779096 6.625 0.875 C8.46964844 1.11863281 8.46964844 1.11863281 10.3515625 1.3671875 C13.73961517 1.95483689 16.77698651 2.81988122 20 4 C20 5.65 20 7.3 20 9 C15.71 8.34 11.42 7.68 7 7 C7 8.32 7 9.64 7 11 C10.3 11.33 13.6 11.66 17 12 C17 13.65 17 15.3 17 17 C15.56208484 16.85831863 14.1246763 16.71148957 12.6875 16.5625 C11.88699219 16.48128906 11.08648437 16.40007812 10.26171875 16.31640625 C8 16 8 16 5 15 C5 16.65 5 18.3 5 20 C10.94 20.99 10.94 20.99 17 22 C17 23.65 17 25.3 17 27 C13.95501389 27.95827504 11.97726069 27.99431517 8.890625 27.22265625 C8.13652344 27.03896484 7.38242188 26.85527344 6.60546875 26.66601562 C5.82816406 26.46685547 5.05085937 26.26769531 4.25 26.0625 C3.45722656 25.86720703 2.66445312 25.67191406 1.84765625 25.47070312 C-0.10362885 24.98875921 -2.05210783 24.49547912 -4 24 C-3.26990593 18.66251619 -2.38713289 13.36499559 -1.4375 8.0625 C-1.29892578 7.28326172 -1.16035156 6.50402344 -1.01757812 5.70117188 C-0.67943843 3.8005936 -0.3398683 1.90026992 0 0 Z " fill="#F5FAF1" transform="translate(129,259)"/>
<path d="M0 0 C4.75 1.875 4.75 1.875 7 3 C5.85024238 6.34474944 4.32782428 9.0790617 2.375 12 C0.35298868 15.13085624 -0.59672814 17.1809399 0 21 C1.65 21.33 3.3 21.66 5 22 C7.97 17.38 10.94 12.76 14 8 C15.98 8.99 17.96 9.98 20 11 C19.33936021 14.43851071 17.98791416 17.00994509 16.1875 20 C15.68605469 20.845625 15.18460938 21.69125 14.66796875 22.5625 C10.54644882 28.58551741 10.54644882 28.58551741 6.88671875 29.56640625 C0.6866893 29.55539376 -2.32802019 28.08798233 -7 24 C-8.54093888 20.91812224 -8.62194226 18.3208293 -8 15 C-5.78956303 9.73575933 -3.1665642 4.74984631 0 0 Z " fill="#F7FBF5" transform="translate(214,45)"/>
<path d="M0 0 C1.670625 0.061875 1.670625 0.061875 3.375 0.125 C2.6875 3 2.6875 3 1.375 6.125 C-1.25 7.5 -1.25 7.5 -3.625 8.125 C-3.625 9.115 -3.625 10.105 -3.625 11.125 C-2.965 11.125 -2.305 11.125 -1.625 11.125 C0.06232277 9.14239574 1.72866057 7.1417658 3.375 5.125 C6.46673752 3.57913124 8.96929552 3.83140479 12.375 4.125 C14.875 5.5625 14.875 5.5625 16.375 8.125 C16.83372 14.16863599 15.17005784 18.52492989 11.375 23.125 C8.16048731 24.73225635 4.93887464 24.18248185 1.375 24.125 C2 21.25 2 21.25 3.375 18.125 C6.5 16.75 6.5 16.75 9.375 16.125 C9.705 14.475 10.035 12.825 10.375 11.125 C7.93019921 11.31328772 7.93019921 11.31328772 5.375 12.125 C4.26663577 14.00816159 4.26663577 14.00816159 3.375 16.125 C0.9916553 18.5083447 -0.31945644 19.08135092 -3.6875 19.5625 C-6.625 19.125 -6.625 19.125 -8.5 17.5625 C-10.07418596 14.15176375 -10.07455307 11.84986831 -9.625 8.125 C-5.12599536 0.17675846 -5.12599536 0.17675846 0 0 Z " fill="#F5FAF2" transform="translate(257.625,203.875)"/>
<path d="M0 0 C3.875 1.75 3.875 1.75 5 4 C4.505 4.598125 4.01 5.19625 3.5 5.8125 C1.71723582 7.97029994 1.71723582 7.97029994 2 11 C3.62782095 12.77098198 3.62782095 12.77098198 5.75 14.4375 C8.63588709 16.85263955 11.3903479 19.28161239 14 22 C12.68 23.65 11.36 25.3 10 27 C5.56622706 25.09549299 2.62797233 21.91536336 -0.78125 18.58203125 C-2.83993903 16.76220309 -2.83993903 16.76220309 -5.15625 17.13671875 C-7.18699756 17.9599679 -7.18699756 17.9599679 -9 20 C-11.125 19.625 -11.125 19.625 -13 19 C-13 14.09334735 -11.86565061 13.15837684 -8.75 9.5 C-7.96109375 8.5615625 -7.1721875 7.623125 -6.359375 6.65625 C-4.31014503 4.3491699 -2.2114046 2.15054025 0 0 Z " fill="#F6FBF4" transform="translate(244,220)"/>
<path d="M0 0 C7.90709331 0.645477 15.39133967 2.86997139 23 5 C22.67 6.98 22.34 8.96 22 11 C19.03 10.67 16.06 10.34 13 10 C12.896875 11.134375 12.79375 12.26875 12.6875 13.4375 C12.10889499 18.19397351 10.64926303 22.51898346 9 27 C4.25 26.125 4.25 26.125 2 25 C2.68804496 18.80759538 4.28048715 12.98044406 6 7 C3.03 6.505 3.03 6.505 0 6 C0 4.02 0 2.04 0 0 Z " fill="#F6FBF3" transform="translate(184,36)"/>
<path d="M0 0 C0.33 1.98 0.66 3.96 1 6 C-1.45714547 6.83698386 -3.91558857 7.66972424 -6.375 8.5 C-7.07367188 8.73847656 -7.77234375 8.97695312 -8.4921875 9.22265625 C-13.7734375 11 -13.7734375 11 -16 11 C-15.7834375 11.53109375 -15.566875 12.0621875 -15.34375 12.609375 C-15.0653125 13.31578125 -14.786875 14.0221875 -14.5 14.75 C-14.2215625 15.44609375 -13.943125 16.1421875 -13.65625 16.859375 C-13 19 -13 19 -13 23 C-14.98 23.33 -16.96 23.66 -19 24 C-19.83679277 21.37605694 -20.66956942 18.75095616 -21.5 16.125 C-21.73847656 15.37863281 -21.97695313 14.63226563 -22.22265625 13.86328125 C-24 8.2265625 -24 8.2265625 -24 6 C-5.59505703 -1.86501901 -5.59505703 -1.86501901 0 0 Z " fill="#F7FBF5" transform="translate(279,114)"/>
<path d="M0 0 C7.78121942 2.02189166 15.39772708 4.38630407 23 7 C22.67 9.31 22.34 11.62 22 14 C20.08191891 13.54762239 18.16557967 13.08785537 16.25 12.625 C15.18265625 12.36976563 14.1153125 12.11453125 13.015625 11.8515625 C10.44147278 11.12466459 8.32399814 10.2973776 6 9 C6.33 9.66 6.66 10.32 7 11 C7.039992 12.99960012 7.04346799 15.00047242 7 17 C4.6875 16.5 4.6875 16.5 2 15 C0.63408497 12.43960057 -0.1859182 9.77777911 -1 7 C-1.33 6.01 -1.66 5.02 -2 4 C-1.0625 1.8125 -1.0625 1.8125 0 0 Z " fill="#F7FBF4" transform="translate(41,116)"/>
<path d="M0 0 C1.4606285 2.64738916 2 3.89448334 2 7 C0.87980469 7.55429688 -0.24039063 8.10859375 -1.39453125 8.6796875 C-2.86724038 9.41135191 -4.33989372 10.14312861 -5.8125 10.875 C-6.55048828 11.23980469 -7.28847656 11.60460937 -8.04882812 11.98046875 C-8.76103516 12.33496094 -9.47324219 12.68945312 -10.20703125 13.0546875 C-10.8616333 13.37937012 -11.51623535 13.70405273 -12.19067383 14.03857422 C-14.24652798 15.09255672 -14.24652798 15.09255672 -17 17 C-17.99 17 -18.98 17 -20 17 C-21.30423962 14.85184062 -22.04939695 13.54718683 -21.82006836 11.00683594 C-20.70406895 8.27581029 -19.47086231 7.85556709 -16.81640625 6.640625 C-15.97142578 6.24746094 -15.12644531 5.85429687 -14.25585938 5.44921875 C-13.36705078 5.05347656 -12.47824219 4.65773437 -11.5625 4.25 C-10.67755859 3.83878906 -9.79261719 3.42757812 -8.88085938 3.00390625 C-2.32915023 0 -2.32915023 0 0 0 Z " fill="#F6FAF3" transform="translate(67,202)"/>
<path d="M0 0 C0.20496094 0.89203125 0.40992188 1.7840625 0.62109375 2.703125 C0.89050781 3.87359375 1.15992188 5.0440625 1.4375 6.25 C1.83775391 7.99023438 1.83775391 7.99023438 2.24609375 9.765625 C2.66884429 11.57929052 3.1059236 13.39024485 3.59375 15.1875 C4.24866771 18.10944057 4.05729752 21.02052898 4 24 C1.69 24.33 -0.62 24.66 -3 25 C-3.67466072 22.12666819 -4.3399234 19.25168518 -5 16.375 C-5.19078125 15.56675781 -5.3815625 14.75851562 -5.578125 13.92578125 C-6.57925543 9.52795831 -7.2353082 5.54438961 -7 1 C-2.25 0 -2.25 0 0 0 Z " fill="#F7FBF4" transform="translate(185,260)"/>
<path d="M0 0 C2.73251347 1.99399631 3.83247946 3.1623973 4.5 6.5 C3.82597224 9.87013879 2.7912125 11.01677007 0 13 C-3.69388534 13.61564756 -5.30906087 13.46062609 -8.4375 11.375 C-10 9 -10 9 -10 5.9375 C-8.29052174 0.91590762 -5.27035799 -0.92231265 0 0 Z " fill="#EDF6E7" transform="translate(90,57)"/>
<path d="M0 0 C2.39067527 2.61480108 3.02179346 4.0846745 2.9375 7.625 C1.77451473 10.57122936 0.79278926 11.52602789 -2 13 C-4.5 13.5 -4.5 13.5 -7 13 C-9.375 10.8125 -9.375 10.8125 -11 8 C-10.93182826 5.13678706 -10.37360729 3.60192285 -8.875 1.1875 C-5.82365894 -0.745016 -3.50187969 -0.50026853 0 0 Z " fill="#EEF7E9" transform="translate(113,59)"/>
<path d="M0 0 C2.3125 0.875 2.3125 0.875 4.3125 2.875 C4.3125 4.195 4.3125 5.515 4.3125 6.875 C5.6325 7.535 6.9525 8.195 8.3125 8.875 C7.3225 8.875 6.3325 8.875 5.3125 8.875 C4.9825 9.535 4.6525 10.195 4.3125 10.875 C2.9925 9.555 1.6725 8.235 0.3125 6.875 C-0.6775 7.205 -1.6675 7.535 -2.6875 7.875 C-2.6875 8.865 -2.6875 9.855 -2.6875 10.875 C-2.0275 11.205 -1.3675 11.535 -0.6875 11.875 C-1.0175 12.865 -1.3475 13.855 -1.6875 14.875 C-4.60267292 13.80098892 -6.46560176 13.09689824 -8.6875 10.875 C-8.60931771 6.65315619 -8.2941678 4.54907533 -5.4375 1.375 C-2.6875 -0.125 -2.6875 -0.125 0 0 Z " fill="#79BF4E" transform="translate(90.6875,243.125)"/>
<path d="M0 0 C0.66 0 1.32 0 2 0 C2.33747251 3.87465111 2.66924222 7.74977038 3 11.625 C3.09539062 12.71941406 3.19078125 13.81382813 3.2890625 14.94140625 C3.37929687 16.00488281 3.46953125 17.06835938 3.5625 18.1640625 C3.64628906 19.13811035 3.73007813 20.1121582 3.81640625 21.11572266 C4.00542023 24.08515232 4.0308649 27.02539483 4 30 C2.68 30.33 1.36 30.66 0 31 C-0.7941676 23.76740222 -1.10764417 16.58314765 -1.125 9.3125 C-1.12951172 8.51021973 -1.13402344 7.70793945 -1.13867188 6.88134766 C-1.12379769 1.12379769 -1.12379769 1.12379769 0 0 Z " fill="#E8F4E1" transform="translate(97,49)"/>
<path d="M0 0 C3 0.25 3 0.25 5 2.25 C5.33333333 7.58333333 5.33333333 7.58333333 4 10.25 C2.72125 10.311875 1.4425 10.37375 0.125 10.4375 C-0.59429687 10.47230469 -1.31359375 10.50710937 -2.0546875 10.54296875 C-2.69664063 10.44628906 -3.33859375 10.34960938 -4 10.25 C-6 7.25 -6 7.25 -5.75 4.6875 C-4.63523671 1.06451932 -3.80176857 0.31681405 0 0 Z " fill="#F6FBF4" transform="translate(44,157.75)"/>
<path d="M0 0 C3.0625 0.3125 3.0625 0.3125 5 1.4375 C6.60193488 4.26444391 5.85834319 6.26176777 5.0625 9.3125 C4.0625 10.3125 4.0625 10.3125 0.625 10.5 C-2.9375 10.3125 -2.9375 10.3125 -4.9375 8.3125 C-5.1875 5.3125 -5.1875 5.3125 -4.9375 2.3125 C-2.9375 0.3125 -2.9375 0.3125 0 0 Z " fill="#F7FBF5" transform="translate(275.9375,157.6875)"/>
<path d="M0 0 C6 1 6 1 7 2 C7.1245486 3.64230364 7.17568524 5.29052276 7.1875 6.9375 C7.20167969 7.83339844 7.21585938 8.72929687 7.23046875 9.65234375 C7 12 7 12 5 14 C3.35 14 1.7 14 0 14 C0 9.38 0 4.76 0 0 Z " fill="#7CC153" transform="translate(160,268)"/>
<path d="M0 0 C4.44150841 -0.66622626 6.81608783 0.2296316 10.375 2.75 C12.4609375 4.296875 12.4609375 4.296875 14 6 C14 7.32 14 8.64 14 10 C9.55849159 10.66622626 7.18391217 9.7703684 3.625 7.25 C1.5390625 5.703125 1.5390625 5.703125 0 4 C0 2.68 0 1.36 0 0 Z " fill="#78BF4D" transform="translate(54,98)"/>
<path d="M0 0 C4.441725 1.39597071 7.01540848 3.43507124 10 7 C10.8125 9.8125 10.8125 9.8125 11 12 C8.22522966 12.5045037 6.52943543 12.34106788 4.14453125 10.8046875 C-0.65479372 6.86627237 -0.65479372 6.86627237 -1.828125 3.921875 C-1.88484375 3.28765625 -1.9415625 2.6534375 -2 2 C-1.34 1.34 -0.68 0.68 0 0 Z " fill="#78BE4D" transform="translate(70,77)"/>
<path d="M0 0 C3.29714793 0.32971479 4.6226839 0.6226839 7 3 C7.375 5.375 7.375 5.375 7 8 C5 10.3125 5 10.3125 3 12 C2.67 11.34 2.34 10.68 2 10 C1.34 9.67 0.68 9.34 0 9 C0.99 9 1.98 9 3 9 C1.75023244 5.34683329 1.32901247 4.21934164 -2 2 C-1.34 1.34 -0.68 0.68 0 0 Z " fill="#F2F9EF" transform="translate(87,58)"/>
<path d="M0 0 C0.66 0 1.32 0 2 0 C-0.1783415 7.62419527 -3.85409966 12.25089519 -10 17 C-9.48034256 12.90680784 -8.39893194 10.9036648 -5.5625 7.9375 C-3.16276516 5.40750816 -1.41734952 3.19793938 0 0 Z " fill="#77BD4C" transform="translate(203,183)"/>
<path d="M0 0 C0.33 1.32 0.66 2.64 1 4 C-0.09445838 4.86657116 -1.20097781 5.71792724 -2.3125 6.5625 C-2.92738281 7.03816406 -3.54226562 7.51382813 -4.17578125 8.00390625 C-4.77777344 8.33261719 -5.37976563 8.66132813 -6 9 C-6.99 8.67 -7.98 8.34 -9 8 C-9.33 7.01 -9.66 6.02 -10 5 C-6.7 3.35 -3.4 1.7 0 0 Z " fill="#7BBF51" transform="translate(192,197)"/>
<path d="M0 0 C0.66 0.33 1.32 0.66 2 1 C-3.94 6.94 -9.88 12.88 -16 19 C-16.66 18.67 -17.32 18.34 -18 18 C-12.66852872 11.86633975 -7.24150573 6.20656218 -1 1 C-0.67 0.67 -0.34 0.34 0 0 Z " fill="#83C45C" transform="translate(66,47)"/>
<path d="M0 0 C0 1.65 0 3.3 0 5 C-0.94875 5.268125 -1.8975 5.53625 -2.875 5.8125 C-6.25267273 6.74986588 -6.25267273 6.74986588 -8 10 C-8 9.01 -8 8.02 -8 7 C-8.66 6.67 -9.32 6.34 -10 6 C-8.90398831 4.99106869 -7.79786082 3.99311775 -6.6875 3 C-6.07261719 2.443125 -5.45773437 1.88625 -4.82421875 1.3125 C-3 0 -3 0 0 0 Z " fill="#7BC051" transform="translate(268,215)"/>
<path d="M0 0 C0.33 1.32 0.66 2.64 1 4 C-3.455 5.485 -3.455 5.485 -8 7 C-8.33 5.68 -8.66 4.36 -9 3 C-2.25 0 -2.25 0 0 0 Z " fill="#7EC154" transform="translate(207,258)"/>
<path d="M0 0 C2.475 0.99 2.475 0.99 5 2 C5 3.32 5 4.64 5 6 C2.03 5.505 2.03 5.505 -1 5 C-0.67 3.35 -0.34 1.7 0 0 Z " fill="#7DC153" transform="translate(112,257)"/>
<path d="M0 0 C1.9375 0.75 1.9375 0.75 4 2 C4.75 4.125 4.75 4.125 5 6 C3.68 6.33 2.36 6.66 1 7 C0.01 5.68 -0.98 4.36 -2 3 C-1.34 2.01 -0.68 1.02 0 0 Z " fill="#7EC155" transform="translate(243,72)"/>
<path d="M0 0 C0.66 0 1.32 0 2 0 C1.855625 1.093125 1.71125 2.18625 1.5625 3.3125 C0.90689307 8.529258 0.45251777 13.76234747 0 19 C-0.33 19 -0.66 19 -1 19 C-1.02683987 16.02077407 -1.04676037 13.04178705 -1.0625 10.0625 C-1.07087891 9.21236328 -1.07925781 8.36222656 -1.08789062 7.48632812 C-1.09111328 6.67744141 -1.09433594 5.86855469 -1.09765625 5.03515625 C-1.10289307 4.2862915 -1.10812988 3.53742676 -1.11352539 2.76586914 C-1 1 -1 1 0 0 Z " fill="#D8ECCC" transform="translate(97,49)"/>
<path d="M0 0 C0.99 0.66 1.98 1.32 3 2 C2.21625 2.598125 1.4325 3.19625 0.625 3.8125 C-2.14574323 5.91085249 -2.14574323 5.91085249 -4 9 C-4.99 8.67 -5.98 8.34 -7 8 C-6.67 6.68 -6.34 5.36 -6 4 C-5.38125 3.896875 -4.7625 3.79375 -4.125 3.6875 C-1.63473516 3.12474627 -1.63473516 3.12474627 0 0 Z " fill="#7EC255" transform="translate(260,207)"/>
<path d="M0 0 C5.03391715 0.96806099 9.63156663 3.07016106 13 7 C11.296875 7.7109375 11.296875 7.7109375 9 8 C6.640625 6.6015625 6.640625 6.6015625 4.25 4.625 C3.45078125 3.97789062 2.6515625 3.33078125 1.828125 2.6640625 C1.22484375 2.11492187 0.6215625 1.56578125 0 1 C0 0.67 0 0.34 0 0 Z " fill="#8BC765" transform="translate(140,141)"/>
<path d="M0 0 C-0.33 0.99 -0.66 1.98 -1 3 C-1.66 3 -2.32 3 -3 3 C-3.66 4.32 -4.32 5.64 -5 7 C-6.5 5.625 -6.5 5.625 -8 4 C-8 3.34 -8 2.68 -8 2 C-2.25 0 -2.25 0 0 0 Z " fill="#8EC96A" transform="translate(263,98)"/>
<path d="M0 0 C0.66 0.66 1.32 1.32 2 2 C0.02 2.99 -1.96 3.98 -4 5 C-4.33 4.01 -4.66 3.02 -5 2 C-5.66 1.34 -6.32 0.68 -7 0 C-4.29393021 -1.35303489 -2.8671629 -0.7884698 0 0 Z " fill="#82C35A" transform="translate(70,211)"/>
<path d="M0 0 C1.32 0.33 2.64 0.66 4 1 C4.33 2.65 4.66 4.3 5 6 C3.68 5.67 2.36 5.34 1 5 C0.67 3.35 0.34 1.7 0 0 Z " fill="#81C359" transform="translate(85,61)"/>
<path d="M0 0 C0.66 0 1.32 0 2 0 C0.84414715 3.91211733 -0.35534962 6.8745041 -3 10 C-3.75 8.375 -3.75 8.375 -4 6 C-2.1875 2.75 -2.1875 2.75 0 0 Z " fill="#92CA6F" transform="translate(203,183)"/>
<path d="M0 0 C1.74627478 2.61941217 2.38722388 4.03824877 3 7 C1.35 7 -0.3 7 -2 7 C-1.125 2.25 -1.125 2.25 0 0 Z " fill="#85C55E" transform="translate(168,42)"/>
<path d="M0 0 C1.32 0.66 2.64 1.32 4 2 C4 3.32 4 4.64 4 6 C3.01 6 2.02 6 1 6 C0.34 4.35 -0.32 2.7 -1 1 C-0.67 0.67 -0.34 0.34 0 0 Z " fill="#7EC155" transform="translate(107,62)"/>
<path d="M0 0 C0.0825 0.61875 0.165 1.2375 0.25 1.875 C0.81258459 4.18437567 0.81258459 4.18437567 3.0625 5.25 C3.701875 5.4975 4.34125 5.745 5 6 C4.01 6 3.02 6 2 6 C1.67 6.66 1.34 7.32 1 8 C0.01 6.68 -0.98 5.36 -2 4 C-1.34 4 -0.68 4 0 4 C0 2.68 0 1.36 0 0 Z " fill="#8AC765" transform="translate(94,246)"/>
</svg>
